<?xml version="1.0" encoding="UTF-8"?>
<svg width="100px" height="111px" viewBox="0 0 100 111" version="1.1" xmlns="http://www.w3.org/2000/svg" xmlns:xlink="http://www.w3.org/1999/xlink">
    <!-- Generator: Sketch 55.2 (78181) - https://sketchapp.com -->
    <title>Group 96</title>
    <desc>Created with Sketch.</desc>
    <defs>
        <polygon id="path-1" points="0 0.00200361011 99.985502 0.00200361011 99.985502 110.599278 0 110.599278"></polygon>
        <polygon id="path-3" points="0 110.997996 99.9855422 110.997996 99.9855422 0.400722022 0 0.400722022"></polygon>
    </defs>
    <g id="New-Design" stroke="none" stroke-width="1" fill="none" fill-rule="evenodd">
        <g id="Solutions" transform="translate(-291.000000, -2809.000000)">
            <g id="Group-96" transform="translate(291.000000, 2809.000000)">
                <g id="Group-3" transform="translate(0.000000, 0.398718)">
                    <mask id="mask-2" fill="white">
                        <use xlink:href="#path-1"></use>
                    </mask>
                    <g id="Clip-2"></g>
                    <path d="M94.745743,94.5996498 L94.745743,48.2425235 C96.3055823,47.3404982 97.3597992,45.6602708 97.3597992,43.7360036 C97.3597992,43.0615884 97.2264659,42.4188303 96.9919277,41.8269639 C97.2264659,41.2350975 97.3597992,40.5923394 97.3597992,39.9179242 C97.3597992,37.0455487 95.0176305,34.7085379 92.1389157,34.7085379 L89.5248594,34.7085379 L87.5806827,34.7085379 C86.749759,32.9285307 84.9445382,31.6890975 82.8501606,31.6890975 L62.9971486,31.6890975 C60.9031727,31.6890975 59.0979518,32.9285307 58.2666265,34.7085379 L56.3220482,34.7085379 L54.1810843,34.7085379 L54.1810843,17.0411047 C54.1810843,13.8449458 51.836506,11.1845523 48.7734538,10.6824477 L48.7734538,6.44601444 C48.7734538,2.89281227 45.8762651,0.00200361011 42.3156225,0.00200361011 L16.0007631,0.00200361011 C12.4401205,0.00200361011 9.54293173,2.89281227 9.54293173,6.44601444 L9.54293173,10.6824477 C6.47987952,11.1845523 4.13570281,13.8449458 4.13570281,17.0411047 L4.13570281,94.9114116 C1.71843373,95.8438917 -4.01606426e-05,98.1877148 -4.01606426e-05,100.924646 L-4.01606426e-05,104.155668 C-4.01606426e-05,107.708469 2.89714859,110.599278 6.45779116,110.599278 L93.5272691,110.599278 C97.0883133,110.599278 99.985502,107.708469 99.985502,104.155668 L99.985502,100.924646 C99.985502,97.7873935 97.7256627,95.170278 94.745743,94.5996498" id="Fill-1" fill="#C2E5FF" mask="url(#mask-2)"></path>
                </g>
                <path d="M53.7348193,100.08878 L48.9601205,100.08878 L48.9601205,17.4398632 C48.9601205,16.758235 48.4059036,16.2052386 47.7227711,16.2052386 L44.790241,16.2052386 C44.1067068,16.2052386 43.55249,15.652643 43.55249,14.9710148 L43.55249,6.84477292 C43.55249,6.16274404 42.9990763,5.61014838 42.3155422,5.61014838 L16.0006827,5.61014838 C15.3175502,5.61014838 14.7637349,6.16274404 14.7637349,6.84477292 L14.7637349,14.9706141 C14.7637349,15.652643 14.2095181,16.2052386 13.5263855,16.2052386 L10.5934538,16.2052386 C9.91032129,16.2052386 9.35650602,16.7578343 9.35650602,17.4398632 L9.35650602,100.08878 L6.45811245,100.08878 C5.77457831,100.08878 5.22076305,100.641777 5.22076305,101.323405 L5.22076305,104.554426 C5.22076305,105.236055 5.77457831,105.78865 6.45811245,105.78865 L93.5271888,105.78865 C94.2103213,105.78865 94.7645382,105.236055 94.7645382,104.554426 L94.7645382,101.323405 C94.7645382,100.641777 94.2103213,100.08878 93.5271888,100.08878 L89.5131325,100.08878" id="Fill-4" fill="#FFFFFF"></path>
                <path d="M93.5271888,106.589934 L6.45771084,106.589934 C5.33281124,106.589934 4.4175502,105.676688 4.4175502,104.554266 L4.4175502,101.323244 C4.4175502,100.200822 5.33281124,99.2871758 6.45771084,99.2871758 L8.55329317,99.2871758 L8.55329317,17.4397029 C8.55329317,16.3172805 9.46855422,15.404035 10.5934538,15.404035 L13.5263855,15.404035 C13.765743,15.404035 13.9605221,15.2096848 13.9605221,14.9708545 L13.9605221,6.84461264 C13.9605221,5.72219025 14.8757831,4.80854404 16.0006827,4.80854404 L42.3155422,4.80854404 C43.4404418,4.80854404 44.3557028,5.72219025 44.3557028,6.84461264 L44.3557028,14.9708545 C44.3557028,15.2096848 44.5508835,15.404035 44.790241,15.404035 L47.7227711,15.404035 C48.8480723,15.404035 49.7633333,16.3176812 49.7633333,17.4401036 L49.7633333,99.2871758 L53.7344177,99.2871758 C54.1781928,99.2871758 54.5376305,99.6462227 54.5376305,100.08862 C54.5376305,100.531418 54.1781928,100.890064 53.7344177,100.890064 L48.9601205,100.890064 C48.516747,100.890064 48.1569076,100.531418 48.1569076,100.08862 L48.1569076,17.4401036 C48.1569076,17.2012733 47.9621285,17.0069231 47.7227711,17.0069231 L44.790241,17.0069231 C43.6649398,17.0069231 42.7492771,16.0936776 42.7492771,14.9708545 L42.7492771,6.84461264 C42.7492771,6.60578231 42.5548996,6.41143213 42.3155422,6.41143213 L16.0006827,6.41143213 C15.7613253,6.41143213 15.5669478,6.60578231 15.5669478,6.84461264 L15.5669478,14.9708545 C15.5669478,16.0936776 14.6516867,17.0069231 13.5263855,17.0069231 L10.5934538,17.0069231 C10.3540964,17.0069231 10.1597189,17.2012733 10.1597189,17.4397029 L10.1597189,100.08862 C10.1597189,100.531418 9.80028112,100.890064 9.35650602,100.890064 L6.45771084,100.890064 C6.21875502,100.890064 6.0239759,101.084815 6.0239759,101.323244 L6.0239759,104.554266 C6.0239759,104.793096 6.21875502,104.987046 6.45771084,104.987046 L93.5271888,104.987046 C93.7665462,104.987046 93.9613253,104.793096 93.9613253,104.554266 L93.9613253,101.323244 C93.9613253,101.084815 93.7665462,100.890064 93.5271888,100.890064 L89.5131325,100.890064 C89.0693574,100.890064 88.7099197,100.531418 88.7099197,100.08862 C88.7099197,99.6462227 89.0693574,99.2871758 89.5131325,99.2871758 L93.5271888,99.2871758 C94.65249,99.2871758 95.567751,100.200822 95.567751,101.323244 L95.567751,104.554266 C95.567751,105.676688 94.65249,106.589934 93.5271888,106.589934" id="Fill-6" fill="#5E91F0"></path>
                <path d="M9.35650602,100.08878 L89.5131325,100.08878" id="Fill-8" fill="#FFFFFF"></path>
                <path d="M89.5130924,100.890224 L9.35646586,100.890224 C8.91309237,100.890224 8.55325301,100.531177 8.55325301,100.08878 C8.55325301,99.646383 8.91309237,99.2873361 9.35646586,99.2873361 L89.5130924,99.2873361 C89.9564659,99.2873361 90.3163052,99.646383 90.3163052,100.08878 C90.3163052,100.531177 89.9564659,100.890224 89.5130924,100.890224" id="Fill-10" fill="#5E91F0"></path>
                <path d="M25.4635341,99.3738119 L15.0097189,99.3738119 L15.0097189,96.1083282 C15.0097189,95.4262993 15.5639357,94.8737036 16.2470683,94.8737036 L24.2261847,94.8737036 C24.9093173,94.8737036 25.4635341,95.4262993 25.4635341,96.1083282 L25.4635341,99.3738119 Z" id="Fill-12" fill="#609127"></path>
                <path d="M43.3071486,99.3738119 L32.8533333,99.3738119 L32.8533333,96.1083282 C32.8533333,95.4262993 33.4071486,94.8737036 34.0906827,94.8737036 L42.0697992,94.8737036 C42.7529317,94.8737036 43.3071486,95.4262993 43.3071486,96.1083282 L43.3071486,99.3738119 Z" id="Fill-14" fill="#609127"></path>
                <path d="M21.8851406,87.0429942 C21.8851406,87.7246224 21.3313253,88.2776188 20.6477912,88.2776188 L18.124498,88.2776188 C17.4413655,88.2776188 16.8871486,87.7246224 16.8871486,87.0429942 L16.8871486,25.0516982 C16.8871486,24.37007 17.4413655,23.8174744 18.124498,23.8174744 L20.6477912,23.8174744 C21.3313253,23.8174744 21.8851406,24.37007 21.8851406,25.0516982 L21.8851406,87.0429942 Z" id="Fill-16" fill="#FFFFFF"></path>
                <path d="M18.1244177,24.6187982 C17.8850602,24.6187982 17.6902811,24.8131484 17.6902811,25.0519787 L17.6902811,87.042874 C17.6902811,87.2817043 17.8850602,87.4760545 18.1244177,87.4760545 L20.6477108,87.4760545 C20.8870683,87.4760545 21.0818474,87.2817043 21.0818474,87.042874 L21.0818474,25.0519787 C21.0818474,24.8131484 20.8870683,24.6187982 20.6477108,24.6187982 L18.1244177,24.6187982 Z M20.6477108,89.0789426 L18.1244177,89.0789426 C16.9991165,89.0789426 16.0838554,88.1656971 16.0838554,87.042874 L16.0838554,25.0519787 C16.0838554,23.9291556 16.9991165,23.0159101 18.1244177,23.0159101 L20.6477108,23.0159101 C21.773012,23.0159101 22.6882731,23.9291556 22.6882731,25.0519787 L22.6882731,87.042874 C22.6882731,88.1656971 21.773012,89.0789426 20.6477108,89.0789426 L20.6477108,89.0789426 Z" id="Fill-18" fill="#5E91F0"></path>
                <path d="M26.7938554,87.0429942 L26.7938554,25.0516982 C26.7938554,24.37007 27.3480723,23.8174744 28.0312048,23.8174744 L30.554498,23.8174744 C31.2380321,23.8174744 31.7918474,24.37007 31.7918474,25.0516982 L31.7918474,87.0429942 C31.7918474,87.7246224 31.2380321,88.2776188 30.554498,88.2776188 L28.0312048,88.2776188 C27.3480723,88.2776188 26.7938554,87.7246224 26.7938554,87.0429942" id="Fill-20" fill="#FFFFFF"></path>
                <path d="M28.0312048,24.6187982 C27.7918474,24.6187982 27.5970683,24.8131484 27.5970683,25.0519787 L27.5970683,87.042874 C27.5970683,87.2817043 27.7918474,87.4760545 28.0312048,87.4760545 L30.554498,87.4760545 C30.7938554,87.4760545 30.9886345,87.2817043 30.9886345,87.042874 L30.9886345,25.0519787 C30.9886345,24.8131484 30.7938554,24.6187982 30.554498,24.6187982 L28.0312048,24.6187982 Z M30.554498,89.0789426 L28.0312048,89.0789426 C26.9059036,89.0789426 25.9906426,88.1656971 25.9906426,87.042874 L25.9906426,25.0519787 C25.9906426,23.9291556 26.9059036,23.0159101 28.0312048,23.0159101 L30.554498,23.0159101 C31.6797992,23.0159101 32.5950602,23.9291556 32.5950602,25.0519787 L32.5950602,87.042874 C32.5950602,88.1656971 31.6797992,89.0789426 30.554498,89.0789426 L30.554498,89.0789426 Z" id="Fill-22" fill="#5E91F0"></path>
                <path d="M41.6987952,87.0429942 C41.6987952,87.7246224 41.1449799,88.2776188 40.4614458,88.2776188 L37.9381526,88.2776188 C37.2550201,88.2776188 36.7008032,87.7246224 36.7008032,87.0429942 L36.7008032,25.0516982 C36.7008032,24.37007 37.2550201,23.8174744 37.9381526,23.8174744 L40.4614458,23.8174744 C41.1449799,23.8174744 41.6987952,24.37007 41.6987952,25.0516982 L41.6987952,87.0429942 Z" id="Fill-24" fill="#FFFFFF"></path>
                <path d="M37.9380321,24.6187982 C37.6986747,24.6187982 37.5038956,24.8131484 37.5038956,25.0519787 L37.5038956,87.042874 C37.5038956,87.2817043 37.6986747,87.4760545 37.9380321,87.4760545 L40.4613253,87.4760545 C40.7006827,87.4760545 40.8954618,87.2817043 40.8954618,87.042874 L40.8954618,25.0519787 C40.8954618,24.8131484 40.7006827,24.6187982 40.4613253,24.6187982 L37.9380321,24.6187982 Z M40.4613253,89.0789426 L37.9380321,89.0789426 C36.8127309,89.0789426 35.8974699,88.1656971 35.8974699,87.042874 L35.8974699,25.0519787 C35.8974699,23.9291556 36.8127309,23.0159101 37.9380321,23.0159101 L40.4613253,23.0159101 C41.5866265,23.0159101 42.5018876,23.9291556 42.5018876,25.0519787 L42.5018876,87.042874 C42.5018876,88.1656971 41.5866265,89.0789426 40.4613253,89.0789426 L40.4613253,89.0789426 Z" id="Fill-26" fill="#5E91F0"></path>
                <mask id="mask-4" fill="white">
                    <use xlink:href="#path-3"></use>
                </mask>
                <g id="Clip-29"></g>
                <polygon id="Fill-28" fill="#FFFFFF" mask="url(#mask-4)" points="56.3220884 100.08874 89.5253012 100.08874 89.5253012 40.3166426 56.3220884 40.3166426"></polygon>
                <path d="M57.1253012,99.287296 L88.7216867,99.287296 L88.7216867,41.1180866 L57.1253012,41.1180866 L57.1253012,99.287296 Z M89.5248996,100.890184 L56.3220884,100.890184 C55.8787149,100.890184 55.5188755,100.531538 55.5188755,100.08874 L55.5188755,40.3166426 C55.5188755,39.8738448 55.8787149,39.5151986 56.3220884,39.5151986 L89.5248996,39.5151986 C89.9682731,39.5151986 90.3281124,39.8738448 90.3281124,40.3166426 L90.3281124,100.08874 C90.3281124,100.531538 89.9682731,100.890184 89.5248996,100.890184 L89.5248996,100.890184 Z" id="Fill-30" fill="#5E91F0" mask="url(#mask-4)"></path>
                <polygon id="Fill-31" fill="#FFFFFF" mask="url(#mask-4)" points="62.9971888 40.3166426 82.8502008 40.3166426 82.8502008 37.2972022 62.9971888 37.2972022"></polygon>
                <path d="M63.8004016,39.5151986 L82.046988,39.5151986 L82.046988,38.0986462 L63.8004016,38.0986462 L63.8004016,39.5151986 Z M82.8502008,41.1180866 L62.9971888,41.1180866 C62.5538153,41.1180866 62.1939759,40.7590397 62.1939759,40.3166426 L62.1939759,37.2972022 C62.1939759,36.8548051 62.5538153,36.4957581 62.9971888,36.4957581 L82.8502008,36.4957581 C83.2935743,36.4957581 83.6534137,36.8548051 83.6534137,37.2972022 L83.6534137,40.3166426 C83.6534137,40.7590397 83.2935743,41.1180866 82.8502008,41.1180866 L82.8502008,41.1180866 Z" id="Fill-32" fill="#5E91F0" mask="url(#mask-4)"></path>
                <path d="M61.445743,52.5484419 L64.5485542,52.5484419" id="Fill-33" fill="#FFFFFF" mask="url(#mask-4)"></path>
                <path d="M64.5483936,53.3498859 L61.4455823,53.3498859 C61.0022088,53.3498859 60.6423695,52.990839 60.6423695,52.5484419 C60.6423695,52.1060448 61.0022088,51.7469978 61.4455823,51.7469978 L64.5483936,51.7469978 C64.9917671,51.7469978 65.3516064,52.1060448 65.3516064,52.5484419 C65.3516064,52.990839 64.9917671,53.3498859 64.5483936,53.3498859" id="Fill-34" fill="#5E91F0" mask="url(#mask-4)"></path>
                <path d="M68.0636145,52.5484419 L71.1664257,52.5484419" id="Fill-35" fill="#FFFFFF" mask="url(#mask-4)"></path>
                <path d="M71.1662651,53.3498859 L68.0630522,53.3498859 C67.6196787,53.3498859 67.2598394,52.990839 67.2598394,52.5484419 C67.2598394,52.1060448 67.6196787,51.7469978 68.0630522,51.7469978 L71.1662651,51.7469978 C71.6096386,51.7469978 71.9694779,52.1060448 71.9694779,52.5484419 C71.9694779,52.990839 71.6096386,53.3498859 71.1662651,53.3498859" id="Fill-36" fill="#5E91F0" mask="url(#mask-4)"></path>
                <path d="M74.6810843,52.5484419 L77.7838956,52.5484419" id="Fill-37" fill="#FFFFFF" mask="url(#mask-4)"></path>
                <path d="M77.7837349,53.3498859 L74.6809237,53.3498859 C74.2375502,53.3498859 73.8777108,52.990839 73.8777108,52.5484419 C73.8777108,52.1060448 74.2375502,51.7469978 74.6809237,51.7469978 L77.7837349,51.7469978 C78.2271084,51.7469978 78.5869478,52.1060448 78.5869478,52.5484419 C78.5869478,52.990839 78.2271084,53.3498859 77.7837349,53.3498859" id="Fill-38" fill="#5E91F0" mask="url(#mask-4)"></path>
                <path d="M81.2985944,52.5484419 L84.4014056,52.5484419" id="Fill-39" fill="#FFFFFF" mask="url(#mask-4)"></path>
                <path d="M84.401245,53.3498859 L81.2984337,53.3498859 C80.8550602,53.3498859 80.4952209,52.990839 80.4952209,52.5484419 C80.4952209,52.1060448 80.8550602,51.7469978 81.2984337,51.7469978 L84.401245,51.7469978 C84.8446185,51.7469978 85.2044578,52.1060448 85.2044578,52.5484419 C85.2044578,52.990839 84.8446185,53.3498859 84.401245,53.3498859" id="Fill-40" fill="#5E91F0" mask="url(#mask-4)"></path>
                <path d="M61.445743,58.6643415 L64.5485542,58.6643415" id="Fill-41" fill="#FFFFFF" mask="url(#mask-4)"></path>
                <path d="M64.5483936,59.4657856 L61.4455823,59.4657856 C61.0022088,59.4657856 60.6423695,59.1067386 60.6423695,58.6643415 C60.6423695,58.2219444 61.0022088,57.8628975 61.4455823,57.8628975 L64.5483936,57.8628975 C64.9917671,57.8628975 65.3516064,58.2219444 65.3516064,58.6643415 C65.3516064,59.1067386 64.9917671,59.4657856 64.5483936,59.4657856" id="Fill-42" fill="#5E91F0" mask="url(#mask-4)"></path>
                <path d="M68.0636145,58.6643415 L71.1664257,58.6643415" id="Fill-43" fill="#FFFFFF" mask="url(#mask-4)"></path>
                <path d="M71.1662651,59.4657856 L68.0630522,59.4657856 C67.6196787,59.4657856 67.2598394,59.1067386 67.2598394,58.6643415 C67.2598394,58.2219444 67.6196787,57.8628975 68.0630522,57.8628975 L71.1662651,57.8628975 C71.6096386,57.8628975 71.9694779,58.2219444 71.9694779,58.6643415 C71.9694779,59.1067386 71.6096386,59.4657856 71.1662651,59.4657856" id="Fill-44" fill="#5E91F0" mask="url(#mask-4)"></path>
                <path d="M74.6810843,58.6643415 L77.7838956,58.6643415" id="Fill-45" fill="#FFFFFF" mask="url(#mask-4)"></path>
                <path d="M77.7837349,59.4657856 L74.6809237,59.4657856 C74.2375502,59.4657856 73.8777108,59.1067386 73.8777108,58.6643415 C73.8777108,58.2219444 74.2375502,57.8628975 74.6809237,57.8628975 L77.7837349,57.8628975 C78.2271084,57.8628975 78.5869478,58.2219444 78.5869478,58.6643415 C78.5869478,59.1067386 78.2271084,59.4657856 77.7837349,59.4657856" id="Fill-46" fill="#5E91F0" mask="url(#mask-4)"></path>
                <path d="M81.2985944,58.6643415 L84.4014056,58.6643415" id="Fill-47" fill="#FFFFFF" mask="url(#mask-4)"></path>
                <path d="M84.401245,59.4657856 L81.2984337,59.4657856 C80.8550602,59.4657856 80.4952209,59.1067386 80.4952209,58.6643415 C80.4952209,58.2219444 80.8550602,57.8628975 81.2984337,57.8628975 L84.401245,57.8628975 C84.8446185,57.8628975 85.2044578,58.2219444 85.2044578,58.6643415 C85.2044578,59.1067386 84.8446185,59.4657856 84.401245,59.4657856" id="Fill-48" fill="#5E91F0" mask="url(#mask-4)"></path>
                <path d="M61.445743,64.7802412 L64.5485542,64.7802412" id="Fill-49" fill="#FFFFFF" mask="url(#mask-4)"></path>
                <path d="M64.5483936,65.5816852 L61.4455823,65.5816852 C61.0022088,65.5816852 60.6423695,65.2226383 60.6423695,64.7802412 C60.6423695,64.337844 61.0022088,63.9787971 61.4455823,63.9787971 L64.5483936,63.9787971 C64.9917671,63.9787971 65.3516064,64.337844 65.3516064,64.7802412 C65.3516064,65.2226383 64.9917671,65.5816852 64.5483936,65.5816852" id="Fill-50" fill="#5E91F0" mask="url(#mask-4)"></path>
                <path d="M68.0636145,64.7802412 L71.1664257,64.7802412" id="Fill-51" fill="#FFFFFF" mask="url(#mask-4)"></path>
                <path d="M71.1662651,65.5816852 L68.0630522,65.5816852 C67.6196787,65.5816852 67.2598394,65.2226383 67.2598394,64.7802412 C67.2598394,64.337844 67.6196787,63.9787971 68.0630522,63.9787971 L71.1662651,63.9787971 C71.6096386,63.9787971 71.9694779,64.337844 71.9694779,64.7802412 C71.9694779,65.2226383 71.6096386,65.5816852 71.1662651,65.5816852" id="Fill-52" fill="#5E91F0" mask="url(#mask-4)"></path>
                <path d="M74.6810843,64.7802412 L77.7838956,64.7802412" id="Fill-53" fill="#FFFFFF" mask="url(#mask-4)"></path>
                <path d="M77.7837349,65.5816852 L74.6809237,65.5816852 C74.2375502,65.5816852 73.8777108,65.2226383 73.8777108,64.7802412 C73.8777108,64.337844 74.2375502,63.9787971 74.6809237,63.9787971 L77.7837349,63.9787971 C78.2271084,63.9787971 78.5869478,64.337844 78.5869478,64.7802412 C78.5869478,65.2226383 78.2271084,65.5816852 77.7837349,65.5816852" id="Fill-54" fill="#5E91F0" mask="url(#mask-4)"></path>
                <path d="M81.2985944,64.7802412 L84.4014056,64.7802412" id="Fill-55" fill="#FFFFFF" mask="url(#mask-4)"></path>
                <path d="M84.401245,65.5816852 L81.2984337,65.5816852 C80.8550602,65.5816852 80.4952209,65.2226383 80.4952209,64.7802412 C80.4952209,64.337844 80.8550602,63.9787971 81.2984337,63.9787971 L84.401245,63.9787971 C84.8446185,63.9787971 85.2044578,64.337844 85.2044578,64.7802412 C85.2044578,65.2226383 84.8446185,65.5816852 84.401245,65.5816852" id="Fill-56" fill="#5E91F0" mask="url(#mask-4)"></path>
                <path d="M61.445743,70.8959404 L64.5485542,70.8959404" id="Fill-57" fill="#FFFFFF" mask="url(#mask-4)"></path>
                <path d="M64.5483936,71.6973845 L61.4455823,71.6973845 C61.0022088,71.6973845 60.6423695,71.3383375 60.6423695,70.8959404 C60.6423695,70.4535433 61.0022088,70.0944964 61.4455823,70.0944964 L64.5483936,70.0944964 C64.9917671,70.0944964 65.3516064,70.4535433 65.3516064,70.8959404 C65.3516064,71.3383375 64.9917671,71.6973845 64.5483936,71.6973845" id="Fill-58" fill="#5E91F0" mask="url(#mask-4)"></path>
                <path d="M68.0636145,70.8959404 L71.1664257,70.8959404" id="Fill-59" fill="#FFFFFF" mask="url(#mask-4)"></path>
                <path d="M71.1662651,71.6973845 L68.0630522,71.6973845 C67.6196787,71.6973845 67.2598394,71.3383375 67.2598394,70.8959404 C67.2598394,70.4535433 67.6196787,70.0944964 68.0630522,70.0944964 L71.1662651,70.0944964 C71.6096386,70.0944964 71.9694779,70.4535433 71.9694779,70.8959404 C71.9694779,71.3383375 71.6096386,71.6973845 71.1662651,71.6973845" id="Fill-60" fill="#5E91F0" mask="url(#mask-4)"></path>
                <path d="M74.6810843,70.8959404 L77.7838956,70.8959404" id="Fill-61" fill="#FFFFFF" mask="url(#mask-4)"></path>
                <path d="M77.7837349,71.6973845 L74.6809237,71.6973845 C74.2375502,71.6973845 73.8777108,71.3383375 73.8777108,70.8959404 C73.8777108,70.4535433 74.2375502,70.0944964 74.6809237,70.0944964 L77.7837349,70.0944964 C78.2271084,70.0944964 78.5869478,70.4535433 78.5869478,70.8959404 C78.5869478,71.3383375 78.2271084,71.6973845 77.7837349,71.6973845" id="Fill-62" fill="#5E91F0" mask="url(#mask-4)"></path>
                <path d="M81.2985944,70.8959404 L84.4014056,70.8959404" id="Fill-63" fill="#FFFFFF" mask="url(#mask-4)"></path>
                <path d="M84.401245,71.6973845 L81.2984337,71.6973845 C80.8550602,71.6973845 80.4952209,71.3383375 80.4952209,70.8959404 C80.4952209,70.4535433 80.8550602,70.0944964 81.2984337,70.0944964 L84.401245,70.0944964 C84.8446185,70.0944964 85.2044578,70.4535433 85.2044578,70.8959404 C85.2044578,71.3383375 84.8446185,71.6973845 84.401245,71.6973845" id="Fill-64" fill="#5E91F0" mask="url(#mask-4)"></path>
                <path d="M61.445743,77.0120404 L64.5485542,77.0120404" id="Fill-65" fill="#FFFFFF" mask="url(#mask-4)"></path>
                <path d="M64.5483936,77.8134845 L61.4455823,77.8134845 C61.0022088,77.8134845 60.6423695,77.4544375 60.6423695,77.0120404 C60.6423695,76.5696433 61.0022088,76.2105964 61.4455823,76.2105964 L64.5483936,76.2105964 C64.9917671,76.2105964 65.3516064,76.5696433 65.3516064,77.0120404 C65.3516064,77.4544375 64.9917671,77.8134845 64.5483936,77.8134845" id="Fill-66" fill="#5E91F0" mask="url(#mask-4)"></path>
                <path d="M68.0636145,77.0120404 L71.1664257,77.0120404" id="Fill-67" fill="#FFFFFF" mask="url(#mask-4)"></path>
                <path d="M71.1662651,77.8134845 L68.0630522,77.8134845 C67.6196787,77.8134845 67.2598394,77.4544375 67.2598394,77.0120404 C67.2598394,76.5696433 67.6196787,76.2105964 68.0630522,76.2105964 L71.1662651,76.2105964 C71.6096386,76.2105964 71.9694779,76.5696433 71.9694779,77.0120404 C71.9694779,77.4544375 71.6096386,77.8134845 71.1662651,77.8134845" id="Fill-68" fill="#5E91F0" mask="url(#mask-4)"></path>
                <path d="M74.6810843,77.0120404 L77.7838956,77.0120404" id="Fill-69" fill="#FFFFFF" mask="url(#mask-4)"></path>
                <path d="M77.7837349,77.8134845 L74.6809237,77.8134845 C74.2375502,77.8134845 73.8777108,77.4544375 73.8777108,77.0120404 C73.8777108,76.5696433 74.2375502,76.2105964 74.6809237,76.2105964 L77.7837349,76.2105964 C78.2271084,76.2105964 78.5869478,76.5696433 78.5869478,77.0120404 C78.5869478,77.4544375 78.2271084,77.8134845 77.7837349,77.8134845" id="Fill-70" fill="#5E91F0" mask="url(#mask-4)"></path>
                <path d="M81.2985944,77.0120404 L84.4014056,77.0120404" id="Fill-71" fill="#FFFFFF" mask="url(#mask-4)"></path>
                <path d="M84.401245,77.8134845 L81.2984337,77.8134845 C80.8550602,77.8134845 80.4952209,77.4544375 80.4952209,77.0120404 C80.4952209,76.5696433 80.8550602,76.2105964 81.2984337,76.2105964 L84.401245,76.2105964 C84.8446185,76.2105964 85.2044578,76.5696433 85.2044578,77.0120404 C85.2044578,77.4544375 84.8446185,77.8134845 84.401245,77.8134845" id="Fill-72" fill="#5E91F0" mask="url(#mask-4)"></path>
                <path d="M61.445743,83.1277397 L64.5485542,83.1277397" id="Fill-73" fill="#FFFFFF" mask="url(#mask-4)"></path>
                <path d="M64.5483936,83.9291838 L61.4455823,83.9291838 C61.0022088,83.9291838 60.6423695,83.5701368 60.6423695,83.1277397 C60.6423695,82.6853426 61.0022088,82.3262957 61.4455823,82.3262957 L64.5483936,82.3262957 C64.9917671,82.3262957 65.3516064,82.6853426 65.3516064,83.1277397 C65.3516064,83.5701368 64.9917671,83.9291838 64.5483936,83.9291838" id="Fill-74" fill="#5E91F0" mask="url(#mask-4)"></path>
                <path d="M68.0636145,83.1277397 L71.1664257,83.1277397" id="Fill-75" fill="#FFFFFF" mask="url(#mask-4)"></path>
                <path d="M71.1662651,83.9291838 L68.0630522,83.9291838 C67.6196787,83.9291838 67.2598394,83.5701368 67.2598394,83.1277397 C67.2598394,82.6853426 67.6196787,82.3262957 68.0630522,82.3262957 L71.1662651,82.3262957 C71.6096386,82.3262957 71.9694779,82.6853426 71.9694779,83.1277397 C71.9694779,83.5701368 71.6096386,83.9291838 71.1662651,83.9291838" id="Fill-76" fill="#5E91F0" mask="url(#mask-4)"></path>
                <path d="M74.6810843,83.1277397 L77.7838956,83.1277397" id="Fill-77" fill="#FFFFFF" mask="url(#mask-4)"></path>
                <path d="M77.7837349,83.9291838 L74.6809237,83.9291838 C74.2375502,83.9291838 73.8777108,83.5701368 73.8777108,83.1277397 C73.8777108,82.6853426 74.2375502,82.3262957 74.6809237,82.3262957 L77.7837349,82.3262957 C78.2271084,82.3262957 78.5869478,82.6853426 78.5869478,83.1277397 C78.5869478,83.5701368 78.2271084,83.9291838 77.7837349,83.9291838" id="Fill-78" fill="#5E91F0" mask="url(#mask-4)"></path>
                <path d="M81.2985944,83.1277397 L84.4014056,83.1277397" id="Fill-79" fill="#FFFFFF" mask="url(#mask-4)"></path>
                <path d="M84.401245,83.9291838 L81.2984337,83.9291838 C80.8550602,83.9291838 80.4952209,83.5701368 80.4952209,83.1277397 C80.4952209,82.6853426 80.8550602,82.3262957 81.2984337,82.3262957 L84.401245,82.3262957 C84.8446185,82.3262957 85.2044578,82.6853426 85.2044578,83.1277397 C85.2044578,83.5701368 84.8446185,83.9291838 84.401245,83.9291838" id="Fill-80" fill="#5E91F0" mask="url(#mask-4)"></path>
                <path d="M61.445743,89.2438397 L64.5485542,89.2438397" id="Fill-81" fill="#FFFFFF" mask="url(#mask-4)"></path>
                <path d="M64.5483936,90.0452838 L61.4455823,90.0452838 C61.0022088,90.0452838 60.6423695,89.6862368 60.6423695,89.2438397 C60.6423695,88.8014426 61.0022088,88.4423957 61.4455823,88.4423957 L64.5483936,88.4423957 C64.9917671,88.4423957 65.3516064,88.8014426 65.3516064,89.2438397 C65.3516064,89.6862368 64.9917671,90.0452838 64.5483936,90.0452838" id="Fill-82" fill="#5E91F0" mask="url(#mask-4)"></path>
                <path d="M68.0636145,89.2438397 L71.1664257,89.2438397" id="Fill-83" fill="#FFFFFF" mask="url(#mask-4)"></path>
                <path d="M71.1662651,90.0452838 L68.0630522,90.0452838 C67.6196787,90.0452838 67.2598394,89.6862368 67.2598394,89.2438397 C67.2598394,88.8014426 67.6196787,88.4423957 68.0630522,88.4423957 L71.1662651,88.4423957 C71.6096386,88.4423957 71.9694779,88.8014426 71.9694779,89.2438397 C71.9694779,89.6862368 71.6096386,90.0452838 71.1662651,90.0452838" id="Fill-84" fill="#5E91F0" mask="url(#mask-4)"></path>
                <path d="M74.6810843,89.2438397 L77.7838956,89.2438397" id="Fill-85" fill="#FFFFFF" mask="url(#mask-4)"></path>
                <path d="M77.7837349,90.0452838 L74.6809237,90.0452838 C74.2375502,90.0452838 73.8777108,89.6862368 73.8777108,89.2438397 C73.8777108,88.8014426 74.2375502,88.4423957 74.6809237,88.4423957 L77.7837349,88.4423957 C78.2271084,88.4423957 78.5869478,88.8014426 78.5869478,89.2438397 C78.5869478,89.6862368 78.2271084,90.0452838 77.7837349,90.0452838" id="Fill-86" fill="#5E91F0" mask="url(#mask-4)"></path>
                <path d="M81.2985944,89.2438397 L84.4014056,89.2438397" id="Fill-87" fill="#FFFFFF" mask="url(#mask-4)"></path>
                <path d="M84.401245,90.0452838 L81.2984337,90.0452838 C80.8550602,90.0452838 80.4952209,89.6862368 80.4952209,89.2438397 C80.4952209,88.8014426 80.8550602,88.4423957 81.2984337,88.4423957 L84.401245,88.4423957 C84.8446185,88.4423957 85.2044578,88.8014426 85.2044578,89.2438397 C85.2044578,89.6862368 84.8446185,90.0452838 84.401245,90.0452838" id="Fill-88" fill="#5E91F0" mask="url(#mask-4)"></path>
                <path d="M53.7085542,40.3166025 L92.1386747,40.3166025" id="Fill-89" fill="#FFFFFF" mask="url(#mask-4)"></path>
                <path d="M92.1388353,41.1180466 L53.7087149,41.1180466 C53.2649398,41.1180466 52.905502,40.7589996 52.905502,40.3166025 C52.905502,39.8742054 53.2649398,39.5151585 53.7087149,39.5151585 L92.1388353,39.5151585 C92.5822088,39.5151585 92.9420482,39.8742054 92.9420482,40.3166025 C92.9420482,40.7589996 92.5822088,41.1180466 92.1388353,41.1180466" id="Fill-90" fill="#5E91F0" mask="url(#mask-4)"></path>
                <path d="M53.7085542,44.1346419 L92.1386747,44.1346419" id="Fill-91" fill="#FFFFFF" mask="url(#mask-4)"></path>
                <path d="M92.1388353,44.9360859 L53.7087149,44.9360859 C53.2649398,44.9360859 52.905502,44.577039 52.905502,44.1346419 C52.905502,43.6922448 53.2649398,43.3331978 53.7087149,43.3331978 L92.1388353,43.3331978 C92.5822088,43.3331978 92.9420482,43.6922448 92.9420482,44.1346419 C92.9420482,44.577039 92.5822088,44.9360859 92.1388353,44.9360859" id="Fill-92" fill="#5E91F0" mask="url(#mask-4)"></path>
                <path d="M10.593494,16.2053989 L46.0091566,16.1969838" id="Fill-93" fill="#FFFFFF" mask="url(#mask-4)"></path>
                <path d="M10.593494,17.006843 C10.1501205,17.006843 9.79028112,16.6481968 9.79028112,16.2053989 C9.79028112,15.7630018 10.1497189,15.4039549 10.593494,15.4039549 L46.0091566,15.3955397 C46.4525301,15.3955397 46.8123695,15.7545866 46.8123695,16.1969838 C46.8123695,16.6393809 46.4529317,16.9984278 46.0091566,16.9984278 L10.593494,17.006843 Z" id="Fill-94" fill="#5E91F0" mask="url(#mask-4)"></path>
                <path d="M78.1504418,99.3738119 L67.6966265,99.3738119 L67.6966265,96.1083282 C67.6966265,95.4262993 68.2508434,94.8737036 68.9339759,94.8737036 L76.9130924,94.8737036 C77.5966265,94.8737036 78.1504418,95.4262993 78.1504418,96.1083282 L78.1504418,99.3738119 Z" id="Fill-95" fill="#609127" mask="url(#mask-4)"></path>
            </g>
        </g>
    </g>
</svg>