<?xml version="1.0" encoding="UTF-8"?>
<svg width="102px" height="100px" viewBox="0 0 102 100" version="1.1" xmlns="http://www.w3.org/2000/svg" xmlns:xlink="http://www.w3.org/1999/xlink">
    <!-- Generator: Sketch 55.2 (78181) - https://sketchapp.com -->
    <title>Group 52</title>
    <desc>Created with Sketch.</desc>
    <defs>
        <polygon id="path-1" points="3.9688716e-05 -2.84217094e-14 101.799572 -2.84217094e-14 101.799572 99.9094466 3.9688716e-05 99.9094466"></polygon>
    </defs>
    <g id="New-Design" stroke="none" stroke-width="1" fill="none" fill-rule="evenodd">
        <g id="Solutions" transform="translate(-1046.000000, -2818.000000)">
            <g id="Group-52" transform="translate(1046.000000, 2818.000000)">
                <mask id="mask-2" fill="white">
                    <use xlink:href="#path-1"></use>
                </mask>
                <g id="Clip-2"></g>
                <path d="M9.52529183,11.0114625 L92.2742802,11.0114625 L92.2742802,9.48577075 L9.52529183,9.48577075 L9.52529183,11.0114625 Z M96.6400389,19.7071146 L5.15953307,19.7071146 C2.74844358,19.7071146 0.793774319,17.7608696 0.793774319,15.3592885 L0.793774319,5.13794466 C0.793774319,2.73675889 2.74844358,0.790118577 5.15953307,0.790118577 L96.6400389,0.790118577 C99.0511284,0.790118577 101.005798,2.73675889 101.005798,5.13794466 L101.005798,15.3592885 C101.005798,17.7608696 99.0511284,19.7071146 96.6400389,19.7071146 L96.6400389,19.7071146 Z" id="Fill-1" fill="#C2E5FF" mask="url(#mask-2)"></path>
                <path d="M96.6400786,20.4979842 L5.15957276,20.4979842 C2.3146856,20.4979842 3.9688716e-05,18.1928458 3.9688716e-05,15.3596443 L3.9688716e-05,5.1383004 C3.9688716e-05,2.30470356 2.3146856,-3.95256917e-05 5.15957276,-3.95256917e-05 L96.6400786,-3.95256917e-05 C99.4849658,-3.95256917e-05 101.799612,2.30470356 101.799612,5.1383004 L101.799612,15.3596443 C101.799612,18.1928458 99.4849658,20.4979842 96.6400786,20.4979842" id="Fill-3" fill="#C2E5FF" mask="url(#mask-2)"></path>
                <path d="M12.3062802,77.4086957 L89.4936887,77.4086957 L89.4936887,19.7071146 L12.3062802,19.7071146 L12.3062802,77.4086957 Z M93.8594475,86.1043478 L7.9405214,86.1043478 C5.52943191,86.1043478 3.57476265,84.1577075 3.57476265,81.7565217 L3.57476265,15.3592885 C3.57476265,12.9581028 5.52943191,11.0114625 7.9405214,11.0114625 L93.8594475,11.0114625 C96.270537,11.0114625 98.2252062,12.9581028 98.2252062,15.3592885 L98.2252062,81.7565217 C98.2252062,84.1577075 96.270537,86.1043478 93.8594475,86.1043478 L93.8594475,86.1043478 Z" id="Fill-4" fill="#C2E5FF" mask="url(#mask-2)"></path>
                <path d="M13.1000545,76.6185771 L88.6999144,76.6185771 L88.6999144,20.4980237 L13.1000545,20.4980237 L13.1000545,76.6185771 Z M93.8594475,86.8952569 L7.9405214,86.8952569 C5.09563424,86.8952569 2.78098833,84.5901186 2.78098833,81.756917 L2.78098833,15.3596838 C2.78098833,12.526087 5.09563424,10.2213439 7.9405214,10.2213439 L93.8594475,10.2213439 C96.7043346,10.2213439 99.0189805,12.526087 99.0189805,15.3596838 L99.0189805,81.756917 C99.0189805,84.5901186 96.7043346,86.8952569 93.8594475,86.8952569 L93.8594475,86.8952569 Z" id="Fill-5" fill="#C2E5FF" mask="url(#mask-2)"></path>
                <path d="M96.6400786,86.1044269 L5.15957276,86.1044269 C2.74848327,86.1044269 0.793814008,84.1577866 0.793814008,81.7566008 C0.793814008,79.355415 2.74848327,77.4087747 5.15957276,77.4087747 L96.6400786,77.4087747 C99.0511681,77.4087747 101.005837,79.355415 101.005837,81.7566008 C101.005837,84.1577866 99.0511681,86.1044269 96.6400786,86.1044269" id="Fill-6" fill="#C2E5FF" mask="url(#mask-2)"></path>
                <path d="M96.6400786,86.895336 L5.15957276,86.895336 C2.3146856,86.895336 3.9688716e-05,84.5901976 3.9688716e-05,81.756996 C3.9688716e-05,78.9237945 2.3146856,76.6186561 5.15957276,76.6186561 L96.6400786,76.6186561 C99.4849658,76.6186561 101.799612,78.9237945 101.799612,81.756996 C101.799612,84.5901976 99.4849658,86.895336 96.6400786,86.895336 L96.6400786,86.895336 Z" id="Fill-7" fill="#C2E5FF" mask="url(#mask-2)"></path>
                <path d="M50.8999844,89.7022925 C48.4888949,89.7022925 46.5342257,87.7556522 46.5342257,85.3544664 L46.5342257,81.7564427 C46.5342257,79.3552569 48.4888949,77.4086166 50.8999844,77.4086166 C53.3110739,77.4086166 55.2657432,79.3552569 55.2657432,81.7564427 L55.2657432,85.3544664 C55.2657432,87.7556522 53.3110739,89.7022925 50.8999844,89.7022925" id="Fill-8" fill="#C2E5FF" mask="url(#mask-2)"></path>
                <path d="M47.8191082,83.5557312 C48.4406335,84.6071146 49.588828,85.3142292 50.9001432,85.3142292 C52.2110615,85.3142292 53.359256,84.6071146 53.9807813,83.5557312 C53.359256,82.5047431 52.2110615,81.7976285 50.9001432,81.7976285 C49.588828,81.7976285 48.4406335,82.5047431 47.8191082,83.5557312 M50.9001432,90.4932806 C48.055256,90.4932806 45.7406101,88.1881423 45.7406101,85.3549407 L45.7406101,81.756917 C45.7406101,78.9237154 48.055256,76.6185771 50.9001432,76.6185771 C53.7450304,76.6185771 56.0596763,78.9237154 56.0596763,81.756917 L56.0596763,85.3549407 C56.0596763,88.1881423 53.7450304,90.4932806 50.9001432,90.4932806" id="Fill-9" fill="#C2E5FF" mask="url(#mask-2)"></path>
                <path d="M50.8577556,90.4653755 C50.860137,90.4910672 50.8748218,90.506087 50.9014132,90.5072727 C50.9256233,90.506087 50.9407051,90.4906719 50.9422926,90.4637945 C50.9407051,90.4400791 50.9256233,90.424664 50.898635,90.4234783 C50.8748218,90.424664 50.860137,90.4396838 50.8577556,90.4653755 M50.8998257,99.1191304 C46.1086039,99.1191304 42.2107751,95.236917 42.2107751,90.4653755 C42.2107751,85.693834 46.1086039,81.8116206 50.8998257,81.8116206 C55.6914444,81.8116206 59.5892732,85.693834 59.5892732,90.4653755 C59.5892732,95.236917 55.6914444,99.1191304 50.8998257,99.1191304" id="Fill-10" fill="#C2E5FF" mask="url(#mask-2)"></path>
                <path d="M50.8999844,89.7169565 C50.4927782,89.7169565 50.1482802,90.0596443 50.1482802,90.4655731 C50.1482802,90.8711067 50.4927782,91.2137945 50.8999844,91.2137945 C51.3071907,91.2137945 51.6516887,90.8711067 51.6516887,90.4655731 C51.6516887,90.0596443 51.3071907,89.7169565 50.8999844,89.7169565 M50.8999844,99.9094466 C45.6709961,99.9094466 41.4167626,95.6726877 41.4167626,90.4655731 C41.4167626,85.2580632 45.6709961,81.0213043 50.8999844,81.0213043 C56.1289728,81.0213043 60.3832062,85.2580632 60.3832062,90.4655731 C60.3832062,95.6726877 56.1289728,99.9094466 50.8999844,99.9094466" id="Fill-11" fill="#C2E5FF" mask="url(#mask-2)"></path>
                <path d="M51.4592778,76.2650988 L45.8901572,76.2650988 C43.04527,76.2650988 40.7306241,73.9599605 40.7306241,71.1267589 L40.7306241,58.9856522 C40.7306241,56.1524506 43.04527,53.8473123 45.8901572,53.8473123 L51.4592778,53.8473123 C54.304165,53.8473123 56.6188109,56.1524506 56.6188109,58.9856522 L56.6188109,71.1267589 C56.6188109,73.9599605 54.304165,76.2650988 51.4592778,76.2650988" id="Fill-12" fill="#C2E5FF" mask="url(#mask-2)"></path>
                <path d="M61.7318288,76.2650988 L56.1623113,76.2650988 C53.3174241,76.2650988 51.0027782,73.9599605 51.0027782,71.1267589 L51.0027782,53.8749802 C51.0027782,51.0417787 53.3174241,48.7366403 56.1623113,48.7366403 L61.7318288,48.7366403 C64.576716,48.7366403 66.8913619,51.0417787 66.8913619,53.8749802 L66.8913619,71.1267589 C66.8913619,73.9599605 64.576716,76.2650988 61.7318288,76.2650988" id="Fill-13" fill="#C2E5FF" mask="url(#mask-2)"></path>
                <path d="M72.0040226,76.2650988 L66.4349019,76.2650988 C63.5900148,76.2650988 61.2753689,73.9599605 61.2753689,71.1267589 L61.2753689,48.3196443 C61.2753689,45.4860474 63.5900148,43.1813043 66.4349019,43.1813043 L72.0040226,43.1813043 C74.8489097,43.1813043 77.1635556,45.4860474 77.1635556,48.3196443 L77.1635556,71.1267589 C77.1635556,73.9599605 74.8489097,76.2650988 72.0040226,76.2650988" id="Fill-14" fill="#C2E5FF" mask="url(#mask-2)"></path>
                <path d="M82.2765735,76.2650988 L76.7074529,76.2650988 C73.8625658,76.2650988 71.5479198,73.9599605 71.5479198,71.1267589 L71.5479198,41.431502 C71.5479198,38.5983004 73.8625658,36.2931621 76.7074529,36.2931621 L82.2765735,36.2931621 C85.1214607,36.2931621 87.4361066,38.5983004 87.4361066,41.431502 L87.4361066,71.1267589 C87.4361066,73.9599605 85.1214607,76.2650988 82.2765735,76.2650988" id="Fill-15" fill="#C2E5FF" mask="url(#mask-2)"></path>
                <path d="M82.4874,38.2090514 C79.6425128,38.2090514 77.3278669,35.903913 77.3278669,33.0707115 L77.3278669,25.5157708 C77.3278669,22.6821739 79.6425128,20.3774308 82.4874,20.3774308 C85.3322872,20.3774308 87.6469331,22.6821739 87.6469331,25.5157708 L87.6469331,33.0707115 C87.6469331,35.903913 85.3322872,38.2090514 82.4874,38.2090514" id="Fill-16" fill="#C2E5FF" mask="url(#mask-2)"></path>
                <path d="M42.7087891,58.9783794 C41.3304,58.9783794 40.0353572,58.4435968 39.0606023,57.4732411 C37.0487813,55.4700791 37.0487813,52.21 39.0606023,50.2068379 L56.6315907,32.7080237 C57.6063455,31.7372727 58.9017852,31.2028854 60.2797774,31.2028854 C61.6581665,31.2028854 62.9536062,31.7372727 63.9283611,32.7080237 L65.9485167,34.7198814 L71.4021432,29.2886561 C70.3817463,28.3491304 69.7415673,27.0052569 69.7415673,25.5155336 C69.7415673,22.682332 72.0562132,20.3771937 74.9011004,20.3771937 L82.4875984,20.3771937 C84.581972,20.3771937 86.4528981,21.6226482 87.2542132,23.5499209 C88.0563222,25.4767984 87.6165712,27.6752174 86.1341977,29.1503162 L69.5967035,45.6202767 C68.6421899,46.5704743 67.312221,47.1159289 65.9485167,47.1159289 C64.5844156,47.1159289 63.2548436,46.5704743 62.2999331,45.6202767 L60.2797774,43.6080237 L46.3569759,57.4732411 C45.382221,58.4435968 44.0871782,58.9783794 42.7087891,58.9783794" id="Fill-17" fill="#C2E5FF" mask="url(#mask-2)"></path>
                <path d="M25.0732669,27.6886561 C22.3657027,27.6886561 20.1625821,29.8827273 20.1625821,32.5795652 C20.1625821,35.2760079 22.3657027,37.4700791 25.0732669,37.4700791 C27.781228,37.4700791 29.9843486,35.2760079 29.9843486,32.5795652 C29.9843486,29.8827273 27.781228,27.6886561 25.0732669,27.6886561 M25.0732669,46.9562451 C17.1129012,46.9562451 10.6372903,40.5068379 10.6372903,32.5795652 C10.6372903,24.6518972 17.1129012,18.2024901 25.0732669,18.2024901 C33.0336327,18.2024901 39.5096405,24.6518972 39.5096405,32.5795652 C39.5096405,40.5068379 33.0336327,46.9562451 25.0732669,46.9562451" id="Fill-18" fill="#C2E5FF" mask="url(#mask-2)"></path>
                <path d="M24.9283237,29.2933992 C25.0192109,29.6447826 25.1569307,29.9771937 25.3351331,30.283913 C25.3017946,29.91 25.1545494,29.5681028 24.9283237,29.2933992 L24.9283237,29.2933992 Z M26.6301759,37.322253 L23.5165961,37.322253 C19.7088607,37.322253 16.6107595,34.2372727 16.6107595,30.4451779 C16.6107595,26.6526877 19.7088607,23.5677075 23.5165961,23.5677075 L28.7733665,23.5677075 C31.3995689,23.5677075 33.5356156,25.6953755 33.5356156,28.3107905 C33.5356156,29.9673123 32.6787362,31.4277866 31.3832965,32.2764032 C31.3896467,32.3767984 31.3928218,32.4775889 31.3928218,32.57917 C31.3928218,35.194585 29.2563782,37.322253 26.6301759,37.322253 L26.6301759,37.322253 Z" id="Fill-19" fill="#C2E5FF" mask="url(#mask-2)"></path>
                <path d="M24.811242,34.8744664 C24.8445805,35.2483794 24.9918257,35.5902767 25.2180514,35.8649802 C25.1275611,35.5139921 24.9894444,35.1811858 24.811242,34.8744664 M26.6301759,41.5906719 L21.3734054,41.5906719 C18.7472031,41.5906719 16.6107595,39.463004 16.6107595,36.8475889 C16.6107595,35.1910672 17.4680358,33.7301976 18.7638724,32.881581 C18.7571253,32.7819763 18.7539502,32.6807905 18.7539502,32.5792095 C18.7539502,29.9641897 20.8903938,27.8361265 23.5165961,27.8361265 L26.6301759,27.8361265 C30.4379113,27.8361265 33.5356156,30.921502 33.5356156,34.7135968 C33.5356156,38.5056917 30.4379113,41.5906719 26.6301759,41.5906719" id="Fill-20" fill="#C2E5FF" mask="url(#mask-2)"></path>
                <path d="M26.0305984,43.3746245 C23.4043961,43.3746245 21.2679525,41.2469565 21.2679525,38.6315415 L21.2679525,26.8457708 C21.2679525,24.2303557 23.4043961,22.1026877 26.0305984,22.1026877 C28.6568008,22.1026877 30.7932444,24.2303557 30.7932444,26.8457708 L30.7932444,38.6315415 C30.7932444,41.2469565 28.6568008,43.3746245 26.0305984,43.3746245" id="Fill-21" fill="#C2E5FF" mask="url(#mask-2)"></path>
                <path d="M23.9585696,43.3746245 C21.3323673,43.3746245 19.1959237,41.2469565 19.1959237,38.6315415 L19.1959237,26.8457708 C19.1959237,24.2303557 21.3323673,22.1026877 23.9585696,22.1026877 C26.584772,22.1026877 28.7212156,24.2303557 28.7212156,26.8457708 L28.7212156,38.6315415 C28.7212156,41.2469565 26.584772,43.3746245 23.9585696,43.3746245" id="Fill-22" fill="#C2E5FF" mask="url(#mask-2)"></path>
                <path d="M34.7469946,67.2436759 L16.5390023,67.2436759 C13.9128,67.2436759 11.7763564,65.1160079 11.7763564,62.5005929 C11.7763564,59.8851779 13.9128,57.7575099 16.5390023,57.7575099 L34.7469946,57.7575099 C37.3731969,57.7575099 39.5096405,59.8851779 39.5096405,62.5005929 C39.5096405,65.1160079 37.3731969,67.2436759 34.7469946,67.2436759 L34.7469946,67.2436759 Z" id="Fill-23" fill="#C2E5FF" mask="url(#mask-2)"></path>
                <path d="M27.3046062,63.967747 L16.539042,63.967747 C13.6941549,63.967747 11.3795089,61.6626087 11.3795089,58.8294071 C11.3795089,55.9962055 13.6941549,53.6910672 16.539042,53.6910672 L27.3046062,53.6910672 C30.1494934,53.6910672 32.4641393,55.9962055 32.4641393,58.8294071 C32.4641393,61.6626087 30.1494934,63.967747 27.3046062,63.967747 L27.3046062,63.967747 Z" id="Fill-24" fill="#C2E5FF" mask="url(#mask-2)"></path>
                <path d="M34.7469946,74.5864032 L16.5390023,74.5864032 C13.9128,74.5864032 11.7763564,72.4587352 11.7763564,69.8433202 C11.7763564,67.2279051 13.9128,65.1002372 16.5390023,65.1002372 L34.7469946,65.1002372 C37.3731969,65.1002372 39.5096405,67.2279051 39.5096405,69.8433202 C39.5096405,72.4587352 37.3731969,74.5864032 34.7469946,74.5864032 L34.7469946,74.5864032 Z" id="Fill-25" fill="#C2E5FF" mask="url(#mask-2)"></path>
                <path d="M34.7469946,70.9152174 L16.5390023,70.9152174 C13.9128,70.9152174 11.7763564,68.7875494 11.7763564,66.1721344 C11.7763564,63.5567194 13.9128,61.4290514 16.5390023,61.4290514 L34.7469946,61.4290514 C37.3731969,61.4290514 39.5096405,63.5567194 39.5096405,66.1721344 C39.5096405,68.7875494 37.3731969,70.9152174 34.7469946,70.9152174 L34.7469946,70.9152174 Z" id="Fill-26" fill="#C2E5FF" mask="url(#mask-2)"></path>
                <polygon id="Fill-27" fill="#FFFFFF" mask="url(#mask-2)" points="5.15953307 15.3592885 96.6400389 15.3592885 96.6400389 5.13794466 5.15953307 5.13794466"></polygon>
                <path d="M5.95330739,14.56917 L95.8462646,14.56917 L95.8462646,5.92885375 L5.95330739,5.92885375 L5.95330739,14.56917 Z M96.6400389,16.1501976 L5.15953307,16.1501976 C4.72136965,16.1501976 4.36575875,15.7960474 4.36575875,15.3596838 L4.36575875,5.13833992 C4.36575875,4.70158103 4.72136965,4.34782609 5.15953307,4.34782609 L96.6400389,4.34782609 C97.0785992,4.34782609 97.4338132,4.70158103 97.4338132,5.13833992 L97.4338132,15.3596838 C97.4338132,15.7960474 97.0785992,16.1501976 96.6400389,16.1501976 L96.6400389,16.1501976 Z" id="Fill-28" fill="#5E91F0" mask="url(#mask-2)"></path>
                <polygon id="Fill-29" fill="#FFFFFF" mask="url(#mask-2)" points="7.9405214 81.7565217 93.8594475 81.7565217 93.8594475 15.3592885 7.9405214 15.3592885"></polygon>
                <path d="M8.73429572,80.9664032 L93.0656732,80.9664032 L93.0656732,16.1501976 L8.73429572,16.1501976 L8.73429572,80.9664032 Z M93.8594475,82.5474308 L7.9405214,82.5474308 C7.50196109,82.5474308 7.14674708,82.1936759 7.14674708,81.756917 L7.14674708,15.3596838 C7.14674708,14.9229249 7.50196109,14.56917 7.9405214,14.56917 L93.8594475,14.56917 C94.2980078,14.56917 94.6532218,14.9229249 94.6532218,15.3596838 L94.6532218,81.756917 C94.6532218,82.1936759 94.2980078,82.5474308 93.8594475,82.5474308 L93.8594475,82.5474308 Z" id="Fill-30" fill="#5E91F0" mask="url(#mask-2)"></path>
                <path d="M5.15953307,81.7566008 L96.6400389,81.7566008" id="Fill-31" fill="#FFFFFF" mask="url(#mask-2)"></path>
                <path d="M96.6400786,82.5475099 L5.15957276,82.5475099 C4.72101245,82.5475099 4.36579844,82.1933597 4.36579844,81.756996 C4.36579844,81.3206324 4.72101245,80.9664822 5.15957276,80.9664822 L96.6400786,80.9664822 C97.078242,80.9664822 97.4338529,81.3206324 97.4338529,81.756996 C97.4338529,82.1933597 97.078242,82.5475099 96.6400786,82.5475099" id="Fill-32" fill="#5E91F0" mask="url(#mask-2)"></path>
                <path d="M50.8999844,81.7566008 L50.8999844,85.3546245" id="Fill-33" fill="#FFFFFF" mask="url(#mask-2)"></path>
                <path d="M50.8999844,86.1453755 C50.461821,86.1453755 50.1062101,85.7912253 50.1062101,85.3548617 L50.1062101,81.7568379 C50.1062101,81.3204743 50.461821,80.9663241 50.8999844,80.9663241 C51.3381479,80.9663241 51.6937588,81.3204743 51.6937588,81.7568379 L51.6937588,85.3548617 C51.6937588,85.7912253 51.3381479,86.1453755 50.8999844,86.1453755" id="Fill-34" fill="#5E91F0" mask="url(#mask-2)"></path>
                <path d="M55.2235144,90.4653755 C55.2235144,92.8436364 53.2874988,94.7713043 50.8998257,94.7713043 C48.5121525,94.7713043 46.5765339,92.8436364 46.5765339,90.4653755 C46.5765339,88.0871146 48.5121525,86.1594466 50.8998257,86.1594466 C53.2874988,86.1594466 55.2235144,88.0871146 55.2235144,90.4653755" id="Fill-35" fill="#FFFFFF" mask="url(#mask-2)"></path>
                <path d="M50.8999844,86.9501581 C48.9536498,86.9501581 47.37007,88.5268379 47.37007,90.4655731 C47.37007,92.403913 48.9536498,93.9805929 50.8999844,93.9805929 C52.8463191,93.9805929 54.4298988,92.403913 54.4298988,90.4655731 C54.4298988,88.5268379 52.8463191,86.9501581 50.8999844,86.9501581 M50.8999844,95.5616206 C48.0785136,95.5616206 45.7825214,93.2754545 45.7825214,90.4655731 C45.7825214,87.6552964 48.0785136,85.3691304 50.8999844,85.3691304 C53.7214553,85.3691304 56.0174475,87.6552964 56.0174475,90.4655731 C56.0174475,93.2754545 53.7214553,95.5616206 50.8999844,95.5616206" id="Fill-36" fill="#5E91F0" mask="url(#mask-2)"></path>
                <path d="M46.6838521,70.3363636 L50.6654241,70.3363636 L50.6654241,59.7762846 L46.6838521,59.7762846 L46.6838521,70.3363636 Z M51.4591984,71.9173913 L45.8900778,71.9173913 C45.4519144,71.9173913 45.0963035,71.5632411 45.0963035,71.1268775 L45.0963035,58.9857708 C45.0963035,58.5490119 45.4519144,58.1952569 45.8900778,58.1952569 L51.4591984,58.1952569 C51.8977588,58.1952569 52.2529728,58.5490119 52.2529728,58.9857708 L52.2529728,71.1268775 C52.2529728,71.5632411 51.8977588,71.9173913 51.4591984,71.9173913 L51.4591984,71.9173913 Z" id="Fill-37" fill="#448E28" mask="url(#mask-2)"></path>
                <path d="M56.9560856,70.3363636 L60.9380545,70.3363636 L60.9380545,54.6656126 L56.9560856,54.6656126 L56.9560856,70.3363636 Z M61.7318288,71.9173913 L56.1623113,71.9173913 C55.723751,71.9173913 55.368537,71.5632411 55.368537,71.1268775 L55.368537,53.8747036 C55.368537,53.4383399 55.723751,53.0841897 56.1623113,53.0841897 L61.7318288,53.0841897 C62.1703891,53.0841897 62.5256031,53.4383399 62.5256031,53.8747036 L62.5256031,71.1268775 C62.5256031,71.5632411 62.1703891,71.9173913 61.7318288,71.9173913 L61.7318288,71.9173913 Z" id="Fill-38" fill="#448E28" mask="url(#mask-2)"></path>
                <path d="M67.228716,70.3363636 L71.2102879,70.3363636 L71.2102879,49.1102767 L67.228716,49.1102767 L67.228716,70.3363636 Z M72.0040623,71.9173913 L66.4349416,71.9173913 C65.9963813,71.9173913 65.6411673,71.5632411 65.6411673,71.1268775 L65.6411673,48.3197628 C65.6411673,47.883004 65.9963813,47.529249 66.4349416,47.529249 L72.0040623,47.529249 C72.4422257,47.529249 72.7978366,47.883004 72.7978366,48.3197628 L72.7978366,71.1268775 C72.7978366,71.5632411 72.4422257,71.9173913 72.0040623,71.9173913 L72.0040623,71.9173913 Z" id="Fill-39" fill="#448E28" mask="url(#mask-2)"></path>
                <path d="M77.5009494,70.3363636 L81.4825214,70.3363636 L81.4825214,42.2221344 L77.5009494,42.2221344 L77.5009494,70.3363636 Z M82.2766926,71.9173913 L76.7071751,71.9173913 C76.2690117,71.9173913 75.9134008,71.5632411 75.9134008,71.1268775 L75.9134008,41.4312253 C75.9134008,40.9948617 76.2690117,40.6407115 76.7071751,40.6407115 L82.2766926,40.6407115 C82.714856,40.6407115 83.0704669,40.9948617 83.0704669,41.4312253 L83.0704669,71.1268775 C83.0704669,71.5632411 82.714856,71.9173913 82.2766926,71.9173913 L82.2766926,71.9173913 Z" id="Fill-40" fill="#448E28" mask="url(#mask-2)"></path>
                <path d="M82.4874,33.8612253 C82.0492366,33.8612253 81.6936257,33.5070751 81.6936257,33.0707115 L81.6936257,25.5157708 C81.6936257,25.0790119 82.0492366,24.7252569 82.4874,24.7252569 C82.9255634,24.7252569 83.2811743,25.0790119 83.2811743,25.5157708 L83.2811743,33.0707115 C83.2811743,33.5070751 82.9255634,33.8612253 82.4874,33.8612253" id="Fill-41" fill="#609127" mask="url(#mask-2)"></path>
                <path d="M42.7087891,54.6305534 C42.5055829,54.6305534 42.3027735,54.5534783 42.1475907,54.3989328 C41.8376218,54.0902372 41.8376218,53.5898419 42.1475907,53.2811462 L59.718579,35.782332 C59.8674117,35.6341107 60.0694272,35.5507115 60.2797774,35.5507115 C60.4905245,35.5507115 60.6925401,35.6341107 60.8413728,35.782332 L65.9485167,40.8688933 L80.5710304,26.3060474 L74.9011004,26.3060474 C74.462937,26.3060474 74.1073261,25.9522925 74.1073261,25.5155336 C74.1073261,25.07917 74.462937,24.7250198 74.9011004,24.7250198 L82.4875984,24.7250198 C82.8082833,24.7250198 83.0980109,24.9179051 83.220649,25.2131621 C83.343684,25.508419 83.2758163,25.8487352 83.0487969,26.0744269 L66.5097152,42.5455731 C66.2120498,42.8420158 65.6849837,42.8420158 65.3873183,42.5455731 L60.2797774,37.4594071 L43.2699875,54.3989328 C43.1148047,54.5534783 42.9119953,54.6305534 42.7087891,54.6305534" id="Fill-42" fill="#448E28" mask="url(#mask-2)"></path>
                <path d="M25.0732669,23.34083 C19.9581852,23.34083 15.7968233,27.4850988 15.7968233,32.5795652 C15.7968233,37.6736364 19.9581852,41.8179051 25.0732669,41.8179051 C30.1887455,41.8179051 34.3501074,37.6736364 34.3501074,32.5795652 C34.3501074,27.4850988 30.1887455,23.34083 25.0732669,23.34083 M25.0732669,42.608419 C19.5204187,42.608419 15.003049,38.1092095 15.003049,32.5795652 C15.003049,27.0491304 19.5204187,22.5503162 25.0732669,22.5503162 C30.6261152,22.5503162 35.1438817,27.0491304 35.1438817,32.5795652 C35.1438817,38.1092095 30.6261152,42.608419 25.0732669,42.608419" id="Fill-43" fill="#448E28" mask="url(#mask-2)"></path>
                <path d="M26.6302156,32.9746245 L23.5166358,32.9746245 C22.116021,32.9746245 20.976558,31.8398419 20.976558,30.4449802 C20.976558,29.0501186 22.116021,27.9157312 23.5166358,27.9157312 L28.7730093,27.9157312 C28.9924879,27.9157312 29.1698965,28.0924111 29.1698965,28.3109881 C29.1698965,28.52917 28.9924879,28.7062451 28.7730093,28.7062451 L23.5166358,28.7062451 C22.5537875,28.7062451 21.7703323,29.486087 21.7703323,30.4449802 C21.7703323,31.4038735 22.5537875,32.1841107 23.5166358,32.1841107 L26.6302156,32.1841107 C26.8496942,32.1841107 27.0271027,32.3611858 27.0271027,32.5793676 C27.0271027,32.7975494 26.8496942,32.9746245 26.6302156,32.9746245" id="Fill-44" fill="#448E28" mask="url(#mask-2)"></path>
                <path d="M26.6302156,37.2429249 L21.3734451,37.2429249 C21.1539665,37.2429249 20.976558,37.0658498 20.976558,36.847668 C20.976558,36.6294862 21.1539665,36.4524111 21.3734451,36.4524111 L26.6302156,36.4524111 C27.5930638,36.4524111 28.3761222,35.6721739 28.3761222,34.7136759 C28.3761222,33.7547826 27.5930638,32.9745455 26.6302156,32.9745455 L23.5166358,32.9745455 C23.2975541,32.9745455 23.1197486,32.7974704 23.1197486,32.5792885 C23.1197486,32.3611067 23.2975541,32.1840316 23.5166358,32.1840316 L26.6302156,32.1840316 C28.0304335,32.1840316 29.1698965,33.3188142 29.1698965,34.7136759 C29.1698965,36.1081423 28.0304335,37.2429249 26.6302156,37.2429249" id="Fill-45" fill="#448E28" mask="url(#mask-2)"></path>
                <path d="M26.0305984,39.0267984 C25.8111198,39.0267984 25.6337113,38.8497233 25.6337113,38.6315415 L25.6337113,26.8457708 C25.6337113,26.6271937 25.8111198,26.4505138 26.0305984,26.4505138 C26.250077,26.4505138 26.4274856,26.6271937 26.4274856,26.8457708 L26.4274856,38.6315415 C26.4274856,38.8497233 26.250077,39.0267984 26.0305984,39.0267984" id="Fill-46" fill="#448E28" mask="url(#mask-2)"></path>
                <path d="M23.9585696,39.0267984 C23.7390911,39.0267984 23.5616825,38.8497233 23.5616825,38.6315415 L23.5616825,26.8457708 C23.5616825,26.6271937 23.7390911,26.4505138 23.9585696,26.4505138 C24.1780482,26.4505138 24.3554568,26.6271937 24.3554568,26.8457708 L24.3554568,38.6315415 C24.3554568,38.8497233 24.1780482,39.0267984 23.9585696,39.0267984" id="Fill-47" fill="#448E28" mask="url(#mask-2)"></path>
                <path d="M34.7469946,62.8958498 L16.5390023,62.8958498 C16.3195237,62.8958498 16.1421152,62.71917 16.1421152,62.5005929 C16.1421152,62.2820158 16.3195237,62.105336 16.5390023,62.105336 L34.7469946,62.105336 C34.9664732,62.105336 35.1438817,62.2820158 35.1438817,62.5005929 C35.1438817,62.71917 34.9664732,62.8958498 34.7469946,62.8958498" id="Fill-48" fill="#448E28" mask="url(#mask-2)"></path>
                <path d="M27.3046062,59.6199209 L16.539042,59.6199209 C16.1008786,59.6199209 15.7452677,59.2657708 15.7452677,58.8294071 C15.7452677,58.3930435 16.1008786,58.0388933 16.539042,58.0388933 L27.3046062,58.0388933 C27.7427696,58.0388933 28.0983805,58.3930435 28.0983805,58.8294071 C28.0983805,59.2657708 27.7427696,59.6199209 27.3046062,59.6199209" id="Fill-49" fill="#448E28" mask="url(#mask-2)"></path>
                <path d="M34.7469946,70.2385771 L16.5390023,70.2385771 C16.3195237,70.2385771 16.1421152,70.0618972 16.1421152,69.8433202 C16.1421152,69.6247431 16.3195237,69.4480632 16.5390023,69.4480632 L34.7469946,69.4480632 C34.9664732,69.4480632 35.1438817,69.6247431 35.1438817,69.8433202 C35.1438817,70.0618972 34.9664732,70.2385771 34.7469946,70.2385771" id="Fill-50" fill="#448E28" mask="url(#mask-2)"></path>
                <path d="M34.7469946,66.5673913 L16.5390023,66.5673913 C16.3195237,66.5673913 16.1421152,66.3907115 16.1421152,66.1721344 C16.1421152,65.9535573 16.3195237,65.7768775 16.5390023,65.7768775 L34.7469946,65.7768775 C34.9664732,65.7768775 35.1438817,65.9535573 35.1438817,66.1721344 C35.1438817,66.3907115 34.9664732,66.5673913 34.7469946,66.5673913" id="Fill-51" fill="#448E28" mask="url(#mask-2)"></path>
            </g>
        </g>
    </g>
</svg>