<?xml version="1.0" encoding="UTF-8"?>
<svg width="115px" height="105px" viewBox="0 0 115 105" version="1.1" xmlns="http://www.w3.org/2000/svg" xmlns:xlink="http://www.w3.org/1999/xlink">
    <!-- Generator: Sketch 55.2 (78181) - https://sketchapp.com -->
    <title>Group 21</title>
    <desc>Created with Sketch.</desc>
    <defs>
        <polygon id="path-1" points="0.017820922 0.123099222 109.970463 0.123099222 109.970463 103.365759 0.017820922 103.365759"></polygon>
        <polygon id="path-3" points="0.234363475 0.340330739 112.200729 0.340330739 112.200729 103.503444 0.234363475 103.503444"></polygon>
        <polygon id="path-5" points="0.322203901 0.241990272 32.5295035 0.241990272 32.5295035 1.87623152 0.322203901 1.87623152"></polygon>
        <polygon id="path-7" points="0 0.119708171 30.5757677 0.119708171 30.5757677 1.75394942 0 1.75394942"></polygon>
    </defs>
    <g id="New-Design" stroke="none" stroke-width="1" fill="none" fill-rule="evenodd">
        <g id="Solutions" transform="translate(-661.000000, -3245.000000)">
            <g id="Group-21" transform="translate(661.000000, 3245.000000)">
                <g id="Group-3" transform="translate(1.631206, 1.293911)">
                    <mask id="mask-2" fill="white">
                        <use xlink:href="#path-1"></use>
                    </mask>
                    <g id="Clip-2"></g>
                    <path d="M29.7485833,9.11142607 C18.3020053,9.11142607 8.98945213,18.4413093 8.98945213,29.9091887 L8.98945213,32.5517568 C8.98945213,37.8336245 10.9689202,42.8699475 14.5636897,46.7328852 L54.9939379,90.1840914 L95.4237784,46.7332938 C99.0185479,42.8695389 100.998832,37.833216 100.998832,32.5517568 L100.998832,29.9091887 C100.998832,18.4413093 91.6858706,9.11142607 80.2388848,9.11142607 C68.7923067,9.11142607 59.4797535,18.4413093 59.4797535,29.9091887 L50.5081223,29.9091887 C50.5081223,18.4413093 41.1951613,9.11142607 29.7485833,9.11142607 L29.7485833,9.11142607 Z M54.9939379,103.365881 L8.00134929,52.862107 C2.85326418,47.3293833 0.017820922,40.1166595 0.017820922,32.5517568 L0.017820922,29.9091887 C0.017820922,13.4850642 13.3549663,0.123099222 29.7481755,0.123099222 C40.3877145,0.123099222 49.7394167,5.74979183 54.9939379,14.1906479 C60.2484592,5.74979183 69.5997535,0.123099222 80.2388848,0.123099222 C96.6329096,0.123099222 109.970463,13.4850642 109.970463,29.9091887 L109.970463,32.5517568 C109.970463,40.1158424 107.13502,47.3289747 101.986119,52.862107 L54.9939379,103.365881 Z" id="Fill-1" fill="#C2E5FF" mask="url(#mask-2)"></path>
                </g>
                <g id="Group-6" transform="translate(0.407801, 0.068230)">
                    <mask id="mask-4" fill="white">
                        <use xlink:href="#path-3"></use>
                    </mask>
                    <g id="Clip-5"></g>
                    <path d="M30.9719876,11.3457198 C20.0804273,11.3457198 11.2193103,20.2233268 11.2193103,31.1351556 L11.2193103,33.7773152 C11.2193103,38.8034241 13.1033528,43.595428 16.5231755,47.2708366 L56.2173422,89.9306615 L95.9106933,47.2712451 C99.3317394,43.5950195 101.215374,38.8030156 101.215374,33.7773152 L101.215374,31.1351556 C101.215374,20.2233268 92.3542571,11.3457198 81.462289,11.3457198 C70.5711365,11.3457198 61.7100195,20.2233268 61.7100195,31.1351556 C61.7100195,33.8055058 59.8011011,36.0378794 57.2792571,36.5346887 L56.2173422,40.2525875 L55.1558351,36.5346887 C52.6335833,36.0378794 50.7250727,33.8055058 50.7250727,31.1351556 C50.7250727,20.2233268 41.8639557,11.3457198 30.9719876,11.3457198 M56.2173422,103.503444 C54.6970585,103.503444 53.2314202,102.863638 52.1964202,101.748677 L8.48826418,54.7752724 C3.16564007,49.055428 0.234363475,41.5979767 0.234363475,33.7773152 L0.234363475,31.1351556 C0.234363475,14.154572 14.022945,0.340330739 30.9715798,0.340330739 C41.1902677,0.340330739 50.5721472,5.48859922 56.2173422,13.5940272 C61.862945,5.48859922 71.2440089,0.340330739 81.462289,0.340330739 C98.4113316,0.340330739 112.200729,14.154572 112.200729,31.1351556 L112.200729,33.7773152 C112.200729,41.5971595 109.269044,49.0542023 103.946012,54.7752724 L60.2350018,101.752763 C59.203672,102.863638 57.7380337,103.503444 56.2173422,103.503444" id="Fill-4" fill="#C2E5FF" mask="url(#mask-4)"></path>
                </g>
                <path d="M64.9537128,70.5520739 L63.1826312,65.8078716 C61.7712305,65.3216848 60.5861596,64.2700506 59.9532518,62.8789027 C59.2873121,64.0547393 58.2066383,64.9417237 56.9444929,65.3756148 L55.1734113,70.1210428 L53.4023298,65.3760233 C51.8734823,64.8497977 50.6105213,63.66007 50.0273652,62.0944669 L44.5787305,47.4978327 L41.8766383,54.7362957 C41.2926667,56.3002646 40.0305213,57.488358 38.503305,58.0145837 L36.7318156,62.7596031 L34.960734,58.0145837 C34.1997766,57.7522879 33.504883,57.325751 32.9266206,56.7705175 C31.4821879,57.8360428 29.545539,58.1763735 27.7422411,57.5026576 C24.9035355,56.4399922 23.4574716,53.2642529 24.5165319,50.4218988 L27.9669397,41.1790389 C28.5496879,39.6158872 29.8118333,38.4273852 31.3394574,37.9011595 L33.1109468,33.155323 L34.8824362,37.9011595 C35.3456986,38.0609066 35.7857163,38.2819377 36.1886241,38.5556732 L39.4347234,29.8606926 C40.0178794,28.2975409 41.2800248,27.1086304 42.8076489,26.5828132 L44.5787305,21.8382023 L46.3498121,26.5828132 C47.877844,27.1086304 49.1403972,28.2979494 49.7235532,29.8623268 L55.2105213,44.5615097 C55.8780922,43.3922101 56.9555035,42.5117626 58.2119397,42.0790973 L59.9834291,37.3344864 L61.7541028,42.0790973 C63.1361418,42.55507 64.3008227,43.5736109 64.9427021,44.9218599 L71.0372943,28.5953813 C71.6204504,27.031821 72.8821879,25.8429105 74.4098121,25.3170934 L76.1813014,20.5720739 L77.952383,25.3170934 C79.4804149,25.8429105 80.7429681,27.031821 81.3261241,28.5961984 L88.7330213,48.4375214 C89.7924894,51.2827354 88.3464255,54.4580661 85.5105745,55.5195058 C84.1436241,56.0338833 82.6506631,55.9840389 81.3130745,55.3732412 C79.979156,54.7644864 78.9604681,53.6724047 78.4454149,52.2971907 L76.1813014,46.2325214 L70.0981277,62.5291751 C69.5145638,64.093144 68.2520106,65.2820545 66.7247943,65.8078716 L64.9537128,70.5520739 Z" id="Fill-7" fill="#C2E5FF"></path>
                <path d="M81.8699273,5.91117315 C67.9276046,5.91117315 56.6253883,17.2348307 56.6253883,31.2030992 C56.6253883,17.2348307 45.3223564,5.91117315 31.3796259,5.91117315 L31.3792181,5.91117315 C17.4373032,5.91117315 6.13467908,17.2348307 6.13467908,31.2030992 L6.13467908,33.8456673 C6.13467908,40.2465817 8.5570195,46.409714 12.9135621,51.0914066 L56.6253883,98.0688969 L100.335991,51.0914066 C104.692941,46.409714 107.11569,40.2465817 107.11569,33.8456673 L107.11569,31.2030992 C107.11569,17.2348307 95.8126578,5.91117315 81.8699273,5.91117315" id="Fill-9" fill="#FFFFFF"></path>
                <path d="M31.379789,6.91978599 C18.0153209,6.91978599 7.1412961,17.8132296 7.1412961,31.2033852 L7.1412961,33.8455447 C7.1412961,40.0127626 9.45271454,45.8935798 13.6498067,50.403677 L56.6251436,96.589786 L99.5996649,50.403677 C103.797573,45.8927626 106.108991,40.0123541 106.108991,33.8455447 L106.108991,31.2033852 C106.108991,17.8132296 95.2353741,6.91978599 81.8700904,6.91978599 C68.5048067,6.91978599 57.6320053,17.8132296 57.6320053,31.2033852 C57.6320053,31.7602529 57.1813848,32.2117121 56.6251436,32.2117121 C56.0693103,32.2117121 55.6186897,31.7602529 55.6186897,31.2033852 C55.6186897,17.8132296 44.7450727,6.91978599 31.379789,6.91978599 M56.6251436,99.0775097 C56.3462074,99.0775097 56.0790975,98.9614786 55.8890621,98.7563813 L12.1772358,51.7792996 C7.63188121,46.894144 5.1279805,40.5250973 5.1279805,33.8455447 L5.1279805,31.2033852 C5.1279805,16.7007198 16.9044699,4.90272374 31.3793812,4.90272374 C43.3552855,4.90272374 53.4842571,12.9775097 56.6251436,23.9788132 C59.7660301,12.9775097 69.8941862,4.90272374 81.8700904,4.90272374 C96.3458174,4.90272374 108.122715,16.7007198 108.122715,31.2033852 L108.122715,33.8455447 C108.122715,40.5242802 105.618814,46.8933268 101.072644,51.7792996 L57.361633,98.7563813 C57.1711897,98.9614786 56.9044876,99.0775097 56.6251436,99.0775097" id="Fill-11" fill="#5E91F0"></path>
                <path d="M64.9537128,61.6108132 C64.5340851,61.6108132 64.1580922,61.3497432 64.0104681,60.9554825 L59.9830213,50.1645875 L56.1158404,60.5232257 C55.9690319,60.9178949 55.593039,61.1785564 55.1734113,61.1785564 C54.7529681,61.1785564 54.3769752,60.9178949 54.2301667,60.5232257 L44.5787305,34.6678949 L37.6750603,53.161786 C37.527844,53.5564553 37.1518511,53.8175253 36.7322234,53.8175253 C36.3125957,53.8175253 35.9366028,53.5564553 35.7889787,53.161786 L33.1109468,45.9866498 L30.6050071,52.6997043 C30.4104858,53.2222529 29.8285532,53.4853658 29.3098298,53.2917082 C28.7882518,53.0964163 28.5248121,52.515035 28.7189255,51.9933035 L32.1681099,42.7537121 C32.3153262,42.3594514 32.6913191,42.0983813 33.1109468,42.0983813 C33.5309823,42.0983813 33.9069752,42.3594514 34.0541915,42.7537121 L36.7322234,49.9292568 L43.6363014,31.4353658 C43.7831099,31.0411051 44.1591028,30.780035 44.5787305,30.780035 C44.9983582,30.780035 45.3747589,31.0411051 45.5219752,31.4353658 L55.1734113,57.2906965 L59.0397766,46.9316498 C59.1865851,46.5373891 59.5629858,46.2763191 59.9830213,46.2763191 C60.4026489,46.2763191 60.7786418,46.5373891 60.9254504,46.9316498 L64.9537128,57.7221362 L75.2388723,30.1692374 C75.3856809,29.7753852 75.7616738,29.5139066 76.1813014,29.5139066 C76.6013369,29.5139066 76.9773298,29.7753852 77.1245461,30.1692374 L84.5314433,50.0113774 C84.7255567,50.5335175 84.462117,51.1144903 83.9409468,51.3097821 C83.4218156,51.5050739 82.8406986,51.2403268 82.6453617,50.7181868 L76.1813014,33.4021751 L65.8969574,60.9554825 C65.7493333,61.3497432 65.3733404,61.6108132 64.9537128,61.6108132" id="Fill-13" fill="#448E28"></path>
                <g id="Group-17" transform="translate(82.375887, 49.504027)">
                    <mask id="mask-6" fill="white">
                        <use xlink:href="#path-5"></use>
                    </mask>
                    <g id="Clip-16"></g>
                    <path d="M31.7139415,1.87623152 L1.13780674,1.87623152 C0.687593972,1.87623152 0.322203901,1.51016148 0.322203901,1.05911089 C0.322203901,0.608060311 0.687593972,0.241990272 1.13780674,0.241990272 L31.7139415,0.241990272 C32.1641543,0.241990272 32.5295443,0.608060311 32.5295443,1.05911089 C32.5295443,1.51016148 32.1641543,1.87623152 31.7139415,1.87623152" id="Fill-15" fill="#448E28" mask="url(#mask-6)"></path>
                </g>
                <g id="Group-20" transform="translate(0.000000, 51.546829)">
                    <mask id="mask-8" fill="white">
                        <use xlink:href="#path-7"></use>
                    </mask>
                    <g id="Clip-19"></g>
                    <path d="M29.7601649,1.75394942 L0.815235816,1.75394942 C0.36502305,1.75394942 -0.000367021277,1.38787938 -0.000367021277,0.936828794 C-0.000367021277,0.48536965 0.36502305,0.119708171 0.815235816,0.119708171 L29.7601649,0.119708171 C30.2103777,0.119708171 30.5757677,0.48536965 30.5757677,0.936828794 C30.5757677,1.38787938 30.2103777,1.75394942 29.7601649,1.75394942" id="Fill-18" fill="#448E28" mask="url(#mask-8)"></path>
                </g>
            </g>
        </g>
    </g>
</svg>