<?xml version="1.0" encoding="UTF-8"?>
<svg width="87px" height="110px" viewBox="0 0 87 110" version="1.1" xmlns="http://www.w3.org/2000/svg" xmlns:xlink="http://www.w3.org/1999/xlink">
    <!-- Generator: Sketch 55.2 (78181) - https://sketchapp.com -->
    <title>Group 26</title>
    <desc>Created with Sketch.</desc>
    <defs>
        <polygon id="path-1" points="9.38481353e-05 0.147194245 86.9411511 0.147194245 86.9411511 109.604317 9.38481353e-05 109.604317"></polygon>
        <polygon id="path-3" points="0 109.852806 86.9411511 109.852806 86.9411511 0.395683453 0 0.395683453"></polygon>
    </defs>
    <g id="New-Design" stroke="none" stroke-width="1" fill="none" fill-rule="evenodd">
        <g id="Solutions" transform="translate(-298.000000, -3240.000000)">
            <g id="Group-26" transform="translate(298.000000, 3240.000000)">
                <g id="Group-3" transform="translate(0.000000, 0.248489)">
                    <mask id="mask-2" fill="white">
                        <use xlink:href="#path-1"></use>
                    </mask>
                    <g id="Clip-2"></g>
                    <path d="M85.9868417,48.2422806 C85.3019137,47.0924245 83.9292878,45.5975324 81.2821655,45.0040072 C77.5516619,44.1675324 73.8532086,45.2473525 71.2175612,47.6139353 L71.2175612,38.8428201 C71.8641079,38.7549784 72.5039281,38.5658417 73.1120935,38.2619568 C75.1609424,37.2363453 76.4334604,35.1760216 76.4334604,32.8846187 L76.4334604,26.3645468 C76.4334604,24.4830719 75.535259,22.6850863 74.0281007,21.554223 L47.0792878,1.34231655 C44.955259,-0.251496403 41.9876331,-0.251496403 39.8628129,1.34192086 L32.1822014,7.10228058 C31.0311583,4.90465468 28.7318417,3.39907914 26.0835324,3.39907914 L22.6062662,3.39907914 C18.8112662,3.39907914 15.7237482,6.48659712 15.7237482,10.2815971 L15.7237482,19.4460216 L12.9112302,21.5554101 C11.406446,22.6846906 10.5074532,24.4826763 10.5074532,26.3645468 L10.5074532,32.8846187 C10.5074532,35.1760216 11.7803669,37.2363453 13.833964,38.2647266 C14.4263022,38.5603022 15.0688921,38.7514173 15.7237482,38.8400504 L15.7237482,47.6143309 C13.0873094,45.2465612 9.38846043,44.1663453 5.65914388,45.0040072 C3.01202158,45.5975324 1.63939568,47.0924245 0.954863309,48.2418849 C-0.64923741,50.9333237 0.128676259,53.6860935 0.696877698,55.6981439 L5.95907194,74.3178201 C6.18777698,75.1262014 6.52608633,75.8965971 6.96608633,76.6104101 L14.9529568,91.5727842 C14.8283165,92.0151583 14.7566978,92.4800863 14.7566978,92.9620288 L14.7566978,104.46059 C14.7566978,105.463252 15.0498993,106.397065 15.5480647,107.189223 L15.5480647,108.813108 L17.1723453,108.813108 C17.9641079,109.311273 18.8979209,109.604475 19.9005827,109.604475 L39.3622734,109.604475 C40.3653309,109.604475 41.2991439,109.311273 42.0909065,108.813108 L43.2261223,108.813108 L43.7151871,108.813108 L44.8500072,108.813108 C45.6417698,109.311273 46.5755827,109.604475 47.5786403,109.604475 L67.0403309,109.604475 C68.0429928,109.604475 68.9772014,109.311273 69.768964,108.813108 L71.3928489,108.813108 L71.3928489,107.189223 C71.8914101,106.397065 72.1842158,105.463252 72.1842158,104.46059 L72.1842158,92.9620288 C72.1842158,92.4800863 72.1129928,92.0151583 71.9883525,91.5727842 L79.9748273,76.6108058 C80.4148273,75.8969928 80.7531367,75.1265971 80.981446,74.3182158 L86.2448273,55.6945827 C86.8126331,53.6856978 87.5905468,50.9337194 85.9868417,48.2422806" id="Fill-1" fill="#C2E5FF" mask="url(#mask-2)"></path>
                </g>
                <polygon id="Fill-4" fill="#FFFFFF" points="39.3626295 104.708921 19.9005432 104.708921 19.9005432 93.2103597 22.3070899 93.2103597 39.3626295 93.2103597"></polygon>
                <mask id="mask-4" fill="white">
                    <use xlink:href="#path-3"></use>
                </mask>
                <g id="Clip-7"></g>
                <path d="M20.6922662,103.917554 L38.571223,103.917554 L38.571223,94.0017266 L20.6922662,94.0017266 L20.6922662,103.917554 Z M39.3621942,105.500288 L19.9008993,105.500288 C19.4636691,105.500288 19.1095324,105.146151 19.1095324,104.708921 L19.1095324,93.2103597 C19.1095324,92.7735252 19.4636691,92.4189928 19.9008993,92.4189928 L39.3621942,92.4189928 C39.7994245,92.4189928 40.1535612,92.7735252 40.1535612,93.2103597 L40.1535612,104.708921 C40.1535612,105.146151 39.7994245,105.500288 39.3621942,105.500288 L39.3621942,105.500288 Z" id="Fill-6" fill="#5E91F0" mask="url(#mask-4)"></path>
                <path d="M35.9127842,80.6831403 L26.5026403,69.0045432 C25.1672086,67.3474209 22.7543309,67.0561978 21.0631799,68.3477086 L20.7782878,68.5653345 C19.7997626,69.3127806 18.7998705,71.0233201 18.7998705,71.0233201 C18.4215971,70.5758022 18.1481799,70.0495432 17.9997986,69.4825288 L14.1406978,54.7500468 C13.2947266,51.5200827 10.0426043,49.5400827 6.78494245,50.2713058 C4.58731655,50.764723 5.03443885,52.3802986 5.64735252,54.5474568 L10.9095468,73.1679245 C11.0199424,73.5580683 11.1896906,73.9288237 11.4132518,74.2667374 L20.548,91.3800468 C21.2748705,92.478464 22.504259,93.1388597 23.8214892,93.1388597 L29.0456978,93.1388597 C32.2364892,93.1388597 29.0456978,93.1388597 37.0970647,93.2104784 L36.7813094,83.1462698 C36.7532158,82.2504424 36.4750504,81.3811259 35.9127842,80.6831403" id="Fill-8" fill="#FFFFFF" mask="url(#mask-4)"></path>
                <path d="M21.2276655,90.9728489 C21.8116942,91.8346475 22.7783489,92.3478489 23.8213705,92.3478489 L29.0451835,92.3478489 C30.6492842,92.3478489 30.6492842,92.3478489 31.2598237,92.356554 C31.823277,92.365259 32.9098237,92.3810863 36.2802554,92.4119496 L35.9902194,83.1707626 C35.9656871,82.401554 35.7259029,81.7130647 35.2961906,81.1796835 L25.8856511,69.5010863 C24.8117662,68.1680288 22.9037806,67.9373453 21.5434209,68.9768058 L21.2585288,69.194036 C20.5605432,69.7274173 19.7398957,70.9837122 19.4830971,71.4229209 C19.3533129,71.6445036 19.1238165,71.7897194 18.8678094,71.811482 C18.6121978,71.8348273 18.3613345,71.7303669 18.1955432,71.5341079 C17.7428813,70.9991439 17.4105072,70.3585324 17.2336367,69.6823094 L13.374536,54.9506187 C12.6330252,52.1183165 9.81338489,50.4050072 6.95813309,51.0436403 C6.48608273,51.1492878 6.18219784,51.312705 6.05320504,51.5283525 C5.75644245,52.0261223 6.07338489,53.1463022 6.40852878,54.3321655 L11.6711187,72.9526331 C11.7589604,73.2644317 11.8942842,73.5596115 12.0731331,73.830259 C12.0865863,73.8512302 12.0996439,73.8722014 12.1115144,73.8943597 L21.2276655,90.9728489 Z M37.096946,94.0018058 L37.0902194,94.0018058 C33.0609748,93.9657986 31.8446439,93.9483885 31.2364784,93.9392878 C30.6322698,93.9305827 30.6322698,93.9305827 29.0451835,93.9305827 L23.8213705,93.9305827 C22.2338885,93.9305827 20.7635288,93.1404029 19.8878813,91.8168417 C19.8740324,91.7958705 19.8617662,91.7745036 19.8498957,91.752741 L10.7321619,74.6710863 C10.4729892,74.2726331 10.2767302,73.8393597 10.1477374,73.382741 L4.88514748,54.7626691 C4.43604676,53.1736043 4.04827698,51.8013741 4.69363669,50.7187842 C5.05885252,50.1058705 5.68601079,49.7070216 6.61151439,49.4996835 C10.3004712,48.671518 13.9474856,50.8885324 14.9054353,54.5493957 L18.7649317,69.2822734 C18.7866942,69.3645755 18.8116223,69.4456906 18.8397158,69.5260144 C19.2385647,68.9775971 19.7588885,68.3480647 20.2978094,67.9361583 L20.5827014,67.7189281 C22.6299676,66.154 25.5010468,66.5014101 27.1186007,68.5083165 L36.5287446,80.186518 C37.1760827,80.9901511 37.536946,82.0050791 37.5721619,83.1213022 L37.8879173,93.1859065 C37.8946439,93.4011583 37.8135288,93.6096835 37.6627734,93.764 C37.5139964,93.9159424 37.3102194,94.0018058 37.096946,94.0018058 L37.096946,94.0018058 Z" id="Fill-9" fill="#5E91F0" mask="url(#mask-4)"></path>
                <path d="M18.7998705,71.0232806 L25.5545827,81.7316619" id="Fill-10" fill="#FFFFFF" mask="url(#mask-4)"></path>
                <path d="M25.5554532,82.5232266 C25.2927194,82.5232266 25.0359209,82.3926511 24.8855612,82.154054 L18.1304532,71.4456727 C17.8973957,71.0757086 18.0081871,70.5870396 18.3773597,70.353982 C18.7485108,70.1205288 19.2367842,70.2321115 19.4690504,70.6008885 L26.2237626,81.3096655 C26.4572158,81.6792338 26.3464245,82.1682986 25.9768561,82.4009604 C25.8454892,82.4836583 25.699482,82.5232266 25.5554532,82.5232266" id="Fill-11" fill="#5E91F0" mask="url(#mask-4)"></path>
                <polygon id="Fill-12" fill="#FFFFFF" mask="url(#mask-4)" points="47.578482 104.708921 67.0405683 104.708921 67.0405683 93.2103597 64.6340216 93.2103597 47.578482 93.2103597"></polygon>
                <path d="M48.3699281,103.917554 L66.2492806,103.917554 L66.2492806,94.0017266 L48.3699281,94.0017266 L48.3699281,103.917554 Z M67.0402518,105.500288 L47.5785612,105.500288 C47.1413309,105.500288 46.7871942,105.146151 46.7871942,104.708921 L46.7871942,93.2103597 C46.7871942,92.7735252 47.1413309,92.4189928 47.5785612,92.4189928 L67.0402518,92.4189928 C67.477482,92.4189928 67.8316187,92.7735252 67.8316187,93.2103597 L67.8316187,104.708921 C67.8316187,105.146151 67.477482,105.500288 67.0402518,105.500288 L67.0402518,105.500288 Z" id="Fill-13" fill="#5E91F0" mask="url(#mask-4)"></path>
                <path d="M51.0283669,80.6831403 L60.4385108,69.0045432 C61.7739424,67.3474209 64.1868201,67.0561978 65.8779712,68.3477086 L66.1628633,68.5653345 C67.1413885,69.3127806 68.1412806,71.0233201 68.1412806,71.0233201 C68.519554,70.5758022 68.7929712,70.0495432 68.9413525,69.4825288 L72.8004532,54.7500468 C73.6464245,51.5200827 76.8985468,49.5400827 80.1566043,50.2713058 C82.3538345,50.764723 81.9067122,52.3802986 81.2941942,54.5474568 L76.0316043,73.1679245 C75.9216043,73.5580683 75.7514604,73.9288237 75.5278993,74.2667374 L66.3931511,91.3800468 C65.6662806,92.478464 64.4372878,93.1388597 63.1196619,93.1388597 L57.8954532,93.1388597 C54.7046619,93.1388597 57.8954532,93.1388597 49.8440863,93.2104784 L50.1602374,83.1462698 C50.1879353,82.2504424 50.4661007,81.3811259 51.0283669,80.6831403" id="Fill-14" fill="#FFFFFF" mask="url(#mask-4)"></path>
                <path d="M51.6446835,81.1796835 C51.2149712,81.7130647 50.9751871,82.401554 50.9506547,83.1707626 L50.6610144,92.4119496 C54.0310504,92.3810863 55.1172014,92.365259 55.6810504,92.356554 C56.2915899,92.3478489 56.2915899,92.3478489 57.8956906,92.3478489 L63.1195036,92.3478489 C64.1625252,92.3478489 65.1295755,91.8342518 65.7136043,90.9728489 L74.8297554,73.8943597 C74.8416259,73.8722014 74.8542878,73.8512302 74.867741,73.830259 C75.0465899,73.5604029 75.181518,73.265223 75.2697554,72.9530288 L80.5323453,54.3321655 C80.8674892,53.1463022 81.1844317,52.026518 80.8876691,51.5283525 C80.7590719,51.3131007 80.4547914,51.1492878 79.9831367,51.0436403 C77.1263022,50.4034245 74.3074532,52.1187122 73.5659424,54.9506187 L69.706446,69.6831007 C69.5303669,70.3589281 69.1975971,70.9991439 68.7457266,71.5341079 C68.5799353,71.7303669 68.3318417,71.8344317 68.0734604,71.811482 C67.8174532,71.7897194 67.5883525,71.6445036 67.4585683,71.4233165 C67.2005827,70.9837122 66.3799353,69.7274173 65.6823453,69.1944317 L65.3974532,68.9764101 C64.0366978,67.9373453 62.1291079,68.1684245 61.0548273,69.5010863 L51.6446835,81.1796835 Z M49.8439281,94.0018058 C49.6310504,94.0018058 49.4272734,93.9159424 49.2784964,93.764 C49.127741,93.6096835 49.0466259,93.4011583 49.0529568,93.1859065 L49.3687122,83.1213022 C49.4039281,82.0050791 49.7647914,80.9901511 50.4121295,80.186518 L59.8222734,68.5083165 C61.4394317,66.5018058 64.3109065,66.1555827 66.3585683,67.7185324 L66.6430647,67.936554 C67.1819856,68.3480647 67.702705,68.9775971 68.1011583,69.5260144 C68.1292518,69.4460863 68.1541799,69.3649712 68.1751511,69.2830647 L72.0350432,54.5493957 C72.9933885,50.8885324 76.6360504,48.6711223 80.3297554,49.4996835 C81.255259,49.7070216 81.8824173,50.1058705 82.2476331,50.7187842 C82.8929928,51.8017698 82.5044317,53.174 82.0553309,54.7626691 L76.7931367,73.3831367 C76.6637482,73.8401511 76.4674892,74.2734245 76.2091079,74.6710863 L67.0913741,91.752741 C67.0795036,91.7745036 67.0668417,91.7962662 67.0529928,91.8168417 C66.1773453,93.1404029 64.7065899,93.9305827 63.1195036,93.9305827 L57.8956906,93.9305827 L57.857705,93.9305827 C56.3082086,93.9305827 56.3034604,93.9305827 55.7043957,93.9392878 C55.0962302,93.9483885 53.8798993,93.9657986 49.8510504,94.0018058 L49.8439281,94.0018058 Z" id="Fill-15" fill="#5E91F0" mask="url(#mask-4)"></path>
                <path d="M68.1412806,71.0232806 L61.3865683,81.7316619" id="Fill-16" fill="#FFFFFF" mask="url(#mask-4)"></path>
                <path d="M61.3853022,82.5232266 C61.2412734,82.5232266 61.0952662,82.4836583 60.9638993,82.4009604 C60.5943309,82.1682986 60.4835396,81.6792338 60.7169928,81.3096655 L67.4721007,70.6008885 C67.7047626,70.2316018 68.1918489,70.1201331 68.5637914,70.353982 C68.932964,70.5870396 69.0437554,71.0757086 68.8106978,71.4456727 L62.0551942,82.154054 C61.9048345,82.3926511 61.648036,82.5232266 61.3853022,82.5232266" id="Fill-17" fill="#5E91F0" mask="url(#mask-4)"></path>
                <path d="M20.8675144,24.4398633 L20.8675144,10.5304029 C20.8675144,9.57007914 21.6462194,8.79176978 22.6065432,8.79176978 L26.0838094,8.79176978 C27.0437374,8.79176978 27.8224424,9.57007914 27.8224424,10.5304029 L27.8224424,19.2235683 L20.8675144,24.4398633 Z" id="Fill-18" fill="#FFFFFF" mask="url(#mask-4)"></path>
                <path d="M22.6063849,9.58297842 C22.0840827,9.58297842 21.658723,10.0079424 21.658723,10.5302446 L21.658723,22.8569712 L27.0313129,18.8281223 L27.0313129,10.5302446 C27.0313129,10.0079424 26.6059532,9.58297842 26.0836511,9.58297842 L22.6063849,9.58297842 Z M20.8673561,25.2310719 C20.7470683,25.2310719 20.6255935,25.2037698 20.5136151,25.1475827 C20.2453417,25.0138417 20.0759892,24.7396331 20.0759892,24.439705 L20.0759892,10.5302446 C20.0759892,9.13506475 21.211205,8.0002446 22.6063849,8.0002446 L26.0836511,8.0002446 C27.4788309,8.0002446 28.6140468,9.13506475 28.6140468,10.5302446 L28.6140468,19.2238058 C28.6140468,19.4726906 28.4965288,19.7073309 28.2975,19.8568993 L21.3425719,25.0727986 C21.2025,25.1776547 21.0355216,25.2310719 20.8673561,25.2310719 L20.8673561,25.2310719 Z" id="Fill-19" fill="#448E28" mask="url(#mask-4)"></path>
                <path d="M66.0735971,30.9599353 L66.0735971,59.2137122 C66.0735971,60.174036 65.2948921,60.9523453 64.3345683,60.9523453 L22.6061871,60.9523453 C21.646259,60.9523453 20.867554,60.174036 20.867554,59.2137122 L20.867554,30.9599353 L43.4705755,14.0076691 L66.0735971,30.9599353 Z" id="Fill-20" fill="#FFFFFF" mask="url(#mask-4)"></path>
                <path d="M21.6588813,31.3556187 L21.6588813,59.2137122 C21.6588813,59.7360144 22.0838453,60.1609784 22.6065432,60.1609784 L64.3349245,60.1609784 C64.8572266,60.1609784 65.2821906,59.7360144 65.2821906,59.2137122 L65.2821906,31.3556187 L43.470536,14.9968777 L21.6588813,31.3556187 Z M64.3349245,61.7437122 L22.6065432,61.7437122 C21.2109676,61.7437122 20.0761475,60.6088921 20.0761475,59.2137122 L20.0761475,30.9599353 C20.0761475,30.7110504 20.1932698,30.4764101 20.3926942,30.3268417 L42.9957158,13.3745755 C43.2770468,13.1636763 43.6640252,13.1636763 43.9453561,13.3745755 L66.5483777,30.3268417 C66.7478022,30.4764101 66.8649245,30.7110504 66.8649245,30.9599353 L66.8649245,59.2137122 C66.8649245,60.6088921 65.7301043,61.7437122 64.3349245,61.7437122 L64.3349245,61.7437122 Z" id="Fill-21" fill="#5E91F0" mask="url(#mask-4)"></path>
                <path d="M71.2897338,26.6132338 L71.2897338,33.1333058 C71.2897338,33.4625144 71.1033669,33.7636295 70.8089784,33.9108237 C70.5145899,34.058018 70.162036,34.0263633 69.8985108,33.8289173 L43.9923237,14.3988813 C43.6828993,14.1670108 43.2579353,14.1670108 42.9489065,14.3988813 L17.0423237,33.8289173 C16.7787986,34.0263633 16.4266403,34.058018 16.1322518,33.9108237 C15.8374676,33.7636295 15.6514964,33.4625144 15.6514964,33.1333058 L15.6514964,26.6132338 C15.6514964,26.3398165 15.7804892,26.0818309 15.9993022,25.9176223 L42.9489065,5.70571583 C43.2579353,5.47384532 43.6828993,5.47384532 43.9923237,5.70571583 L70.9419281,25.9176223 C71.160741,26.0818309 71.2897338,26.3398165 71.2897338,26.6132338" id="Fill-22" fill="#FFFFFF" mask="url(#mask-4)"></path>
                <path d="M43.4705755,6.32325899 C43.4539568,6.32325899 43.4373381,6.32840288 43.4238849,6.33869065 L16.4738849,26.5509928 C16.4548921,26.5652374 16.4426259,26.5889784 16.4426259,26.6131151 L16.4426259,33.1331871 C16.4426259,33.1624676 16.4596403,33.1901655 16.4865468,33.203223 C16.5118705,33.2162806 16.5439209,33.2139065 16.5680576,33.195705 L42.4738489,13.7660647 C43.0606475,13.3256691 43.8805036,13.3256691 44.4673022,13.7660647 L70.3734892,33.195705 C70.3972302,33.2135108 70.4280935,33.2158849 70.455,33.203223 C70.4815108,33.1901655 70.4985252,33.1624676 70.4985252,33.1331871 L70.4985252,26.6131151 C70.4985252,26.5889784 70.486259,26.5652374 70.4668705,26.5505971 L43.5172662,6.33869065 C43.5038129,6.32840288 43.4871942,6.32325899 43.4705755,6.32325899 M16.522554,34.7954664 C16.2693165,34.7954664 16.0148921,34.7372878 15.7782734,34.6189784 C15.2116547,34.3352734 14.8598921,33.7658849 14.8598921,33.1331871 L14.8598921,26.6131151 C14.8598921,26.0935827 15.1079856,25.597 15.5238489,25.2848058 L42.4738489,5.0725036 C43.0606475,4.63289928 43.8805036,4.6325036 44.4673022,5.0725036 L71.4169065,25.2844101 C71.8331655,25.597 72.081259,26.0935827 72.081259,26.6131151 L72.081259,33.1331871 C72.081259,33.7658849 71.7294964,34.3352734 71.1632734,34.6185827 C70.5966547,34.9018921 69.9307194,34.8413525 69.4242446,34.4622878 L43.5172662,15.0322518 C43.4903597,15.0112806 43.4507914,15.0112806 43.4238849,15.0322518 L17.5173022,34.4618921 C17.222518,34.6826835 16.8735252,34.7954664 16.522554,34.7954664" id="Fill-23" fill="#5E91F0" mask="url(#mask-4)"></path>
                <path d="M43.4705755,36.6106115 C48.2717986,36.6106115 52.1641367,40.5029496 52.1641367,45.3041727 L52.1641367,60.9522662 L34.7770144,60.9522662 L34.7770144,45.3041727 C34.7770144,40.5029496 38.6693525,36.6106115 43.4705755,36.6106115" id="Fill-24" fill="#FFFFFF" mask="url(#mask-4)"></path>
                <path d="M35.5685,60.1609388 L51.3724928,60.1609388 L51.3724928,45.3042122 C51.3724928,40.946946 47.8275647,37.402018 43.4706942,37.402018 C39.1134281,37.402018 35.5685,40.946946 35.5685,45.3042122 L35.5685,60.1609388 Z M52.1638597,61.7436727 L34.7771331,61.7436727 C34.3402986,61.7436727 33.9857662,61.3891403 33.9857662,60.9523058 L33.9857662,45.3042122 C33.9857662,40.0740683 38.2405504,35.8192842 43.4706942,35.8192842 C48.7004424,35.8192842 52.9552266,40.0740683 52.9552266,45.3042122 L52.9552266,60.9523058 C52.9552266,61.3891403 52.6010899,61.7436727 52.1638597,61.7436727 L52.1638597,61.7436727 Z" id="Fill-25" fill="#448E28" mask="url(#mask-4)"></path>
            </g>
        </g>
    </g>
</svg>