<?xml version="1.0" encoding="UTF-8"?>
<svg width="107px" height="105px" viewBox="0 0 107 105" version="1.1" xmlns="http://www.w3.org/2000/svg" xmlns:xlink="http://www.w3.org/1999/xlink">
    <!-- Generator: Sketch 55.2 (78181) - https://sketchapp.com -->
    <title>Group 40</title>
    <desc>Created with Sketch.</desc>
    <defs>
        <polygon id="path-1" points="0 104.747143 106.928904 104.747143 106.928904 -5.68434189e-14 0 -5.68434189e-14"></polygon>
    </defs>
    <g id="New-Design" stroke="none" stroke-width="1" fill="none" fill-rule="evenodd">
        <g id="Solutions" transform="translate(-1043.000000, -3242.000000)">
            <g id="Group-40" transform="translate(1043.000000, 3242.000000)">
                <path d="M106.845188,37.6199643 L100.345915,3.76317857 C99.9268023,1.58282143 98.0185764,0.000321428571 95.808191,0.000321428571 L80.4272076,0.000321428571 L64.6843439,0.000321428571 L48.5813771,0.000321428571 L32.8388688,0.000321428571 L17.4575299,0.000321428571 C15.2471445,0.000321428571 13.3389186,1.58282143 12.9198056,3.76389286 L6.42231063,37.6110357 C6.36578904,37.9021071 6.33699502,38.2010357 6.33699502,38.49925 C6.33699502,42.8828214 8.38137043,46.7935357 11.5597326,49.3271071 L11.5597326,64.1910357 L4.6214402,64.1910357 C2.07334718,64.1910357 0.000177740864,66.2738929 0.000177740864,68.8338929 C0.000177740864,71.3938929 2.07334718,73.47675 4.6214402,73.47675 L6.66937043,73.47675 L12.280294,93.8635357 C12.4797193,94.5888929 12.8479983,95.2328214 13.3328754,95.7624643 C13.1572674,96.3785357 13.0573771,97.02675 13.0573771,97.6988929 C13.0573771,101.585321 16.2048123,104.747107 20.072809,104.747107 C23.9411611,104.747107 27.0885963,101.585321 27.0885963,97.6988929 C27.0885963,97.5538929 27.075799,97.4128214 27.066912,97.2703214 L28.8532076,97.2703214 C28.8446761,97.4128214 28.8315233,97.5538929 28.8315233,97.6988929 C28.8315233,101.585321 31.9789585,104.747107 35.8469551,104.747107 C39.7153073,104.747107 42.8627425,101.585321 42.8627425,97.6988929 C42.8627425,97.03675 42.7646296,96.3981786 42.5939983,95.7903214 C43.2072043,95.1285357 43.6284502,94.2824643 43.7745532,93.3360357 L66.8072807,93.3360357 L89.2310681,93.3360357 L97.0847259,93.3360357 C99.6328189,93.3360357 101.705988,91.2531786 101.705988,88.6931786 L101.705988,49.3271071 C104.88435,46.7935357 106.928726,42.8828214 106.928726,38.49925 C106.928726,38.2010357 106.899932,37.9021071 106.845188,37.6199643" id="Fill-1" fill="#C2E5FF"></path>
                <mask id="mask-2" fill="white">
                    <use xlink:href="#path-1"></use>
                </mask>
                <g id="Clip-4"></g>
                <polygon id="Fill-3" fill="#FFFFFF" mask="url(#mask-2)" points="16.1808173 88.6932143 97.0845482 88.6932143 97.0845482 38.3046429 16.1808173 38.3046429"></polygon>
                <path d="M16.8921362,87.9789286 L96.3739402,87.9789286 L96.3739402,39.0189286 L16.8921362,39.0189286 L16.8921362,87.9789286 Z M97.0845482,89.4075 L16.1811728,89.4075 C15.7883654,89.4075 15.4702093,89.0875 15.4702093,88.6932143 L15.4702093,38.3042857 C15.4702093,37.91 15.7883654,37.59 16.1811728,37.59 L97.0845482,37.59 C97.4773555,37.59 97.7955116,37.91 97.7955116,38.3042857 L97.7955116,88.6932143 C97.7955116,89.0875 97.4773555,89.4075 97.0845482,89.4075 L97.0845482,89.4075 Z" id="Fill-5" fill="#5E91F0" mask="url(#mask-2)"></path>
                <polygon id="Fill-6" fill="#FFFFFF" mask="url(#mask-2)" points="66.8074585 88.6932143 89.2312458 88.6932143 89.2312458 57.9789286 66.8074585 57.9789286"></polygon>
                <path d="M67.5184219,87.9789286 L88.5202824,87.9789286 L88.5202824,58.6932143 L67.5184219,58.6932143 L67.5184219,87.9789286 Z M89.2312458,89.4075 L66.8074585,89.4075 C66.4146512,89.4075 66.096495,89.0875 66.096495,88.6932143 L66.096495,57.9789286 C66.096495,57.5842857 66.4146512,57.2646429 66.8074585,57.2646429 L89.2312458,57.2646429 C89.6236977,57.2646429 89.9422093,57.5842857 89.9422093,57.9789286 L89.9422093,88.6932143 C89.9422093,89.0875 89.6236977,89.4075 89.2312458,89.4075 L89.2312458,89.4075 Z" id="Fill-7" fill="#5E91F0" mask="url(#mask-2)"></path>
                <path d="M23.5872791,80.9192857 L58.7774817,80.9192857 L58.7774817,58.6932143 L23.5872791,58.6932143 L23.5872791,80.9192857 Z M59.4884452,82.3478571 L22.8763156,82.3478571 C22.4835083,82.3478571 22.1653522,82.0282143 22.1653522,81.6335714 L22.1653522,57.9789286 C22.1653522,57.5842857 22.4835083,57.2646429 22.8763156,57.2646429 L59.4884452,57.2646429 C59.880897,57.2646429 60.1994086,57.5842857 60.1994086,57.9789286 L60.1994086,81.6335714 C60.1994086,82.0282143 59.880897,82.3478571 59.4884452,82.3478571 L59.4884452,82.3478571 Z" id="Fill-8" fill="#448E28" mask="url(#mask-2)"></path>
                <path d="M20.0933914,47.6768214 L20.0930359,47.6768214 C15.0483947,47.6768214 10.9582219,43.5678929 10.9582219,38.4993214 L17.4574944,4.64289286 L32.8388332,4.64289286 L29.2282053,38.4993214 C29.2282053,43.5678929 25.1380326,47.6768214 20.0933914,47.6768214" id="Fill-9" fill="#FFFFFF" mask="url(#mask-2)"></path>
                <path d="M11.6694342,38.5662143 C11.7053379,43.2022857 15.4698894,46.9626429 20.0929292,46.9626429 L20.0932847,46.9626429 C24.7383645,46.9626429 28.5174907,43.1658571 28.5174907,38.4994286 C28.5174907,38.4737143 28.5185571,38.4483571 28.521401,38.4233571 L32.0477797,5.35728571 L18.0446435,5.35728571 L11.6694342,38.5662143 Z M20.0932847,48.3912143 C14.6643678,48.3912143 10.2471518,43.9537143 10.2471518,38.4994286 C10.2471518,38.4540714 10.2514176,38.4087143 10.2599492,38.3640714 L16.7592216,4.50764286 C16.8239193,4.17157143 17.1164807,3.92871429 17.4573877,3.92871429 L32.8390821,3.92871429 C33.0406402,3.92871429 33.2329558,4.01478571 33.3676834,4.1655 C33.5027664,4.31657143 33.5674641,4.51764286 33.5457797,4.71907143 L29.9394176,38.538 C29.9180887,43.9747857 25.5097598,48.3912143 20.0932847,48.3912143 L20.0932847,48.3912143 Z" id="Fill-10" fill="#5E91F0" mask="url(#mask-2)"></path>
                <path d="M38.363197,47.6768214 L38.363197,47.6768214 C33.3182003,47.6768214 29.2283831,43.5678929 29.2283831,38.4993214 L32.839011,4.64289286 L48.5811638,4.64289286 L47.498011,38.4993214 C47.498011,43.5678929 43.4078382,47.6768214 38.363197,47.6768214" id="Fill-11" fill="#FFFFFF" mask="url(#mask-2)"></path>
                <path d="M29.9392754,38.5365714 C29.9595379,43.1862143 33.7308435,46.9626429 38.3631259,46.9626429 C43.0082056,46.9626429 46.7873319,43.1658571 46.7873319,38.4994286 L47.8470229,5.35728571 L33.4777405,5.35728571 L29.9392754,38.5365714 Z M38.3631259,48.3912143 C32.934209,48.3912143 28.5173485,43.9537143 28.5173485,38.4994286 C28.5173485,38.4737143 28.5187704,38.4483571 28.5216143,38.4233571 L32.1322422,4.56692857 C32.1706342,4.20407143 32.4756375,3.92871429 32.8389399,3.92871429 L48.5810927,3.92871429 C48.7737638,3.92871429 48.9579033,4.00728571 49.0919199,4.14621429 C49.2259365,4.28514286 49.2980993,4.47264286 49.2917007,4.66621429 L48.2089033,38.5222857 C48.2092588,43.9537143 43.7923983,48.3912143 38.3631259,48.3912143 L38.3631259,48.3912143 Z" id="Fill-12" fill="#5E91F0" mask="url(#mask-2)"></path>
                <path d="M56.6330382,47.6768214 L56.6330382,47.6768214 C51.5880415,47.6768214 47.4982243,43.5678929 47.4982243,38.4993214 L48.5813771,4.64289286 L64.6843439,4.64289286 L65.7678522,38.4993214 C65.7678522,43.5678929 61.6780349,47.6768214 56.6330382,47.6768214" id="Fill-13" fill="#FFFFFF" mask="url(#mask-2)"></path>
                <path d="M49.2696252,5.35732143 L48.2088678,38.5223214 C48.2092233,43.1658929 51.987994,46.9626786 56.6330738,46.9626786 C61.277798,46.9626786 65.0569243,43.1658929 65.0569243,38.4991071 L63.9961668,5.35732143 L49.2696252,5.35732143 Z M56.6330738,48.39125 C51.2038013,48.39125 46.7872963,43.95375 46.7872963,38.4991071 L47.8704492,4.62017857 C47.8832465,4.23482143 48.1974924,3.92875 48.5810571,3.92875 L64.6843794,3.92875 C65.0679442,3.92875 65.3825455,4.23482143 65.3949874,4.62017857 L66.4784957,38.47625 C66.4788512,43.95375 62.0619907,48.39125 56.6330738,48.39125 L56.6330738,48.39125 Z" id="Fill-14" fill="#5E91F0" mask="url(#mask-2)"></path>
                <path d="M74.9028439,47.6768214 L74.9028439,47.6768214 C69.8578472,47.6768214 65.7680299,43.5678929 65.7680299,38.4993214 L64.6845216,4.64289286 L80.4270299,4.64289286 L84.0376578,38.4993214 C84.0376578,43.5678929 79.9478405,47.6768214 74.9028439,47.6768214" id="Fill-15" fill="#FFFFFF" mask="url(#mask-2)"></path>
                <path d="M65.418698,5.35732143 L66.478389,38.47625 C66.4787445,43.1658929 70.2578708,46.9626786 74.9029505,46.9626786 C79.5352329,46.9626786 83.3065385,43.1858929 83.326801,38.5366071 L79.7883359,5.35732143 L65.418698,5.35732143 Z M74.9029505,48.39125 C69.4736781,48.39125 65.0568176,43.95375 65.0568176,38.4991071 L63.9740203,4.66589286 C63.9676216,4.47267857 64.0397844,4.28517857 64.173801,4.14625 C64.3078176,4.00732143 64.4919571,3.92875 64.6846282,3.92875 L80.4271365,3.92875 C80.7904389,3.92875 81.0954422,4.20410714 81.1338342,4.56696429 L84.7444621,38.4230357 C84.747306,38.4483929 84.7487279,38.47375 84.7487279,38.4991071 C84.7487279,43.95375 80.3318674,48.39125 74.9029505,48.39125 L74.9029505,48.39125 Z" id="Fill-16" fill="#5E91F0" mask="url(#mask-2)"></path>
                <path d="M93.1726495,47.6768214 L93.1726495,47.6768214 C88.1276528,47.6768214 84.0378355,43.5678929 84.0378355,38.4993214 L80.4272076,4.64289286 L95.808191,4.64289286 L102.307463,38.4993214 C102.307463,43.5678929 98.2176462,47.6768214 93.1726495,47.6768214" id="Fill-17" fill="#FFFFFF" mask="url(#mask-2)"></path>
                <path d="M81.21819,5.35732143 L84.7445688,38.4230357 C84.7474126,38.4483929 84.7488346,38.47375 84.7488346,38.4991071 C84.7488346,43.1658929 88.5276053,46.9626786 93.172685,46.9626786 C97.7957249,46.9626786 101.560632,43.2023214 101.59618,38.56625 L95.2213262,5.35732143 L81.21819,5.35732143 Z M93.172685,48.39125 C87.7565654,48.39125 83.3478811,43.9744643 83.3269076,38.5380357 L79.72019,4.71910714 C79.6988611,4.51767857 79.7632033,4.31625 79.8982864,4.16553571 C80.033014,4.01482143 80.2253296,3.92875 80.4268877,3.92875 L95.8082266,3.92875 C96.1491336,3.92875 96.441695,4.17160714 96.5063927,4.50767857 L103.005665,38.36375 C103.014197,38.4083929 103.018462,38.45375 103.018462,38.4991071 C103.018462,43.95375 98.601602,48.39125 93.172685,48.39125 L93.172685,48.39125 Z" id="Fill-18" fill="#5E91F0" mask="url(#mask-2)"></path>
                <path d="M10.9581508,38.3044286 L102.307712,38.3044286" id="Fill-19" fill="#FFFFFF" mask="url(#mask-2)"></path>
                <path d="M102.30757,38.6615714 L10.9580086,38.6615714 C10.7617827,38.6615714 10.6025269,38.5015714 10.6025269,38.3044286 C10.6025269,38.1072857 10.7617827,37.9472857 10.9580086,37.9472857 L102.30757,37.9472857 C102.504151,37.9472857 102.663052,38.1072857 102.663052,38.3044286 C102.663052,38.5015714 102.504151,38.6615714 102.30757,38.6615714" id="Fill-20" fill="#5E91F0" mask="url(#mask-2)"></path>
                <path d="M78.01921,57.9788571 L78.01921,88.6931429" id="Fill-21" fill="#FFFFFF" mask="url(#mask-2)"></path>
                <path d="M78.01921,89.0502857 C77.8226286,89.0502857 77.6637282,88.8906429 77.6637282,88.6931429 L77.6637282,57.9788571 C77.6637282,57.7813571 77.8226286,57.6217143 78.01921,57.6217143 C78.2157914,57.6217143 78.3746917,57.7813571 78.3746917,57.9788571 L78.3746917,88.6931429 C78.3746917,88.8906429 78.2157914,89.0502857 78.01921,89.0502857" id="Fill-22" fill="#5E91F0" mask="url(#mask-2)"></path>
                <polygon id="Fill-23" fill="#FFFFFF" mask="url(#mask-2)" points="39.2123362 92.6273214 16.7348711 92.6273214 10.9216784 71.5044643 41.6342332 71.5044643"></polygon>
                <path d="M17.2759143,91.9130357 L38.5785123,91.9130357 L40.8368877,72.21875 L11.8558844,72.21875 L17.2759143,91.9130357 Z M39.2123362,93.3416071 L16.7348711,93.3416071 C16.4149375,93.3416071 16.1344625,93.1269643 16.0495023,92.8176786 L10.2363096,71.6951786 C10.1772997,71.4798214 10.2213794,71.2498214 10.3557515,71.0723214 C10.4904791,70.8944643 10.6995023,70.7901786 10.9216784,70.7901786 L41.6342332,70.7901786 C41.8372133,70.7901786 42.0302399,70.8773214 42.1653229,71.0291071 C42.3000505,71.18125 42.3636817,71.3841071 42.3409309,71.58625 L39.9186784,92.7091071 C39.877087,93.0694643 39.5735056,93.3416071 39.2123362,93.3416071 L39.2123362,93.3416071 Z" id="Fill-24" fill="#5E91F0" mask="url(#mask-2)"></path>
                <path d="M12.3519591,76.7016786 L41.0386236,76.7016786" id="Fill-25" fill="#FFFFFF" mask="url(#mask-2)"></path>
                <path d="M41.0386947,77.0588214 L12.3520302,77.0588214 C12.1554488,77.0588214 11.9965485,76.8991786 11.9965485,76.7016786 C11.9965485,76.5041786 12.1554488,76.3445357 12.3520302,76.3445357 L41.0386947,76.3445357 C41.2352761,76.3445357 41.3941764,76.5041786 41.3941764,76.7016786 C41.3941764,76.8991786 41.2352761,77.0588214 41.0386947,77.0588214" id="Fill-26" fill="#5E91F0" mask="url(#mask-2)"></path>
                <path d="M14.1234668,82.0978571 L40.3494867,82.0978571" id="Fill-27" fill="#FFFFFF" mask="url(#mask-2)"></path>
                <path d="M40.3495934,82.455 L14.1235734,82.455 C13.926992,82.455 13.7680917,82.2953571 13.7680917,82.0978571 C13.7680917,81.9003571 13.926992,81.7407143 14.1235734,81.7407143 L40.3495934,81.7407143 C40.5461748,81.7407143 40.7050751,81.9003571 40.7050751,82.0978571 C40.7050751,82.2953571 40.5461748,82.455 40.3495934,82.455" id="Fill-28" fill="#5E91F0" mask="url(#mask-2)"></path>
                <path d="M15.2860698,87.0926429 L39.7620532,87.0926429" id="Fill-29" fill="#FFFFFF" mask="url(#mask-2)"></path>
                <path d="M39.7618754,87.4497857 L15.285892,87.4497857 C15.0896661,87.4497857 14.9304103,87.2901429 14.9304103,87.0926429 C14.9304103,86.8951429 15.0896661,86.7355 15.285892,86.7355 L39.7618754,86.7355 C39.9584568,86.7355 40.1173571,86.8951429 40.1173571,87.0926429 C40.1173571,87.2901429 39.9584568,87.4497857 39.7618754,87.4497857" id="Fill-30" fill="#5E91F0" mask="url(#mask-2)"></path>
                <path d="M18.6190664,71.5046071 L21.0416744,92.3288929" id="Fill-31" fill="#FFFFFF" mask="url(#mask-2)"></path>
                <path d="M21.0414611,92.6858929 C20.8633648,92.6858929 20.7097967,92.5519643 20.6888233,92.3701786 L18.2658598,71.54625 C18.243109,71.3501786 18.3828133,71.1730357 18.5776173,71.1498214 C18.7752651,71.1269643 18.9494512,71.2676786 18.972202,71.4630357 L21.39481,92.2873214 C21.4179163,92.4833929 21.278212,92.6605357 21.0830525,92.6833929 C21.0691887,92.6851786 21.0549694,92.6858929 21.0414611,92.6858929" id="Fill-32" fill="#5E91F0" mask="url(#mask-2)"></path>
                <path d="M35.2076213,71.5046071 L33.3975083,92.6274643" id="Fill-33" fill="#FFFFFF" mask="url(#mask-2)"></path>
                <path d="M33.3979349,92.9844643 C33.3879814,92.9844643 33.3773169,92.9841071 33.367008,92.9830357 C33.171493,92.96625 33.0264565,92.7933929 33.0435196,92.5966071 L34.8536326,71.4741071 C34.8703402,71.2780357 35.0338618,71.1294643 35.2382638,71.14875 C35.4337787,71.1655357 35.5788153,71.33875 35.5617522,71.5351786 L33.7516392,92.6580357 C33.7356425,92.84375 33.5806525,92.9844643 33.3979349,92.9844643" id="Fill-34" fill="#5E91F0" mask="url(#mask-2)"></path>
                <path d="M27.2363701,71.5046071 L27.2363701,92.3288929" id="Fill-35" fill="#FFFFFF" mask="url(#mask-2)"></path>
                <path d="M27.2363701,92.6858929 C27.0397887,92.6858929 26.8808884,92.52625 26.8808884,92.32875 L26.8808884,71.5044643 C26.8808884,71.3073214 27.0397887,71.1473214 27.2363701,71.1473214 C27.4329515,71.1473214 27.5918518,71.3073214 27.5918518,71.5044643 L27.5918518,92.32875 C27.5918518,92.52625 27.4329515,92.6858929 27.2363701,92.6858929" id="Fill-36" fill="#5E91F0" mask="url(#mask-2)"></path>
                <path d="M10.9213585,72.21925 C10.6149332,72.21925 10.3319698,72.0185357 10.2402555,71.7081786 L9.60109934,69.5481786 L4.62115581,69.5481786 C4.22870399,69.5481786 3.91019236,69.2285357 3.91019236,68.8338929 C3.91019236,68.4396071 4.22870399,68.1196071 4.62115581,68.1196071 L10.1314781,68.1196071 C10.4460794,68.1196071 10.7233551,68.3278214 10.8129365,68.6303214 L11.6031724,71.3010357 C11.7147937,71.67925 11.5007937,72.0771071 11.1243385,72.18925 C11.056797,72.2096071 10.988189,72.21925 10.9213585,72.21925" id="Fill-37" fill="#5E91F0" mask="url(#mask-2)"></path>
                <path d="M23.1781551,97.6987857 C23.1781551,99.4216429 21.7878661,100.818429 20.0730223,100.818429 C18.3578229,100.818429 16.9675339,99.4216429 16.9675339,97.6987857 C16.9675339,95.9755714 18.3578229,94.5787857 20.0730223,94.5787857 C21.7878661,94.5787857 23.1781551,95.9755714 23.1781551,97.6987857" id="Fill-38" fill="#448E28" mask="url(#mask-2)"></path>
                <path d="M38.9523369,97.6987857 C38.9523369,99.4216429 37.5620478,100.818429 35.847204,100.818429 C34.1320047,100.818429 32.7417156,99.4216429 32.7417156,97.6987857 C32.7417156,95.9755714 34.1320047,94.5787857 35.847204,94.5787857 C37.5620478,94.5787857 38.9523369,95.9755714 38.9523369,97.6987857" id="Fill-39" fill="#448E28" mask="url(#mask-2)"></path>
            </g>
        </g>
    </g>
</svg>