<?xml version="1.0" encoding="UTF-8"?>
<svg width="119px" height="111px" viewBox="0 0 119 111" version="1.1" xmlns="http://www.w3.org/2000/svg" xmlns:xlink="http://www.w3.org/1999/xlink">
    <!-- Generator: Sketch 55.2 (78181) - https://sketchapp.com -->
    <title>Group 68</title>
    <desc>Created with Sketch.</desc>
    <defs>
        <polygon id="path-1" points="0.000274558304 0.346021908 118.953954 0.346021908 118.953954 110.607774 0.000274558304 110.607774"></polygon>
    </defs>
    <g id="New-Design" stroke="none" stroke-width="1" fill="none" fill-rule="evenodd">
        <g id="Solutions" transform="translate(-661.000000, -2809.000000)">
            <g id="Group-68" transform="translate(661.000000, 2809.000000)">
                <polygon id="Fill-1" fill="#C2E5FF" points="30.3736007 92.8128657 88.5807456 92.8128657 88.5807456 28.4218834 30.3736007 28.4218834"></polygon>
                <g id="Group-67" transform="translate(0.000000, 0.046283)">
                    <mask id="mask-2" fill="white">
                        <use xlink:href="#path-1"></use>
                    </mask>
                    <g id="Clip-3"></g>
                    <path d="M34.6880883,88.4520954 L84.266258,88.4520954 L84.266258,32.6904806 L34.6880883,32.6904806 L34.6880883,88.4520954 Z M88.5807456,97.0810707 L30.3736007,97.0810707 C27.9908269,97.0810707 26.0591131,95.1493569 26.0591131,92.766583 L26.0591131,28.3759929 C26.0591131,25.9932191 27.9908269,24.0615053 30.3736007,24.0615053 L88.5807456,24.0615053 C90.9635194,24.0615053 92.8952332,25.9932191 92.8952332,28.3759929 L92.8952332,92.766583 C92.8952332,95.1493569 90.9635194,97.0810707 88.5807456,97.0810707 L88.5807456,97.0810707 Z" id="Fill-2" fill="#C2E5FF" mask="url(#mask-2)"></path>
                    <path d="M31.158053,91.9821307 L87.7962933,91.9821307 L87.7962933,29.160053 L31.158053,29.160053 L31.158053,91.9821307 Z M88.5807456,93.5510353 L30.3736007,93.5510353 C29.9401908,93.5510353 29.5891484,93.1999929 29.5891484,92.766583 L29.5891484,28.3756007 C29.5891484,27.942583 29.9401908,27.5911484 30.3736007,27.5911484 L88.5807456,27.5911484 C89.0141555,27.5911484 89.3651979,27.942583 89.3651979,28.3756007 L89.3651979,92.766583 C89.3651979,93.1999929 89.0141555,93.5510353 88.5807456,93.5510353 L88.5807456,93.5510353 Z" id="Fill-4" fill="#C2E5FF" mask="url(#mask-2)"></path>
                    <path d="M35.4725406,87.6676431 L83.4818057,87.6676431 L83.4818057,33.4749329 L35.4725406,33.4749329 L35.4725406,87.6676431 Z M88.5807456,97.865523 L30.3736007,97.865523 C27.5621237,97.865523 25.2746608,95.5780601 25.2746608,92.766583 L25.2746608,28.3759929 C25.2746608,25.5641237 27.5621237,23.277053 30.3736007,23.277053 L88.5807456,23.277053 C91.3922226,23.277053 93.6796855,25.5641237 93.6796855,28.3759929 L93.6796855,92.766583 C93.6796855,95.5780601 91.3922226,97.865523 88.5807456,97.865523 L88.5807456,97.865523 Z" id="Fill-5" fill="#C2E5FF" mask="url(#mask-2)"></path>
                    <path d="M25.5806364,69.5747216 C25.5806364,75.2306226 20.9959049,79.8153541 15.3400039,79.8153541 C9.68410283,79.8153541 5.09897915,75.2306226 5.09897915,69.5747216 C5.09897915,63.9188205 9.68410283,59.334089 15.3400039,59.334089 C20.9959049,59.334089 25.5806364,63.9188205 25.5806364,69.5747216" id="Fill-6" fill="#C2E5FF" mask="url(#mask-2)"></path>
                    <path d="M15.339847,63.648812 C12.072211,63.648812 9.41370212,66.3073208 9.41370212,69.5749569 C9.41370212,72.8425929 12.072211,75.501494 15.339847,75.501494 C18.607483,75.501494 21.2659919,72.8425929 21.2659919,69.5749569 C21.2659919,66.3073208 18.607483,63.648812 15.339847,63.648812 M15.339847,84.1304693 C7.31411555,84.1304693 0.784726855,77.6006883 0.784726855,69.5749569 C0.784726855,61.5492254 7.31411555,55.0198367 15.339847,55.0198367 C23.3655784,55.0198367 29.8949671,61.5492254 29.8949671,69.5749569 C29.8949671,77.6006883 23.3655784,84.1304693 15.339847,84.1304693" id="Fill-7" fill="#C2E5FF" mask="url(#mask-2)"></path>
                    <path d="M15.339847,60.1183845 C10.1255926,60.1183845 5.88366678,64.3603102 5.88366678,69.5745647 C5.88366678,74.7888191 10.1255926,79.0311371 15.339847,79.0311371 C20.5541014,79.0311371 24.7960272,74.7888191 24.7960272,69.5745647 C24.7960272,64.3603102 20.5541014,60.1183845 15.339847,60.1183845 M15.339847,80.6000417 C9.2603417,80.6000417 4.31476219,75.65407 4.31476219,69.5745647 C4.31476219,63.4954516 9.2603417,58.5494799 15.339847,58.5494799 C21.4193523,58.5494799 26.3649318,63.4954516 26.3649318,69.5745647 C26.3649318,75.65407 21.4193523,80.6000417 15.339847,80.6000417" id="Fill-8" fill="#C2E5FF" mask="url(#mask-2)"></path>
                    <path d="M15.339847,64.4332643 C12.5044442,64.4332643 10.1981544,66.7399463 10.1981544,69.5745647 C10.1981544,72.4099675 12.5044442,74.7166495 15.339847,74.7166495 C18.1752498,74.7166495 20.4815396,72.4099675 20.4815396,69.5745647 C20.4815396,66.7399463 18.1752498,64.4332643 15.339847,64.4332643 M15.339847,84.9145293 C6.88149011,84.9145293 0.000274558304,78.0333138 0.000274558304,69.5745647 C0.000274558304,61.1166 6.88149011,54.2353845 15.339847,54.2353845 C23.7982039,54.2353845 30.6794194,61.1166 30.6794194,69.5745647 C30.6794194,78.0333138 23.7982039,84.9145293 15.339847,84.9145293" id="Fill-9" fill="#C2E5FF" mask="url(#mask-2)"></path>
                    <path d="M65.9270968,11.8948463 C65.9270968,15.4570442 63.0395279,18.3450053 59.47733,18.3450053 C55.9147399,18.3450053 53.0267788,15.4570442 53.0267788,11.8948463 C53.0267788,8.33264841 55.9147399,5.44507951 59.47733,5.44507951 C63.0395279,5.44507951 65.9270968,8.33264841 65.9270968,11.8948463" id="Fill-10" fill="#C2E5FF" mask="url(#mask-2)"></path>
                    <path d="M59.4771731,9.75944947 C58.2997102,9.75944947 57.341894,10.7172657 57.341894,11.8947286 C57.341894,13.0725837 58.2997102,14.0307922 59.4771731,14.0307922 C60.654636,14.0307922 61.6124523,13.0725837 61.6124523,11.8947286 C61.6124523,10.7172657 60.654636,9.75944947 59.4771731,9.75944947 M59.4771731,22.6597675 C53.5416148,22.6597675 48.7129187,17.8306792 48.7129187,11.8947286 C48.7129187,5.95956254 53.5416148,1.1304742 59.4771731,1.1304742 C65.4127314,1.1304742 70.2414276,5.95956254 70.2414276,11.8947286 C70.2414276,17.8306792 65.4127314,22.6597675 59.4771731,22.6597675" id="Fill-11" fill="#C2E5FF" mask="url(#mask-2)"></path>
                    <path d="M59.4771731,6.22941413 C56.3530919,6.22941413 53.8118587,8.77064735 53.8118587,11.8947286 C53.8118587,15.0188099 56.3530919,17.5608276 59.4771731,17.5608276 C62.6012544,17.5608276 65.1424876,15.0188099 65.1424876,11.8947286 C65.1424876,8.77064735 62.6012544,6.22941413 59.4771731,6.22941413 M59.4771731,19.1297322 C55.4882332,19.1297322 52.2429541,15.8840608 52.2429541,11.8947286 C52.2429541,7.90578869 55.4882332,4.66050954 59.4771731,4.66050954 C63.4661131,4.66050954 66.7113922,7.90578869 66.7113922,11.8947286 C66.7113922,15.8840608 63.4661131,19.1297322 59.4771731,19.1297322" id="Fill-12" fill="#C2E5FF" mask="url(#mask-2)"></path>
                    <path d="M59.4771731,10.5439018 C58.7323357,10.5439018 58.1263463,11.1502834 58.1263463,11.8951208 C58.1263463,12.6403505 58.7323357,13.2463399 59.4771731,13.2463399 C60.2220106,13.2463399 60.828,12.6403505 60.828,11.8951208 C60.828,11.1502834 60.2220106,10.5439018 59.4771731,10.5439018 M59.4771731,23.4442198 C53.1093816,23.4442198 47.9284664,18.2633046 47.9284664,11.8951208 C47.9284664,5.5269371 53.1093816,0.346021908 59.4771731,0.346021908 C65.8449647,0.346021908 71.0258799,5.5269371 71.0258799,11.8951208 C71.0258799,18.2633046 65.8449647,23.4442198 59.4771731,23.4442198" id="Fill-13" fill="#C2E5FF" mask="url(#mask-2)"></path>
                    <path d="M113.854896,69.5747216 C113.854896,75.2306226 109.270165,79.8153541 103.614264,79.8153541 C97.9583629,79.8153541 93.3732392,75.2306226 93.3732392,69.5747216 C93.3732392,63.9188205 97.9583629,59.334089 103.614264,59.334089 C109.270165,59.334089 113.854896,63.9188205 113.854896,69.5747216" id="Fill-14" fill="#C2E5FF" mask="url(#mask-2)"></path>
                    <path d="M103.614499,63.648812 C100.346863,63.648812 97.6883544,66.3073208 97.6883544,69.5749569 C97.6883544,72.8425929 100.346863,75.501494 103.614499,75.501494 C106.882135,75.501494 109.540644,72.8425929 109.540644,69.5749569 C109.540644,66.3073208 106.882135,63.648812 103.614499,63.648812 M103.614499,84.1304693 C95.5887678,84.1304693 89.0593792,77.6006883 89.0593792,69.5749569 C89.0593792,61.5492254 95.5887678,55.0198367 103.614499,55.0198367 C111.640231,55.0198367 118.169619,61.5492254 118.169619,69.5749569 C118.169619,77.6006883 111.640231,84.1304693 103.614499,84.1304693" id="Fill-15" fill="#C2E5FF" mask="url(#mask-2)"></path>
                    <path d="M103.614499,60.1183845 C98.4002449,60.1183845 94.1583191,64.3603102 94.1583191,69.5745647 C94.1583191,74.7888191 98.4002449,79.0311371 103.614499,79.0311371 C108.828754,79.0311371 113.07068,74.7888191 113.07068,69.5745647 C113.07068,64.3603102 108.828754,60.1183845 103.614499,60.1183845 M103.614499,80.6000417 C97.534994,80.6000417 92.5894145,75.65407 92.5894145,69.5745647 C92.5894145,63.4954516 97.534994,58.5494799 103.614499,58.5494799 C109.694005,58.5494799 114.639584,63.4954516 114.639584,69.5745647 C114.639584,75.65407 109.694005,80.6000417 103.614499,80.6000417" id="Fill-16" fill="#C2E5FF" mask="url(#mask-2)"></path>
                    <path d="M103.614499,64.4332643 C100.779096,64.4332643 98.4728067,66.7399463 98.4728067,69.5745647 C98.4728067,72.4099675 100.779096,74.7166495 103.614499,74.7166495 C106.449902,74.7166495 108.756192,72.4099675 108.756192,69.5745647 C108.756192,66.7399463 106.449902,64.4332643 103.614499,64.4332643 M103.614499,84.9145293 C95.1561424,84.9145293 88.2749269,78.0333138 88.2749269,69.5745647 C88.2749269,61.1166 95.1561424,54.2353845 103.614499,54.2353845 C112.072856,54.2353845 118.954072,61.1166 118.954072,69.5745647 C118.954072,78.0333138 112.072856,84.9145293 103.614499,84.9145293" id="Fill-17" fill="#C2E5FF" mask="url(#mask-2)"></path>
                    <polygon id="Fill-18" fill="#C2E5FF" mask="url(#mask-2)" points="15.3395724 105.508834 103.613989 105.508834 103.613989 35.4960742 15.3395724 35.4960742"></polygon>
                    <path d="M19.6544523,101.194346 L99.3002862,101.194346 L99.3002862,39.8105618 L19.6544523,39.8105618 L19.6544523,101.194346 Z M103.614382,109.823322 L15.3399647,109.823322 C12.9571908,109.823322 11.025477,107.892 11.025477,105.508834 L11.025477,35.4960742 C11.025477,33.1133004 12.9571908,31.1815866 15.3399647,31.1815866 L103.614382,31.1815866 C105.997155,31.1815866 107.928869,33.1133004 107.928869,35.4960742 L107.928869,105.508834 C107.928869,107.892 105.997155,109.823322 103.614382,109.823322 L103.614382,109.823322 Z" id="Fill-19" fill="#C2E5FF" mask="url(#mask-2)"></path>
                    <path d="M16.124417,104.724382 L102.830322,104.724382 L102.830322,36.2805265 L16.124417,36.2805265 L16.124417,104.724382 Z M103.614382,106.293286 L15.3399647,106.293286 C14.9065548,106.293286 14.5555124,105.942244 14.5555124,105.508834 L14.5555124,35.4960742 C14.5555124,35.0630565 14.9065548,34.7116219 15.3399647,34.7116219 L103.614382,34.7116219 C104.047792,34.7116219 104.398834,35.0630565 104.398834,35.4960742 L104.398834,105.508834 C104.398834,105.942244 104.047792,106.293286 103.614382,106.293286 L103.614382,106.293286 Z" id="Fill-20" fill="#C2E5FF" mask="url(#mask-2)"></path>
                    <path d="M20.4389046,100.409894 L98.5158339,100.409894 L98.5158339,40.5950141 L20.4389046,40.5950141 L20.4389046,100.409894 Z M103.614382,110.607774 L15.3399647,110.607774 C12.5284876,110.607774 10.2410247,108.320311 10.2410247,105.508834 L10.2410247,35.4960742 C10.2410247,32.6845972 12.5284876,30.3971343 15.3399647,30.3971343 L103.614382,30.3971343 C106.425859,30.3971343 108.713322,32.6845972 108.713322,35.4960742 L108.713322,105.508834 C108.713322,108.320311 106.425859,110.607774 103.614382,110.607774 L103.614382,110.607774 Z" id="Fill-21" fill="#C2E5FF" mask="url(#mask-2)"></path>
                    <path d="M59.4771731,28.3756399 L59.4771731,18.3452406" id="Fill-22" fill="#C2E5FF" mask="url(#mask-2)"></path>
                    <path d="M59.4771731,32.6905198 C57.0943993,32.6905198 55.1626855,30.758806 55.1626855,28.3760322 L55.1626855,18.3452406 C55.1626855,15.9624668 57.0943993,14.030753 59.4771731,14.030753 C61.859947,14.030753 63.7916608,15.9624668 63.7916608,18.3452406 L63.7916608,28.3760322 C63.7916608,30.758806 61.859947,32.6905198 59.4771731,32.6905198" id="Fill-23" fill="#C2E5FF" mask="url(#mask-2)"></path>
                    <path d="M59.4771731,29.1600922 C59.0441555,29.1600922 58.6927208,28.8086576 58.6927208,28.3756399 L58.6927208,18.3452406 C58.6927208,17.9118307 59.0441555,17.5607883 59.4771731,17.5607883 C59.9101908,17.5607883 60.2616254,17.9118307 60.2616254,18.3452406 L60.2616254,28.3756399 C60.2616254,28.8086576 59.9101908,29.1600922 59.4771731,29.1600922" id="Fill-24" fill="#C2E5FF" mask="url(#mask-2)"></path>
                    <path d="M59.4771731,33.4749721 C56.6656961,33.4749721 54.3782332,31.1875092 54.3782332,28.3760322 L54.3782332,18.3452406 C54.3782332,15.5337636 56.6656961,13.2463007 59.4771731,13.2463007 C62.2886502,13.2463007 64.5761131,15.5337636 64.5761131,18.3452406 L64.5761131,28.3760322 C64.5761131,31.1875092 62.2886502,33.4749721 59.4771731,33.4749721" id="Fill-25" fill="#C2E5FF" mask="url(#mask-2)"></path>
                    <path d="M73.8286887,86.5170477 L71.0266251,89.0068993 L76.881777,89.0068993 L76.8080385,87.7502067 C75.7784449,87.424659 74.7798371,87.0120371 73.8286887,86.5170477" id="Fill-26" fill="#C2E5FF" mask="url(#mask-2)"></path>
                    <path d="M76.8822085,93.32123 L71.0270565,93.32123 C69.2357597,93.32123 67.6307703,92.2143678 66.9941873,90.5395622 C66.3576042,88.8651488 66.8223922,86.9714809 68.1614523,85.7814668 L70.9627314,83.2923996 C72.3002226,82.10317 74.2323286,81.8643042 75.8188834,82.6895481 C76.5472473,83.0680463 77.3167951,83.3865339 78.1059541,83.6355975 C79.81253,84.1737318 81.009212,85.7092972 81.1147208,87.4951028 L81.1888516,88.7521876 C81.2590601,89.9386717 80.8370247,91.10123 80.0219788,91.9660887 C79.2065406,92.8309473 78.0706537,93.32123 76.8822085,93.32123" id="Fill-27" fill="#C2E5FF" mask="url(#mask-2)"></path>
                    <path d="M74.8651463,69.9669477 C74.8651463,74.1378806 78.2582947,77.5306367 82.4292276,77.5306367 C83.2246622,77.5306367 83.9918565,77.4059088 84.7127682,77.1768488 L84.7127682,62.7574389 C83.9918565,62.5283788 83.2246622,62.4032587 82.4292276,62.4032587 C78.2582947,62.4032587 74.8651463,65.7964071 74.8651463,69.9669477" id="Fill-28" fill="#C2E5FF" mask="url(#mask-2)"></path>
                    <path d="M80.3984767,67.4323823 C79.6556004,68.0285661 79.17983,68.9436297 79.17983,69.9673399 C79.17983,70.9910502 79.6556004,71.9061138 80.3984767,72.5022975 L80.3984767,67.4323823 Z M82.4294237,81.8455166 C75.8796392,81.8455166 70.5508548,76.5171244 70.5508548,69.9673399 C70.5508548,63.4175555 75.8796392,58.0891633 82.4294237,58.0891633 C83.6472859,58.0891633 84.854558,58.2758629 86.0175085,58.6449477 C87.809982,59.2136756 89.0274519,60.8771067 89.0274519,62.7574389 L89.0274519,77.1768488 C89.0274519,79.0563965 87.8103742,80.7194353 86.0194696,81.2885555 C84.8565191,81.6584247 83.6484625,81.8455166 82.4294237,81.8455166 L82.4294237,81.8455166 Z" id="Fill-29" fill="#C2E5FF" mask="url(#mask-2)"></path>
                    <path d="M61.200458,83.8323382 L65.8793237,78.5674866 C65.3843343,77.6163382 64.9709279,76.6177304 64.6461647,75.5881367 L57.613942,75.1735537 C57.2554473,75.1523735 56.9757901,74.8550661 56.9757901,74.4957869 L56.9757901,65.4381085 C56.9757901,65.0788293 57.2554473,64.7819141 57.613942,64.7607339 L64.6461647,64.3457587 C64.9709279,63.3157728 65.3843343,62.317165 65.8793237,61.3668011 L61.200458,56.1015572 C60.9619845,55.8328823 60.9737512,55.4249671 61.2279138,55.1708046 L65.4718007,50.9273099 L35.0260304,50.9273099 L35.0260304,89.0065855 L65.4718007,89.0065855 L61.2279138,84.7630908 C60.9737512,84.5093205 60.9619845,84.1010131 61.200458,83.8323382" id="Fill-30" fill="#C2E5FF" mask="url(#mask-2)"></path>
                    <path d="M39.3403611,84.6922548 L56.7336297,84.6922548 C56.6261597,83.3771205 57.036036,82.0247247 57.9734565,80.9684597 L57.9754177,80.9664986 L59.1995555,79.5890004 L57.3600148,79.4803537 C54.725824,79.3254244 52.6611456,77.136018 52.6611456,74.496336 L52.6611456,65.4382654 C52.6611456,62.7981912 54.725824,60.6087848 57.3607993,60.4534633 L59.1995555,60.3452088 L57.9754177,58.9677106 C57.0364283,57.9110534 56.6253753,56.5582654 56.7336297,55.2419544 L39.3403611,55.2419544 L39.3403611,84.6922548 Z M65.4716438,93.32123 L35.0258735,93.32123 C32.6430996,93.32123 30.7113859,91.3895163 30.7113859,89.0067424 L30.7113859,50.9274668 C30.7113859,48.5446929 32.6430996,46.6129792 35.0258735,46.6129792 L65.4716438,46.6129792 C67.216658,46.6129792 68.789877,47.6641452 69.4578382,49.2761947 C70.1254071,50.8882442 69.7563223,52.7442583 68.5223788,53.9782018 L66.7028417,55.7981311 L69.1044424,58.5009615 C70.2928876,59.8384527 70.5325378,61.7709509 69.7065095,63.3578979 C69.3284035,64.0850852 69.0107004,64.8538484 68.7612445,65.6437919 C68.2231102,67.3503678 66.6871527,68.547442 64.9005625,68.6525587 L61.2901208,68.8655375 L61.2901208,71.0686717 L64.9005625,71.2816505 C66.6871527,71.3867671 68.2231102,72.5838413 68.7612445,74.2900251 C69.0107004,75.0803608 69.3284035,75.8495163 69.7065095,76.5763113 C70.5325378,78.1632583 70.2928876,80.0957565 69.1044424,81.4332477 L66.7028417,84.1360781 L68.5223788,85.9560074 C69.7563223,87.1899509 70.1254071,89.0455728 69.4578382,90.6580145 C68.789877,92.270064 67.216658,93.32123 65.4716438,93.32123 L65.4716438,93.32123 Z" id="Fill-31" fill="#C2E5FF" mask="url(#mask-2)"></path>
                    <path d="M76.8079208,52.1842378 L76.8816594,50.9275452 L71.0268996,50.9275452 L73.828571,53.4170046 C74.7797194,52.9224074 75.7783272,52.5090011 76.8079208,52.1842378" id="Fill-32" fill="#C2E5FF" mask="url(#mask-2)"></path>
                    <path d="M73.8294339,57.7316883 C72.7951336,57.7316883 71.7706389,57.3602502 70.962653,56.6424763 L68.1609816,54.1526247 C66.8219216,52.9630028 66.3571336,51.069335 66.9937166,49.3945293 C67.6302996,47.7201159 69.235289,46.6128615 71.0265859,46.6128615 L76.88213,46.6128615 C78.0705753,46.6128615 79.2064622,47.1031442 80.0219004,47.9680028 C80.8369463,48.8328615 81.2593739,49.9954198 81.1891654,51.1822961 L81.1146424,52.4389887 C81.0095258,54.2247943 79.8124516,55.7599675 78.1066601,56.298494 C77.3167166,56.5479498 76.5471689,56.8664375 75.8195894,57.2449357 C75.1912431,57.5716601 74.5079852,57.7316883 73.8294339,57.7316883" id="Fill-33" fill="#C2E5FF" mask="url(#mask-2)"></path>
                    <path d="M74.0611611,85.1013466 C75.1884191,85.7261629 76.3941223,86.2250746 77.6449314,86.5843537 C77.9214509,86.6639756 78.117564,86.9095092 78.1344297,87.197011 L78.2415074,89.0067424 L84.7128466,89.0067424 L84.7128466,78.5903926 C83.9836982,78.7841523 83.218465,78.8880922 82.429306,78.8880922 C77.5100057,78.8880922 73.5081223,74.8862088 73.5081223,69.9669085 C73.5081223,65.0480004 77.5100057,61.046117 82.429306,61.046117 C83.218465,61.046117 83.9836982,61.1504491 84.7128466,61.3434244 L84.7128466,50.9274668 L78.2415074,50.9274668 L78.1344297,52.736806 C78.117564,53.0247 77.9214509,53.2698413 77.6449314,53.3494633 C76.39373,53.7091346 75.1884191,54.2076541 74.0611611,54.8324703 C73.8101364,54.9724951 73.4975322,54.9379792 73.2818078,54.7461806 L68.9834014,50.9274668 L67.3913555,50.9274668 L62.6399279,55.6781099 L67.2085781,60.8194102 C67.3999845,61.0347424 67.4345004,61.3469544 67.2948678,61.5991558 C66.6700516,62.7256293 66.1711399,63.9317247 65.8114686,65.1825339 C65.7322389,65.4594456 65.4867053,65.6559509 65.1992035,65.6728166 L58.3325004,66.0779862 L58.3325004,73.856223 L65.1992035,74.2610004 C65.4867053,74.2778661 65.7322389,74.4743714 65.8114686,74.751283 C66.1711399,76.0020922 66.6700516,77.2077954 67.2948678,78.3350534 C67.4345004,78.5872548 67.3999845,78.8990746 67.2085781,79.1147989 L62.6399279,84.2557071 L67.3913555,89.0067424 L68.9834014,89.0067424 L73.2818078,85.1876364 C73.4975322,84.99623 73.8101364,84.9624986 74.0611611,85.1013466" id="Fill-34" fill="#C2E5FF" mask="url(#mask-2)"></path>
                    <path d="M80.3982806,56.7312763 C80.2994396,56.8038382 80.1970686,56.87287 80.0919519,56.9379795 C80.1939307,56.9199371 80.2959095,56.9026792 80.3982806,56.8869901 L80.3982806,56.7312763 Z M70.5435986,58.0813187 C71.5575032,59.3042799 71.9148212,60.9202516 71.5586799,62.4236544 C72.4608,61.1281314 73.5888424,60.000089 74.8843654,59.0979689 C73.381747,59.4529336 71.7661675,59.0956155 70.5435986,58.0813187 L70.5435986,58.0813187 Z M65.6207682,69.9669477 C67.1943795,70.1124636 68.5859979,70.9965413 69.3998671,72.3038311 C69.2645491,71.5452657 69.1935562,70.7639512 69.1935562,69.9673399 C69.1935562,69.1695519 69.2645491,68.3886297 69.4002594,67.6292799 C68.5859979,68.9373541 67.195164,69.8214318 65.6207682,69.9669477 L65.6207682,69.9669477 Z M71.5590721,77.5110254 C71.9152134,79.0148205 71.5575032,80.6315767 70.5432064,81.8541456 C71.7669519,80.8398488 73.3848848,80.4833152 74.8867187,80.8378876 C73.5900191,79.9357675 72.4615845,78.8073329 71.5590721,77.5110254 L71.5590721,77.5110254 Z M80.0943053,82.9967004 C80.1982452,83.0614177 80.2998318,83.129665 80.3982806,83.2018346 L80.3982806,83.0472975 C80.2970862,83.0316085 80.1951074,83.0147428 80.0943053,82.9967004 L80.0943053,82.9967004 Z M84.7127682,93.3212693 L78.241429,93.3212693 C76.2932417,93.3212693 74.6325562,92.0253541 74.1034431,90.2293505 L71.8489272,92.2324495 C71.059376,92.9337498 70.039588,93.3212693 68.983323,93.3212693 L67.391277,93.3212693 C66.2471534,93.3212693 65.1500968,92.8666792 64.340542,92.0575166 L59.5895067,87.3068735 C57.9743194,85.6916862 57.8978353,83.0975025 59.4149661,81.390142 L62.0730827,78.3990254 L58.0782594,78.1629053 C55.798641,78.028764 54.0183265,76.1401951 54.0183265,73.8562622 L54.0183265,66.0780254 C54.0183265,63.7940926 55.798641,61.9055237 58.0782594,61.7709901 L62.0730827,61.5352622 L59.4149661,58.5445378 C57.8978353,56.8367852 57.9743194,54.2426014 59.5895067,52.6274141 L64.340542,47.876771 C65.1500968,47.0672163 66.2471534,46.6130184 67.391277,46.6130184 L68.983323,46.6130184 C70.039588,46.6130184 71.059376,47.0001456 71.8489272,47.7018382 L74.1034431,49.7049371 C74.632164,47.9085413 76.2932417,46.6130184 78.241429,46.6130184 L84.7127682,46.6130184 C87.0959343,46.6130184 89.0272558,48.5447322 89.0272558,50.927506 L89.0272558,61.3438558 C89.0272558,62.6833081 88.4055774,63.9462763 87.3438212,64.7632834 C86.2824572,65.579506 84.9026057,65.8568099 83.6066905,65.5140042 C83.2230933,65.4124177 82.8269449,65.3606438 82.4292276,65.3606438 C79.889171,65.3606438 77.8225314,67.4268912 77.8225314,69.9673399 C77.8225314,72.5070042 79.889171,74.5736438 82.4292276,74.5736438 C82.8269449,74.5736438 83.22427,74.52187 83.6090438,74.4198912 C84.9041746,74.0766933 86.2836339,74.3555661 87.3446057,75.1717887 C88.4059696,75.9884035 89.0272558,77.251764 89.0272558,78.590824 L89.0272558,89.0067816 C89.0272558,91.3895555 87.0959343,93.3212693 84.7127682,93.3212693 L84.7127682,93.3212693 Z" id="Fill-35" fill="#C2E5FF" mask="url(#mask-2)"></path>
                    <path d="M67.2086958,79.1149166 C67.3997099,78.8991922 67.434618,78.5869802 67.2949855,78.335171 C66.6701693,77.2079131 66.1708654,76.0018177 65.811194,74.7514007 C65.7319643,74.474489 65.4864307,74.2779837 65.1993212,74.261118 L58.332618,73.8563406 L58.332618,66.0781039 L65.1993212,65.6729343 C65.4864307,65.6560686 65.7319643,65.4595633 65.811194,65.1826516 C66.1708654,63.9318424 66.6701693,62.725747 67.2949855,61.5992735 C67.434618,61.3470721 67.3997099,61.0344678 67.2086958,60.8191357 L62.6400456,55.6782276 L67.3914731,50.9275845 L65.4715261,50.9275845 L61.2280314,55.1706869 C60.9738689,55.4252417 60.9617099,55.8331569 61.2005756,56.1014396 L65.8790491,61.3666834 C65.3844519,62.3174396 64.9710456,63.3160473 64.6462823,64.3460332 L57.6140597,64.7606163 C57.255565,64.7817965 56.9755155,65.0791039 56.9755155,65.4379908 L56.9755155,74.4960615 C56.9755155,74.8553406 57.255565,75.1522558 57.6140597,75.173436 L64.6462823,75.5884113 C64.9710456,76.6180049 65.3844519,77.6166127 65.8790491,78.5673689 L61.2005756,83.8322205 C60.9617099,84.1008954 60.9738689,84.5092028 61.2280314,84.7629731 L65.4715261,89.0068601 L67.3914731,89.0068601 L62.6400456,84.2554325 L67.2086958,79.1149166 Z" id="Fill-36" fill="#C2E5FF" mask="url(#mask-2)"></path>
                    <path d="M67.3913947,93.32123 L65.4714477,93.32123 C64.327324,93.32123 63.2302675,92.8666399 62.4207127,92.0574774 L58.177218,87.8139827 C56.3117905,85.9485551 56.2219707,82.9417495 57.9732604,80.9684597 L59.1993594,79.5890004 L57.360211,79.4803537 C54.7256279,79.3254244 52.6609495,77.136018 52.6609495,74.496336 L52.6609495,65.4382654 C52.6609495,62.7981912 54.7256279,60.6087848 57.3609954,60.4534633 L59.1993594,60.3452088 L57.9752216,58.9677106 C56.2219707,56.9948131 56.3106138,53.9868307 58.177218,52.1202265 L62.4207127,47.8767318 C63.2302675,47.067177 64.327324,46.6129792 65.4714477,46.6129792 L67.3913947,46.6129792 C69.1364088,46.6129792 70.7096279,47.6641452 71.377589,49.2761947 C72.045158,50.8882442 71.6760731,52.7442583 70.4421297,53.9782018 L68.5672887,55.8530428 L70.4338929,57.9534138 C71.8396314,59.5364385 72.093794,61.842336 71.0677304,63.6920746 C70.6013735,64.5333996 70.227582,65.435912 69.9585148,66.3737247 C69.388218,68.3540746 67.6581085,69.7786399 65.6204936,69.9669085 C67.6569318,70.155177 69.388218,71.5797424 69.9577304,73.5569544 C70.227582,74.4982972 70.6013735,75.4008095 71.0681226,76.2433113 C72.093794,78.0918731 71.8396314,80.3977707 70.4350696,81.9796187 L70.4338929,81.9807954 L68.5672887,84.0811664 L70.4421297,85.9560074 C71.6760731,87.1895587 72.045158,89.0455728 71.377589,90.6576223 C70.7096279,92.270064 69.1364088,93.32123 67.3913947,93.32123" id="Fill-37" fill="#C2E5FF" mask="url(#mask-2)"></path>
                    <path d="M73.508083,69.9669477 C73.508083,74.8862481 77.5099664,78.8881314 82.4292668,78.8881314 C83.2184258,78.8881314 83.983659,78.7837993 84.7128074,78.5904318 L84.7128074,77.1768488 C83.9918958,77.4059088 83.2247014,77.5306367 82.4292668,77.5306367 C78.2583339,77.5306367 74.8651855,74.1378806 74.8651855,69.9669477 C74.8651855,65.7964071 78.2583339,62.4032587 82.4292668,62.4032587 C83.2247014,62.4032587 83.9918958,62.5283788 84.7128074,62.7574389 L84.7128074,61.3434636 C83.983659,61.1500961 83.2184258,61.0461562 82.4292668,61.0461562 C77.5099664,61.0461562 73.508083,65.0480396 73.508083,69.9669477" id="Fill-38" fill="#C2E5FF" mask="url(#mask-2)"></path>
                    <path d="M82.429306,83.2026583 C75.1311541,83.2026583 69.1936346,77.2651389 69.1936346,69.9673792 C69.1936346,62.668835 75.1311541,56.7317078 82.429306,56.7317078 C83.5734297,56.7317078 84.7136311,56.8803615 85.8193166,57.1733544 C87.7106311,57.6750117 89.0273343,59.3866866 89.0273343,61.3438951 L89.0273343,62.7574781 C89.0273343,64.1334074 88.3711399,65.426577 87.2611399,66.2392696 C86.1507477,67.05157 84.7202989,67.2869057 83.4083025,66.8699693 C83.0905993,66.7691671 82.7611293,66.7181777 82.429306,66.7181777 C80.637617,66.7181777 79.1797124,68.1752979 79.1797124,69.9673792 C79.1797124,71.7590682 80.637617,73.2165806 82.429306,73.2165806 C82.7611293,73.2165806 83.0898148,73.1655912 83.4063413,73.064789 C84.7191223,72.6482449 86.1499633,72.8820117 87.2599633,73.6947042 C88.3707477,74.5070046 89.0273343,75.8005664 89.0273343,77.176888 L89.0273343,78.5908633 C89.0273343,80.548464 87.7094544,82.2609233 85.8169633,82.7617961 C84.71167,83.0543968 83.5718608,83.2026583 82.429306,83.2026583" id="Fill-39" fill="#C2E5FF" mask="url(#mask-2)"></path>
                    <path d="M74.0611611,54.8325095 C75.1884191,54.2076933 76.39373,53.7091739 77.6449314,53.3495025 C77.9214509,53.2698806 78.117564,53.0247392 78.1344297,52.7368452 L78.2415074,50.927506 L76.8816594,50.927506 L76.8079208,52.1841986 C75.7783272,52.5089618 74.7797194,52.9223682 73.828571,53.4169654 L71.0268996,50.927506 L68.9834014,50.927506 L73.2818078,54.7462198 C73.4975322,54.9380184 73.8101364,54.972142 74.0611611,54.8325095" id="Fill-40" fill="#C2E5FF" mask="url(#mask-2)"></path>
                    <path d="M73.7356134,59.2308943 C72.5397159,59.2308943 71.3532318,58.8029756 70.4185569,57.9738095 L66.1177972,54.1527424 C64.7783449,52.9631205 64.3139491,51.0690604 64.9505322,49.394647 C65.586723,47.7198413 67.1917124,46.6129792 68.9834014,46.6129792 L71.0268996,46.6129792 C72.0831647,46.6129792 73.1029527,47.0004986 73.8925039,47.7017989 L73.9552601,47.7578873 C74.7259845,47.0456046 75.7559703,46.6129792 76.8820516,46.6129792 L78.2415074,46.6129792 C79.4303449,46.6129792 80.5658396,47.1032618 81.3808855,47.9677283 C82.1963237,48.8325869 82.618359,49.9955375 82.5485428,51.1820216 L82.441465,52.9913608 C82.318306,55.1003608 80.8694226,56.9112689 78.8376912,57.4956859 C77.899094,57.7655375 76.9965816,58.1389367 76.1540799,58.6056859 C75.3970834,59.0257601 74.5639951,59.2308943 73.7356134,59.2308943" id="Fill-41" fill="#C2E5FF" mask="url(#mask-2)"></path>
                    <path d="M78.2415859,89.0067424 L78.1345081,87.197011 C78.1176424,86.9095092 77.9215293,86.6639756 77.6450099,86.5843537 C76.3942007,86.2250746 75.1884975,85.7261629 74.0612396,85.1013466 C73.8102148,84.9621064 73.4972184,84.99623 73.281494,85.1876364 L68.9834799,89.0067424 L71.0265859,89.0067424 L73.8286495,86.5168908 C74.7797979,87.0118802 75.7784057,87.4248943 76.8079993,87.7500498 L76.8817378,89.0067424 L78.2415859,89.0067424 Z" id="Fill-42" fill="#C2E5FF" mask="url(#mask-2)"></path>
                    <path d="M78.2415074,93.3210731 L76.8820516,93.3210731 C75.7559703,93.3210731 74.7259845,92.8884477 73.9552601,92.1765572 L73.8928961,92.2318611 C73.1033449,92.9335537 72.0835569,93.3210731 71.0272919,93.3210731 L68.9834014,93.3210731 C67.1917124,93.3210731 65.586723,92.214211 64.9505322,90.5397975 C64.3135569,88.8649919 64.7783449,86.971324 66.1177972,85.7813099 L70.4162035,81.9622039 C71.9980516,80.5603876 74.2996346,80.3046562 76.1458431,81.3240519 C76.9950127,81.7947233 77.8975251,82.1681226 78.8372989,82.4383664 C80.8674615,83.0196456 82.3179138,84.8309459 82.4418572,86.9442604 L82.5485428,88.752423 C82.618359,89.9385148 82.1963237,91.1014654 81.3808855,91.966324 C80.5658396,92.8307905 79.4299527,93.3210731 78.2415074,93.3210731" id="Fill-43" fill="#C2E5FF" mask="url(#mask-2)"></path>
                    <path d="M71.026782,89.0067424 L68.9832837,89.0067424 L67.3912378,89.0067424 L65.471683,89.0067424 L35.0259127,89.0067424 L35.0259127,50.9274668 L65.471683,50.9274668 L67.3912378,50.9274668 L68.9832837,50.9274668 L71.026782,50.9274668 L76.8819339,50.9274668 L78.241782,50.9274668 L84.7131212,50.9274668 L84.7131212,61.3434244 L84.7131212,62.7573996 L84.7131212,77.1768095 L84.7131212,78.5903926 L84.7131212,89.0067424 L78.241782,89.0067424 L76.8819339,89.0067424 L71.026782,89.0067424 Z M78.3343473,90.575647 L85.4975735,90.575647 C85.9305912,90.575647 86.2820258,90.2242124 86.2820258,89.7911947 L86.2820258,78.0126435 L86.2820258,76.4641346 L86.2820258,63.4696823 L86.2820258,61.9215657 L86.2820258,50.1430145 C86.2820258,49.7099968 85.9305912,49.3585622 85.4975735,49.3585622 L78.3343473,49.3585622 L76.9744993,49.3585622 L69.2609799,49.3585622 L67.0409799,49.3585622 L34.2414604,49.3585622 C33.8080505,49.3585622 33.4570081,49.7099968 33.4570081,50.1430145 L33.4570081,89.7911947 C33.4570081,90.2242124 33.8080505,90.575647 34.2414604,90.575647 L67.0409799,90.575647 L69.2609799,90.575647 L76.9744993,90.575647 L78.3343473,90.575647 Z" id="Fill-44" fill="#C2E5FF" mask="url(#mask-2)"></path>
                    <path d="M39.3402827,84.6922155 L80.3985159,84.6922155 L80.3985159,55.2419152 L39.3402827,55.2419152 L39.3402827,84.6922155 Z M85.4974558,94.8900954 L34.2413428,94.8900954 C31.4298657,94.8900954 29.1424028,92.6026325 29.1424028,89.7911555 L29.1424028,50.1429753 C29.1424028,47.331106 31.4298657,45.0440353 34.2413428,45.0440353 L85.4974558,45.0440353 C88.3089329,45.0440353 90.5963958,47.331106 90.5963958,50.1429753 L90.5963958,89.7911555 C90.5963958,92.6026325 88.3089329,94.8900954 85.4974558,94.8900954 L85.4974558,94.8900954 Z" id="Fill-45" fill="#C2E5FF" mask="url(#mask-2)"></path>
                    <polygon id="Fill-46" fill="#FFFFFF" mask="url(#mask-2)" points="30.3736007 92.766583 88.5807456 92.766583 88.5807456 28.3756007 30.3736007 28.3756007"></polygon>
                    <path d="M31.158053,91.9821307 L87.7962933,91.9821307 L87.7962933,29.160053 L31.158053,29.160053 L31.158053,91.9821307 Z M88.5807456,93.5510353 L30.3736007,93.5510353 C29.9401908,93.5510353 29.5891484,93.1999929 29.5891484,92.766583 L29.5891484,28.3756007 C29.5891484,27.942583 29.9401908,27.5911484 30.3736007,27.5911484 L88.5807456,27.5911484 C89.0141555,27.5911484 89.3651979,27.942583 89.3651979,28.3756007 L89.3651979,92.766583 C89.3651979,93.1999929 89.0141555,93.5510353 88.5807456,93.5510353 L88.5807456,93.5510353 Z" id="Fill-47" fill="#5E91F0" mask="url(#mask-2)"></path>
                    <path d="M25.5806364,69.5747216 C25.5806364,75.2306226 20.9959049,79.8153541 15.3400039,79.8153541 C9.68410283,79.8153541 5.09897915,75.2306226 5.09897915,69.5747216 C5.09897915,63.9188205 9.68410283,59.334089 15.3400039,59.334089 C20.9959049,59.334089 25.5806364,63.9188205 25.5806364,69.5747216" id="Fill-48" fill="#FFFFFF" mask="url(#mask-2)"></path>
                    <path d="M15.339847,60.1183845 C10.1255926,60.1183845 5.88366678,64.3603102 5.88366678,69.5745647 C5.88366678,74.7888191 10.1255926,79.0311371 15.339847,79.0311371 C20.5541014,79.0311371 24.7960272,74.7888191 24.7960272,69.5745647 C24.7960272,64.3603102 20.5541014,60.1183845 15.339847,60.1183845 M15.339847,80.6000417 C9.2603417,80.6000417 4.31476219,75.65407 4.31476219,69.5745647 C4.31476219,63.4954516 9.2603417,58.5494799 15.339847,58.5494799 C21.4193523,58.5494799 26.3649318,63.4954516 26.3649318,69.5745647 C26.3649318,75.65407 21.4193523,80.6000417 15.339847,80.6000417" id="Fill-49" fill="#5E91F0" mask="url(#mask-2)"></path>
                    <path d="M65.9270968,11.8948463 C65.9270968,15.4570442 63.0395279,18.3450053 59.47733,18.3450053 C55.9147399,18.3450053 53.0267788,15.4570442 53.0267788,11.8948463 C53.0267788,8.33264841 55.9147399,5.44507951 59.47733,5.44507951 C63.0395279,5.44507951 65.9270968,8.33264841 65.9270968,11.8948463" id="Fill-50" fill="#FFFFFF" mask="url(#mask-2)"></path>
                    <path d="M59.4771731,6.22941413 C56.3530919,6.22941413 53.8118587,8.77064735 53.8118587,11.8947286 C53.8118587,15.0188099 56.3530919,17.5608276 59.4771731,17.5608276 C62.6012544,17.5608276 65.1424876,15.0188099 65.1424876,11.8947286 C65.1424876,8.77064735 62.6012544,6.22941413 59.4771731,6.22941413 M59.4771731,19.1297322 C55.4882332,19.1297322 52.2429541,15.8840608 52.2429541,11.8947286 C52.2429541,7.90578869 55.4882332,4.66050954 59.4771731,4.66050954 C63.4661131,4.66050954 66.7113922,7.90578869 66.7113922,11.8947286 C66.7113922,15.8840608 63.4661131,19.1297322 59.4771731,19.1297322" id="Fill-51" fill="#5E91F0" mask="url(#mask-2)"></path>
                    <path d="M113.854896,69.5747216 C113.854896,75.2306226 109.270165,79.8153541 103.614264,79.8153541 C97.9583629,79.8153541 93.3732392,75.2306226 93.3732392,69.5747216 C93.3732392,63.9188205 97.9583629,59.334089 103.614264,59.334089 C109.270165,59.334089 113.854896,63.9188205 113.854896,69.5747216" id="Fill-52" fill="#FFFFFF" mask="url(#mask-2)"></path>
                    <path d="M103.614499,60.1183845 C98.4002449,60.1183845 94.1583191,64.3603102 94.1583191,69.5745647 C94.1583191,74.7888191 98.4002449,79.0311371 103.614499,79.0311371 C108.828754,79.0311371 113.07068,74.7888191 113.07068,69.5745647 C113.07068,64.3603102 108.828754,60.1183845 103.614499,60.1183845 M103.614499,80.6000417 C97.534994,80.6000417 92.5894145,75.65407 92.5894145,69.5745647 C92.5894145,63.4954516 97.534994,58.5494799 103.614499,58.5494799 C109.694005,58.5494799 114.639584,63.4954516 114.639584,69.5745647 C114.639584,75.65407 109.694005,80.6000417 103.614499,80.6000417" id="Fill-53" fill="#5E91F0" mask="url(#mask-2)"></path>
                    <polygon id="Fill-54" fill="#FFFFFF" mask="url(#mask-2)" points="15.3395724 105.508834 103.613989 105.508834 103.613989 35.4960742 15.3395724 35.4960742"></polygon>
                    <path d="M16.124417,104.724382 L102.830322,104.724382 L102.830322,36.2805265 L16.124417,36.2805265 L16.124417,104.724382 Z M103.614382,106.293286 L15.3399647,106.293286 C14.9065548,106.293286 14.5555124,105.942244 14.5555124,105.508834 L14.5555124,35.4960742 C14.5555124,35.0630565 14.9065548,34.7116219 15.3399647,34.7116219 L103.614382,34.7116219 C104.047792,34.7116219 104.398834,35.0630565 104.398834,35.4960742 L104.398834,105.508834 C104.398834,105.942244 104.047792,106.293286 103.614382,106.293286 L103.614382,106.293286 Z" id="Fill-55" fill="#5E91F0" mask="url(#mask-2)"></path>
                    <path d="M59.4771731,28.3756399 L59.4771731,18.3452406" id="Fill-56" fill="#FFFFFF" mask="url(#mask-2)"></path>
                    <path d="M59.4771731,29.1600922 C59.0441555,29.1600922 58.6927208,28.8086576 58.6927208,28.3756399 L58.6927208,18.3452406 C58.6927208,17.9118307 59.0441555,17.5607883 59.4771731,17.5607883 C59.9101908,17.5607883 60.2616254,17.9118307 60.2616254,18.3452406 L60.2616254,28.3756399 C60.2616254,28.8086576 59.9101908,29.1600922 59.4771731,29.1600922" id="Fill-57" fill="#5E91F0" mask="url(#mask-2)"></path>
                    <path d="M53.0337996,88.180165 C53.1965735,87.2729459 53.2565841,86.3421933 53.2118703,85.4149707 C53.1961813,85.0831473 53.3915099,84.7764265 53.6994074,84.6509141 L58.1041071,82.8560873 L56.4469516,77.9881686 L51.8622201,79.2523134 C51.5405947,79.341741 51.2001424,79.2174053 51.0095205,78.9444159 C50.4776618,78.1807516 49.8630435,77.4806279 49.1817466,76.8628717 C48.9350364,76.6389106 48.8565912,76.2843382 48.9856336,75.9772251 L50.8306654,71.5940979 L46.2169092,69.3235007 L43.8694357,73.4595254 C43.7054852,73.7489883 43.3740541,73.9019565 43.0485064,73.8442993 C42.1408951,73.680741 41.2097502,73.6195537 40.2837042,73.6662286 C39.9628633,73.6783876 39.6455523,73.4873735 39.5192555,73.1786915 L37.7244286,68.7735996 L35.0259127,69.6921933 L35.0259127,82.5293629 C35.8248774,81.1828505 37.0839233,80.1006986 38.6787148,79.5582498 C42.232676,78.3501933 46.1098314,80.2560201 47.3198491,83.8103735 C47.9054428,85.5306774 47.786206,87.3757092 46.9852802,89.0065855 L53.4287714,89.0065855 L53.4185735,89.0010943 C53.1291106,88.8367516 52.975358,88.5076739 53.0337996,88.180165" id="Fill-58" fill="#FFFFFF" mask="url(#mask-2)"></path>
                    <path d="M54.7949735,85.8988208 L59.3808816,84.0298633 C59.7656555,83.8729728 59.9613763,83.4438774 59.8276272,83.0504746 L57.6943092,76.7823085 C57.5601678,76.3889057 57.1408781,76.1696512 56.7427686,76.2790823 L51.9685919,77.5957855 C51.5622456,77.0592201 51.1186378,76.5540329 50.6424753,76.0849304 L52.5639912,71.5213792 C52.7248039,71.1381742 52.5596767,70.6961353 52.1870618,70.5125735 L46.2460124,67.5889198 C45.8757509,67.4073191 45.4223375,67.544206 45.2175954,67.9058385 L42.773242,72.2120894 C42.1099876,72.1210929 41.4447721,72.0810859 40.7670053,72.083047 L38.8984399,67.4967466 C38.7411572,67.1119728 38.3132385,66.9170364 37.9190512,67.0500011 L35.0259912,68.0348809 L35.0259912,69.6924286 L37.7245071,68.773835 L39.5193339,73.1785346 C39.6456307,73.4872166 39.9629417,73.678623 40.2837827,73.666464 C41.2094364,73.6193968 42.1405813,73.6809763 43.0485848,73.8445346 C43.3741325,73.9017996 43.7055636,73.7488314 43.8695141,73.4593686 L46.2169876,69.3233438 L50.8307438,71.593941 L48.9853198,75.9770682 C48.8562774,76.2841813 48.9351148,76.6391459 49.1814329,76.8627148 C49.8631219,77.480471 50.4777403,78.1805947 51.0095989,78.9446512 C51.2002208,79.2176406 51.5406731,79.3415841 51.8619064,79.2525488 L56.44703,77.9880117 L58.1041855,82.8559304 L53.6994859,84.6507572 C53.3915883,84.7766618 53.1962597,85.0829905 53.2119488,85.415206 C53.2566625,86.3424286 53.1966519,87.272789 53.0338781,88.1800081 C52.9750442,88.507517 53.129189,88.8365947 53.4186519,89.0009375 L53.4288498,89.0068208 L56.6066661,89.0068208 L54.6655389,87.9046654 C54.7569276,87.2418032 54.8000724,86.5707042 54.7949735,85.8988208" id="Fill-59" fill="#5E91F0" mask="url(#mask-2)"></path>
                    <path d="M47.3196922,83.8105304 C46.1096746,80.2557848 42.2325191,78.3503502 38.6789502,79.5580145 C37.0837664,80.1008555 35.8247205,81.1830074 35.0257558,82.5291276 L35.0257558,89.0067424 L36.5777947,89.0067424 C36.2993141,88.607064 36.0729996,88.1669862 35.9117947,87.693177 C34.9806498,84.9577919 36.4487523,81.9745198 39.1845297,81.0433749 C39.7422753,80.8535375 40.3098265,80.7633254 40.8687488,80.7633254 C43.0510951,80.7633254 45.0930244,82.1380781 45.8343318,84.3161099 C46.2853919,85.641442 46.193611,87.0628696 45.5754625,88.3187777 C45.4558336,88.5615657 45.3150244,88.7886647 45.1628406,89.0067424 L46.9851233,89.0067424 C47.7860491,87.3758661 47.9052859,85.5308343 47.3196922,83.8105304" id="Fill-60" fill="#5E91F0" mask="url(#mask-2)"></path>
                    <path d="M78.1343512,52.7369237 C78.1174855,53.0244254 77.9213724,53.2695668 77.644853,53.3495809 C76.3940438,53.7092523 75.1883406,54.2077717 74.0610827,54.832588 C73.8104502,54.9722205 73.4974537,54.9377046 73.2817293,54.7462982 L68.983323,50.9275845 L67.391277,50.9275845 L62.6398495,55.6782276 L67.2088919,60.8191357 C67.399906,61.0344678 67.4348141,61.3470721 67.2947894,61.5992735 C66.6699731,62.725747 66.1710615,63.9318424 65.8113901,65.1822594 C65.7321604,65.4595633 65.4866269,65.6560686 65.1991251,65.672542 L58.3328141,66.0781039 L58.3328141,73.8563406 L65.1991251,74.261118 C65.4866269,74.2779837 65.7321604,74.474489 65.8113901,74.7514007 C66.1710615,76.0018177 66.6699731,77.2079131 67.2947894,78.335171 C67.4348141,78.5869802 67.399906,78.8991922 67.2088919,79.1149166 L62.6398495,84.2554325 L67.391277,89.0068601 L68.983323,89.0068601 L73.2817293,85.1873618 C73.4974537,84.9963477 73.8104502,84.962224 74.0610827,85.1014643 C75.1883406,85.7258883 76.3940438,86.2251922 77.644853,86.5844714 C77.9213724,86.6640933 78.1174855,86.9096269 78.1343512,87.1967364 L78.241429,89.0068601 L84.7127682,89.0068601 L84.7127682,78.5905102 C83.9836198,78.7838777 83.2183866,78.8882099 82.4292276,78.8882099 C77.5099272,78.8882099 73.5080438,74.8863265 73.5080438,69.9670261 C73.5080438,65.048118 77.5099272,61.0462346 82.4292276,61.0462346 C83.2183866,61.0462346 83.9836198,61.1501746 84.7127682,61.3431498 L84.7127682,50.9275845 L78.241429,50.9275845 L78.1343512,52.7369237 Z" id="Fill-61" fill="#FFFFFF" mask="url(#mask-2)"></path>
                    <path d="M67.2086958,79.1149166 C67.3997099,78.8991922 67.434618,78.5869802 67.2949855,78.335171 C66.6701693,77.2079131 66.1708654,76.0018177 65.811194,74.7514007 C65.7319643,74.474489 65.4864307,74.2779837 65.1993212,74.261118 L58.332618,73.8563406 L58.332618,66.0781039 L65.1993212,65.6729343 C65.4864307,65.6560686 65.7319643,65.4595633 65.811194,65.1826516 C66.1708654,63.9318424 66.6701693,62.725747 67.2949855,61.5992735 C67.434618,61.3470721 67.3997099,61.0344678 67.2086958,60.8191357 L62.6400456,55.6782276 L67.3914731,50.9275845 L65.4715261,50.9275845 L61.2280314,55.1706869 C60.9738689,55.4252417 60.9617099,55.8331569 61.2005756,56.1014396 L65.8790491,61.3666834 C65.3844519,62.3174396 64.9710456,63.3160473 64.6462823,64.3460332 L57.6140597,64.7606163 C57.255565,64.7817965 56.9755155,65.0791039 56.9755155,65.4379908 L56.9755155,74.4960615 C56.9755155,74.8553406 57.255565,75.1522558 57.6140597,75.173436 L64.6462823,75.5884113 C64.9710456,76.6180049 65.3844519,77.6166127 65.8790491,78.5673689 L61.2005756,83.8322205 C60.9617099,84.1008954 60.9738689,84.5092028 61.2280314,84.7629731 L65.4715261,89.0068601 L67.3914731,89.0068601 L62.6400456,84.2554325 L67.2086958,79.1149166 Z" id="Fill-62" fill="#5E91F0" mask="url(#mask-2)"></path>
                    <path d="M73.508083,69.9669477 C73.508083,74.8862481 77.5099664,78.8881314 82.4292668,78.8881314 C83.2184258,78.8881314 83.983659,78.7837993 84.7128074,78.5904318 L84.7128074,77.1768488 C83.9918958,77.4059088 83.2247014,77.5306367 82.4292668,77.5306367 C78.2583339,77.5306367 74.8651855,74.1378806 74.8651855,69.9669477 C74.8651855,65.7964071 78.2583339,62.4032587 82.4292668,62.4032587 C83.2247014,62.4032587 83.9918958,62.5283788 84.7128074,62.7574389 L84.7128074,61.3434636 C83.983659,61.1500961 83.2184258,61.0461562 82.4292668,61.0461562 C77.5099664,61.0461562 73.508083,65.0480396 73.508083,69.9669477" id="Fill-63" fill="#5E91F0" mask="url(#mask-2)"></path>
                    <path d="M74.0611611,54.8325095 C75.1884191,54.2076933 76.39373,53.7091739 77.6449314,53.3495025 C77.9214509,53.2698806 78.117564,53.0247392 78.1344297,52.7368452 L78.2415074,50.927506 L76.8816594,50.927506 L76.8079208,52.1841986 C75.7783272,52.5089618 74.7797194,52.9223682 73.828571,53.4169654 L71.0268996,50.927506 L68.9834014,50.927506 L73.2818078,54.7462198 C73.4975322,54.9380184 73.8101364,54.972142 74.0611611,54.8325095" id="Fill-64" fill="#5E91F0" mask="url(#mask-2)"></path>
                    <path d="M77.644853,86.5844322 C76.394436,86.225153 75.1883406,85.7262413 74.0610827,85.1014251 C73.8104502,84.9621848 73.4974537,84.9963085 73.2817293,85.1873226 L68.983323,89.0068208 L71.0268212,89.0068208 L73.8288848,86.5169693 C74.779641,87.0119587 75.7782488,87.4249728 76.8078424,87.7501283 L76.8819731,89.0068208 L78.241429,89.0068208 L78.1343512,87.1970894 C78.1174855,86.9095876 77.9213724,86.6640541 77.644853,86.5844322" id="Fill-65" fill="#5E91F0" mask="url(#mask-2)"></path>
                    <path d="M84.7129643,61.3433067 L84.7129643,62.757282 L84.7129643,77.1766919 L84.7129643,78.5906671 L84.7129643,89.0066247 L78.2416251,89.0066247 L76.881777,89.0066247 L71.0266251,89.0066247 L68.9831269,89.0066247 L67.3914731,89.0066247 L65.4715261,89.0066247 L56.606823,89.0066247 L53.4286145,89.0066247 L46.9855155,89.0066247 L45.1628406,89.0066247 L36.5777947,89.0066247 L35.0257558,89.0066247 L35.0257558,82.5294021 L35.0257558,69.6922325 L35.0257558,68.035077 L35.0257558,50.9273491 L65.4715261,50.9273491 L67.3914731,50.9273491 L68.9831269,50.9273491 L71.0266251,50.9273491 L76.881777,50.9273491 L78.2416251,50.9273491 L84.7129643,50.9273491 L84.7129643,61.3433067 Z M85.4974166,49.3584445 L78.3341905,49.3584445 L76.9747346,49.3584445 L69.260823,49.3584445 L67.040823,49.3584445 L34.2413035,49.3584445 C33.8082859,49.3584445 33.4568512,49.7098792 33.4568512,50.1428968 L33.4568512,68.5688968 L33.4568512,70.2260523 L33.4568512,72.6080417 L33.4568512,76.131017 L33.4568512,89.791077 C33.4568512,90.2244869 33.8082859,90.5755293 34.2413035,90.5755293 L35.8258972,90.5755293 L38.3220244,90.5755293 L43.4331233,90.5755293 L45.9194449,90.5755293 L56.1926322,90.5755293 L59.2202258,90.5755293 L67.040823,90.5755293 L69.260823,90.5755293 L76.9747346,90.5755293 L78.3341905,90.5755293 L85.4974166,90.5755293 C85.9304343,90.5755293 86.2818689,90.2244869 86.2818689,89.791077 L86.2818689,78.0125258 L86.2818689,76.4644092 L86.2818689,63.4695647 L86.2818689,61.9218403 L86.2818689,50.1428968 C86.2818689,49.7098792 85.9304343,49.3584445 85.4974166,49.3584445 L85.4974166,49.3584445 Z" id="Fill-66" fill="#609127" mask="url(#mask-2)"></path>
                </g>
            </g>
        </g>
    </g>
</svg>