<?xml version="1.0" encoding="UTF-8"?>
<svg width="40px" height="40px" viewBox="0 0 40 40" version="1.1" xmlns="http://www.w3.org/2000/svg" xmlns:xlink="http://www.w3.org/1999/xlink">
    <!-- Generator: Sketch 55.2 (78181) - https://sketchapp.com -->
    <title>github</title>
    <desc>Created with Sketch.</desc>
    <g id="New-Design" stroke="none" stroke-width="1" fill="none" fill-rule="evenodd">
        <g id="Contact-Us" transform="translate(-665.000000, -1247.000000)" fill="#609127" fill-rule="nonzero">
            <g id="Group-Copy" transform="translate(595.000000, 1247.000000)">
                <g id="github" transform="translate(70.000000, 0.000000)">
                    <path d="M19.9975,0.025703125 C8.955,0.025703125 0,9.01570312 0,20.1057031 C0,28.9757031 5.73,36.5007031 13.68,39.1582031 C14.68,39.3432031 15.045,38.7232031 15.045,38.1907031 C15.045,37.7132031 15.0275,36.4507031 15.0175,34.7757031 C9.455,35.9882031 8.28,32.0832031 8.28,32.0832031 C7.3725,29.7632031 6.06,29.1457031 6.06,29.1457031 C4.2425,27.9007031 6.195,27.9257031 6.195,27.9257031 C8.2025,28.0682031 9.2575,29.9957031 9.2575,29.9957031 C11.0425,33.0632031 13.94,32.1782031 15.08,31.6632031 C15.26,30.3657031 15.7775,29.4807031 16.35,28.9782031 C11.91,28.4707031 7.24,26.7482031 7.24,19.0557031 C7.24,16.8632031 8.02,15.0707031 9.3,13.6657031 C9.0925,13.1582031 8.4075,11.1157031 9.495,8.35320312 C9.495,8.35320312 11.175,7.81320312 14.995,10.4107031 C16.59,9.96570312 18.3,9.74320312 20.0025,9.73570312 C21.7,9.74570312 23.4125,9.96570312 25.01,10.4132031 C28.8275,7.81570313 30.505,8.35570312 30.505,8.35570312 C31.595,11.1207031 30.91,13.1607031 30.705,13.6682031 C31.9875,15.0732031 32.76,16.8657031 32.76,19.0582031 C32.76,26.7707031 28.085,28.4682031 23.63,28.9657031 C24.3475,29.5857031 24.9875,30.8107031 24.9875,32.6832031 C24.9875,35.3682031 24.9625,37.5332031 24.9625,38.1907031 C24.9625,38.7282031 25.3225,39.3532031 26.3375,39.1557031 C34.275,36.4957031 40,28.9732031 40,20.1057031 C40,9.01570312 31.045,0.025703125 19.9975,0.025703125 Z" id="Path"></path>
                </g>
            </g>
        </g>
    </g>
</svg>