
<svg width="88px" height="100px" viewBox="0 0 88 100" version="1.1" xmlns="http://www.w3.org/2000/svg" xmlns:xlink="http://www.w3.org/1999/xlink">
    <defs>
        <polygon id="path-1" points="0 0.244444444 87.193958 0.244444444 87.193958 99.4149708 0 99.4149708"></polygon>
    </defs>
    <g id="New-Design" stroke="none" stroke-width="1" fill="none" fill-rule="evenodd">
        <g id="Contact-Us---Succes" transform="translate(-377.000000, -598.000000)">
            <g id="Group-2" transform="translate(311.000000, 598.000000)">
                <g id="Group-16" transform="translate(66.300000, 0.000000)">
                    <path d="M45.6199926,8.74251462 L77.6250457,27.7121053 C78.8234508,28.4220468 79.5571802,29.7074269 79.5571802,31.0945614 L79.5571802,69.2460234 C79.5571802,70.6337427 78.8234508,71.9191228 77.6250457,72.6290643 L45.6199926,91.598655 C44.3734163,92.3372515 42.8201893,92.3372515 41.573613,91.598655 L9.56797236,72.6290643 C8.37074216,71.9191228 7.63642531,70.6337427 7.63642531,69.2460234 L7.63642531,31.0945614 C7.63642531,29.7074269 8.37074216,28.4220468 9.56797236,27.7121053 L41.573613,8.74251462 C42.8201893,8.00391813 44.3734163,8.00391813 45.6199926,8.74251462" id="Fill-1" fill="#5E91F0"></path>
                    <path d="M14.0982961,67.8273684 L43.5972727,85.3109942 L73.0950744,67.8273684 L73.0950744,32.5133333 L43.5966853,15.0297076 L14.0982961,32.5133333 L14.0982961,67.8273684 Z M43.5966853,98.5864327 C41.7538437,98.5864327 39.9115896,98.099883 38.2690696,97.1261988 L6.26225412,78.1560234 C3.12349016,76.2952047 1.17431951,72.8811696 1.17431951,69.2460819 L1.17431951,31.0946199 C1.17431951,27.4595322 3.12349016,24.0454971 6.26107921,22.1852632 L38.2684822,3.21508772 C41.5552844,1.2671345 45.6380861,1.2677193 48.9254758,3.21508772 L48.9254758,3.21508772 L80.9311164,22.1846784 C84.0692929,24.0443275 86.019051,27.4583626 86.019051,31.0946199 L86.019051,69.2460819 C86.019051,72.8823392 84.0692929,76.2963743 80.9311164,78.1566082 L48.9254758,97.125614 C47.281781,98.099883 45.4395268,98.5864327 43.5966853,98.5864327 L43.5966853,98.5864327 Z" id="Fill-3" fill="#C2E5FF"></path>
                    <path d="M43.597214,9.35754386 C43.104928,9.35754386 42.6132294,9.48736842 42.1749891,9.74760234 L10.1693485,28.7166082 C9.33222727,29.2136842 8.81174349,30.1242105 8.81174349,31.094386 L8.81174349,69.2464327 C8.81174349,70.2166082 9.33222727,71.1271345 10.1693485,71.6242105 L42.1749891,90.5938012 C43.0520572,91.1136842 44.1429583,91.1130994 45.0188514,90.5932164 L77.0239046,71.6242105 C77.8616132,71.1271345 78.382097,70.2166082 78.382097,69.2464327 L78.382097,31.094386 C78.382097,30.1242105 77.8616132,29.2136842 77.0239046,28.717193 L45.0188514,9.74760234 L45.0188514,9.74760234 C44.5806111,9.48736842 44.0889125,9.35754386 43.597214,9.35754386 M43.5966265,93.3230409 C42.6895984,93.3230409 41.7819827,93.0826901 40.9724718,92.6037427 L8.96683121,73.6335673 C7.42182855,72.7177778 6.46192956,71.0364912 6.46192956,69.2464327 L6.46192956,31.094386 C6.46192956,29.3043275 7.42182855,27.6230409 8.96683121,26.7072515 L40.9724718,7.73766082 C42.5909062,6.77859649 44.6017594,6.7780117 46.2213687,7.73707602 L46.2213687,7.73766082 L78.2264219,26.7072515 C79.772012,27.6230409 80.731911,29.3043275 80.731911,31.094386 L80.731911,69.2464327 C80.731911,71.0364912 79.772012,72.7177778 78.2264219,73.634152 L46.2213687,92.6031579 C45.4118578,93.0826901 44.5042422,93.3230409 43.5966265,93.3230409" id="Fill-5" fill="#5E91F0"></path>
                    <g id="Group-9" transform="translate(0.000000, 0.340351)">
                        <mask id="mask-2" fill="white">
                            <use xlink:href="#path-1"></use>
                        </mask>
                        <g id="Clip-8"></g>
                        <path d="M15.2737905,66.8225731 L43.5966853,83.6091228 L71.9201675,66.8225731 L71.9201675,32.8383626 L43.5972727,16.0512281 L15.2737905,32.8377778 L15.2737905,66.8225731 Z M43.5966853,99.4149708 C41.5118129,99.4149708 39.4621877,98.8535673 37.6686922,97.7915789 L5.66128921,78.8208187 C2.1682908,76.7500585 0,72.9512281 0,68.9061988 L0,30.754152 C0,26.7091228 2.1682908,22.9102924 5.6601143,20.840117 L37.6669298,1.86994152 C41.3226528,-0.296725146 45.867193,-0.297894737 49.5252658,1.86877193 L81.5326688,20.8395322 C85.0239048,22.908538 87.193958,26.7079532 87.193958,30.754152 L87.193958,68.9061988 C87.193958,72.9518129 85.0244923,76.7512281 81.5320813,78.8208187 L49.5270282,97.7904094 C47.7329452,98.8529825 45.6827326,99.4149708 43.5966853,99.4149708 L43.5966853,99.4149708 Z" id="Fill-7" fill="#C2E5FF" mask="url(#mask-2)"></path>
                    </g>
                    <path d="M45.6199926,8.74251462 L77.6250457,27.7121053 C78.8234508,28.4220468 79.5571802,29.7074269 79.5571802,31.0945614 L79.5571802,69.2460234 C79.5571802,70.6337427 78.8234508,71.9191228 77.6250457,72.6290643 L45.6199926,91.598655 C44.3734163,92.3372515 42.8201893,92.3372515 41.573613,91.598655 L9.56797236,72.6290643 C8.37074216,71.9191228 7.63701276,70.6337427 7.63701276,69.2460234 L7.63701276,31.0945614 C7.63701276,29.7074269 8.37074216,28.4220468 9.56797236,27.7121053 L41.573613,8.74251462 C42.8201893,8.00391813 44.3734163,8.00391813 45.6199926,8.74251462" id="Fill-10" fill="#FFFFFF"></path>
                    <path d="M43.597214,9.35754386 C43.104928,9.35754386 42.6132294,9.48736842 42.1749891,9.74760234 L10.1693485,28.7166082 C9.33222727,29.2136842 8.81174349,30.1242105 8.81174349,31.094386 L8.81174349,69.2464327 C8.81174349,70.2166082 9.33222727,71.1271345 10.1693485,71.6242105 L42.1749891,90.5938012 C43.0520572,91.1136842 44.1429583,91.1130994 45.0188514,90.5932164 L77.0239046,71.6242105 C77.8616132,71.1271345 78.382097,70.2166082 78.382097,69.2464327 L78.382097,31.094386 C78.382097,30.1242105 77.8616132,29.2136842 77.0239046,28.717193 L45.0188514,9.74760234 L45.0188514,9.74760234 C44.5806111,9.48736842 44.0889125,9.35754386 43.597214,9.35754386 M43.5966265,93.3230409 C42.6895984,93.3230409 41.7819827,93.0826901 40.9724718,92.6037427 L8.96683121,73.6335673 C7.42182855,72.7177778 6.46192956,71.0364912 6.46192956,69.2464327 L6.46192956,31.094386 C6.46192956,29.3043275 7.42182855,27.6230409 8.96683121,26.7072515 L40.9724718,7.73766082 C42.5909062,6.77859649 44.6017594,6.7780117 46.2213687,7.73707602 L46.2213687,7.73766082 L78.2264219,26.7072515 C79.772012,27.6230409 80.731911,29.3043275 80.731911,31.094386 L80.731911,69.2464327 C80.731911,71.0364912 79.772012,72.7177778 78.2264219,73.634152 L46.2213687,92.6031579 C45.4118578,93.0826901 44.5042422,93.3230409 43.5966265,93.3230409" id="Fill-12" fill="#5E91F0"></path>
                    <path d="M39.0542012,64.2432164 L39.0542012,64.2432164 C38.5865883,64.2432164 38.1383612,64.0584211 37.8082124,63.7291813 L24.7638078,50.7438012 C24.0753123,50.0584211 24.0753123,48.9478947 24.7638078,48.2625146 C25.4523033,47.5777193 26.56729,47.5771345 27.2557855,48.2625146 L39.0542012,60.0075439 L59.9381725,39.218655 C60.626668,38.5338596 61.7416547,38.5338596 62.4301502,39.218655 C63.1186457,39.9040351 63.1186457,41.0145614 62.4301502,41.6999415 L40.3001901,63.7291813 C39.9700412,64.0584211 39.5218142,64.2432164 39.0542012,64.2432164" id="Fill-14" fill="#448E28"></path>
                </g>
            </g>
        </g>
    </g>
</svg>
