<svg width="1440px" height="6144px" viewBox="0 0 1440 6144" version="1.1" xmlns="http://www.w3.org/2000/svg"
     xmlns:xlink="http://www.w3.org/1999/xlink">
    <g id="New-Design" stroke="none" stroke-width="1" fill="none" fill-rule="evenodd">
        <g id="Home-Page" transform="translate(0.000000, -480.000000)">
            <path d="M588,2480 L971,2793" id="Path-15" stroke="#7EB346" stroke-dasharray="3"></path>
            <path d="M890,862.5 L821,950.75" id="Path-15-Copy-4" stroke="#7EB346" stroke-dasharray="3"></path>
            <path d="M668,1159.5 L500.75,1369.125" id="Path-15-Copy-12" stroke="#7EB346" stroke-dasharray="3"></path>
            <path d="M404.747173,1458 L336.5,1528.79297 L311,1597.88006 L858.511918,1679.00459 L948.053588,1912.57001 L1031,1927.00317 L1023.22743,1938.94841 L861.510828,2064.00238 L543.228085,2077.21715 L435.819863,2183.9099 L404.747173,2313.65329 L386.919669,2330.65124 L412.345973,2351.11402 L586.610753,2479"
                  id="Path-14" stroke="#7EB346" stroke-dasharray="4"></path>
            <path d="M587,2479 L924,2525 L587,2479 Z" id="Path-10" stroke-opacity="0.807910839" stroke="#ECF0F2"></path>
            <path d="M1408.5,1528 L1491.5,1536.5" id="Path-8" stroke-opacity="0.72970389" stroke="#ECF0F2"></path>
            <path d="M1408.5,1609.5 L1408.5,1528" id="Path-8-Copy" stroke-opacity="0.72970389" stroke="#ECF0F2"></path>
            <path d="M1408.5,1609.5 L1456.5,1642.5" id="Path-8-Copy-2" stroke-opacity="0.72970389" stroke="#ECF0F2"></path>
            <ellipse id="Oval-Copy-6" fill="#7EB346" cx="337" cy="1528" rx="4" ry="3"></ellipse>
            <ellipse id="Oval-Copy-15" fill="#7EB346" cx="876" cy="750" rx="4" ry="3"></ellipse>
            <ellipse id="Oval-Copy-7" fill="#7EB346" cx="311" cy="1598" rx="4" ry="3"></ellipse>
            <ellipse id="Oval-Copy-8" fill="#7EB346" cx="859" cy="1680" rx="4" ry="3"></ellipse>
            <path d="" id="Path-9" stroke="#979797"></path>
            <path d="M1183,2101 C1183,2101 1076.66667,2089 864,2065" id="Path-11" stroke-opacity="0.808347902"
                  stroke="#ECF0F2"></path>
            <path d="M588,2480 L0,2562" id="Path-13" stroke-opacity="0.807910839" stroke="#ECF0F2"></path>
            <ellipse id="Oval-Copy-9" fill="#7EB346" cx="862" cy="2064" rx="4" ry="3"></ellipse>
            <ellipse id="Oval-Copy-10" fill="#7EB346" cx="545" cy="2077" rx="4" ry="3"></ellipse>
            <ellipse id="Oval-Copy-11" fill="#7EB346" cx="436" cy="2184" rx="4" ry="3"></ellipse>
            <ellipse id="Oval-Copy-12" fill="#7EB346" cx="587" cy="2480" rx="4" ry="3"></ellipse>
            <path d="M721.5,780.5 L891,862.5" id="Path-15-Copy-2" stroke-opacity="0.388303103" stroke="#B2C3CC"></path>
            <path d="M1223.375,717 L1327.5,783" id="Path-15-Copy-6" stroke-opacity="0.423049607" stroke="#CBD8E2"></path>
            <path d="M1334.5,606.5 L1383.5,753" id="Path-15-Copy-11" stroke-opacity="0.423049607" stroke="#CBD8E2"></path>
            <path d="M1334.5,606.5 L1223.375,713.5" id="Path-15-Copy-14" stroke-opacity="0.423049607"
                  stroke="#CBD8E2"></path>
            <path d="M1215.5,803.5 L1223.375,713.5" id="Path-15-Copy-15" stroke-opacity="0.423049607"
                  stroke="#CBD8E2"></path>
            <path d="M1129.3125,911 L1172.5,845.5" id="Path-15-Copy-16" stroke-opacity="0.423049607"
                  stroke="#CBD8E2"></path>
            <path d="M1129.3125,911 L1077.66667,749.5" id="Path-15-Copy-17" stroke-opacity="0.423049607"
                  stroke="#CBD8E2"></path>
            <path d="M1129.3125,911 L1007,769" id="Path-15-Copy-20" stroke-opacity="0.423049607" stroke="#CBD8E2"></path>
            <path d="M1129.3125,911 L891,861.5" id="Path-15-Copy-21" stroke-opacity="0.423049607" stroke="#CBD8E2"></path>
            <path d="M1078,749.5 L1172.5,842.5" id="Path-15-Copy-9" stroke-opacity="0.423049607" stroke="#CBD8E2"></path>
            <path d="M144.5,599.5 L720.5,780" id="Path-15-Copy-7" stroke-opacity="0.999644886" stroke="#E5EBEE"></path>
            <path d="M30.5,750 L58.5,662.5" id="Path-15-Copy-8" stroke-opacity="0.803949956" stroke="#E5EBEE"></path>
            <path d="M144.5,772 L144.5,599.5" id="Path-15-Copy-10" stroke-opacity="0.803949956" stroke="#E5EBEE"></path>
            <path d="M183.5,812.5 L719.5,780" id="Path-15-Copy-13" stroke-opacity="0.626420455" stroke="#E5EBEE"></path>
            <path d="M30.5,1332 L118.5,1152.5" id="Path-15-Copy-18" stroke-opacity="0.626420455" stroke="#E5EBEE"></path>
            <path d="M88.5,1355 L118.5,1152.5" id="Path-15-Copy-19" stroke-opacity="0.626420455" stroke="#E5EBEE"></path>
            <path d="M891.25,861.5 L1007.25,768.5" id="Path-15-Copy-5" stroke-opacity="0.388303103" stroke="#B2C3CC"></path>
            <path d="M876.5,749.5 L891.25,862" id="Path-15-Copy-3" stroke="#7EB346" stroke-dasharray="3"></path>
            <ellipse id="Oval-Copy-14" fill="#7EB346" cx="891" cy="862" rx="4" ry="3"></ellipse>
            <ellipse id="Oval-Copy-16" fill-opacity="0.649284309" fill="#C8D6DC" cx="1007" cy="769" rx="4" ry="3"></ellipse>
            <ellipse id="Oval-Copy-13" fill-opacity="0.649284309" fill="#C8D6DC" cx="721" cy="780" rx="4" ry="3"></ellipse>
        </g>
    </g>
</svg>
