<svg width="357px" height="397px" viewBox="0 0 357 397" version="1.1" xmlns="http://www.w3.org/2000/svg" xmlns:xlink="http://www.w3.org/1999/xlink">
    <defs>
        <path d="M173.5,1.15470054 L318.023357,84.5952995 C319.260961,85.3098306 320.023357,86.6303387 320.023357,88.0594011 L320.023357,254.940599 C320.023357,256.369661 319.260961,257.690169 318.023357,258.404701 L173.5,341.845299 C172.262396,342.559831 170.737604,342.559831 169.5,341.845299 L24.9766433,258.404701 C23.7390389,257.690169 22.9766433,256.369661 22.9766433,254.940599 L22.9766433,88.0594011 C22.9766433,86.6303387 23.7390389,85.3098306 24.9766433,84.5952995 L169.5,1.15470054 C170.737604,0.440169359 172.262396,0.440169359 173.5,1.15470054 Z" id="path-1"></path>
        <filter x="-7.6%" y="-11.8%" width="115.2%" height="128.2%" filterUnits="objectBoundingBox" id="filter-2">
            <feOffset dx="0" dy="8" in="SourceAlpha" result="shadowOffsetOuter1"></feOffset>
            <feGaussianBlur stdDeviation="15" in="shadowOffsetOuter1" result="shadowBlurOuter1"></feGaussianBlur>
            <feColorMatrix values="0 0 0 0 0   0 0 0 0 0   0 0 0 0 0  0 0 0 0.15 0" type="matrix" in="shadowBlurOuter1"></feColorMatrix>
        </filter>
    </defs>
    <g id="New-Design" stroke="none" stroke-width="1" fill="none" fill-rule="evenodd">
        <g id="Platform-Hover" transform="translate(-456.000000, -3195.000000)">
            <g id="Group-2" transform="translate(463.000000, 3214.000000)">
                <g id="Polygon-Copy-29">
                    <use fill="black" fill-opacity="1" filter="url(#filter-2)" xlink:href="#path-1"></use>
                    <use fill="#FAFAFA" fill-rule="evenodd" xlink:href="#path-1"></use>
                </g>
                <path d="M173.245982,10.0818696 C172.165122,9.45974347 170.834878,9.45974347 169.754018,10.0818696 L32.1588648,89.279531 C31.0736972,89.9041368 30.4048465,91.0608495 30.4048465,92.3129363 L30.4048465,250.687064 C30.4048465,251.93915 31.0736972,253.095863 32.1588648,253.720469 L169.754018,332.91813 C170.834878,333.540257 172.165122,333.540257 173.245982,332.91813 L310.841135,253.720469 C311.926303,253.095863 312.595154,251.93915 312.595154,250.687064 L312.595154,92.3129363 C312.595154,91.0608495 311.926303,89.9041368 310.841135,89.279531 L173.245982,10.0818696 Z" id="Polygon-Copy-36" stroke="#459627"></path>
            </g>
        </g>
    </g>
</svg>
