<?xml version="1.0" encoding="UTF-8"?>
<svg width="40px" height="40px" viewBox="0 0 40 40" version="1.1" xmlns="http://www.w3.org/2000/svg" xmlns:xlink="http://www.w3.org/1999/xlink">
    <!-- Generator: Sketch 55.2 (78181) - https://sketchapp.com -->
    <title>facebook-logo-button</title>
    <desc>Created with Sketch.</desc>
    <g id="New-Design" stroke="none" stroke-width="1" fill="none" fill-rule="evenodd">
        <g id="Contact-Us" transform="translate(-595.000000, -1247.000000)" fill="#609127" fill-rule="nonzero">
            <g id="Group-Copy" transform="translate(595.000000, 1247.000000)">
                <g id="facebook-logo-button">
                    <path d="M19.9750308,0 C8.9438193,0 0,8.9438193 0,19.9750308 C0,31.0062423 8.9438193,39.9500616 19.9750308,39.9500616 C31.0062423,39.9500616 39.9500616,31.0062423 39.9500616,19.9750308 C39.9500616,8.94135524 31.0062423,0 19.9750308,0 Z M25.1385626,19.9724846 L21.8651335,19.9749487 L21.8626694,31.9599179 L17.3707598,31.9599179 L17.3707598,19.9750308 L14.374538,19.9750308 L14.374538,15.8451745 L17.3707598,15.8427105 L17.3657495,13.4107598 C17.3657495,10.04 18.2795893,7.9900616 22.2471458,7.9900616 L25.5530185,7.9900616 L25.5530185,12.1223819 L23.4855852,12.1223819 C21.9400411,12.1223819 21.8651335,12.6991376 21.8651335,13.7752772 L21.8601232,15.8427105 L25.5754415,15.8427105 L25.1385626,19.9724846 Z" id="Shape"></path>
                </g>
            </g>
        </g>
    </g>
</svg>