<svg width="8px" height="19px" viewBox="0 0 8 19" version="1.1" xmlns="http://www.w3.org/2000/svg" xmlns:xlink="http://www.w3.org/1999/xlink">
    <g id="Symbols" stroke="none" stroke-width="1" fill="none" fill-rule="evenodd">
        <g id="Header---Home" transform="translate(-823.000000, -24.000000)" fill="#7EB346">
            <path d="M830.999219,40.4853315 L828.673111,39.092987 L826.347003,37.6691678 L825.269088,37.0081976 L825.269088,34.1605592 L825.269088,32.8377905 L825.269088,29.9901521 L828.673111,27.906191 L830.999219,26.5138465 L831,26.5146748 L831,24 C830.695372,23.999178 830.386839,24.0803498 830.104081,24.2542893 L823.895919,28.0544537 C823.322593,28.4056459 823.000781,29.0442524 823,29.7002529 C823,29.7168185 823.000781,29.7333842 823.000781,29.7507782 L823,37.3005817 C823.000781,37.9540973 823.322593,38.5927038 823.895919,38.9463809 L830.062683,42.7200402 C830.076743,42.7291513 830.090021,42.7382624 830.1033,42.745717 C830.375903,42.912202 830.685999,42.9991717 831,43 L831,40.4853315 L830.999219,40.4853315 Z" id="Fill-14"></path>
        </g>
    </g>
</svg>