<svg width="65px" height="19px" viewBox="0 0 65 19" version="1.1" xmlns="http://www.w3.org/2000/svg" xmlns:xlink="http://www.w3.org/1999/xlink">
    <g id="Symbols" stroke="none" stroke-width="1" fill="none" fill-rule="evenodd">
        <g id="Header---Home" transform="translate(-823.000000, -24.000000)" fill="#7EB346">
            <path d="M888,29.7002485 C887.999219,28.995379 887.639133,28.3824491 887.104081,28.0544488 L880.937317,24.2791316 C880.922476,24.2700205 880.909979,24.2617377 880.8967,24.2542831 C880.624097,24.0877981 880.314001,24 880,24 L880,26.5146693 L882.325327,27.906186 L885.730131,29.9901478 L885.730131,32.8377872 L885.730131,34.1605563 L885.730131,37.0081956 L884.651435,37.669166 L882.325327,39.0929857 L880,40.4853307 L880,43 C880.304628,43 880.613161,42.9188282 880.895138,42.7457169 L887.104081,38.9455512 C887.677407,38.594359 887.999219,37.9557522 888,37.2997515 C888,37.2831858 887.999219,37.2666202 887.999219,37.2492262 L888,29.7002485 Z" id="Fill-15"></path>
        </g>
    </g>
</svg>